solid glce_lowpoly_penguin
  facet normal 3.51635271e-01 1.21439610e-01 9.28226835e-01
    outer loop
      vertex 0.00000000e+00 0.00000000e+00 1.67000000e+00
      vertex 2.90000000e-01 0.00000000e+00 1.56014083e+00
      vertex 2.51147367e-01 1.12500000e-01 1.56014083e+00
    endloop
  endfacet
  facet normal 2.52665825e-01 3.25658174e-01 9.11101934e-01
    outer loop
      vertex 0.00000000e+00 0.00000000e+00 1.67000000e+00
      vertex 2.51147367e-01 1.12500000e-01 1.56014083e+00
      vertex 1.45000000e-01 1.94855716e-01 1.56014083e+00
    endloop
  endfacet
  facet normal 9.08366241e-02 4.36942222e-01 8.94891168e-01
    outer loop
      vertex 0.00000000e+00 0.00000000e+00 1.67000000e+00
      vertex 1.45000000e-01 1.94855716e-01 1.56014083e+00
      vertex 1.77573786e-17 2.25000000e-01 1.56014083e+00
    endloop
  endfacet
  facet normal -9.08366241e-02 4.36942222e-01 8.94891168e-01
    outer loop
      vertex 0.00000000e+00 0.00000000e+00 1.67000000e+00
      vertex 1.77573786e-17 2.25000000e-01 1.56014083e+00
      vertex -1.45000000e-01 1.94855716e-01 1.56014083e+00
    endloop
  endfacet
  facet normal -2.52665825e-01 3.25658174e-01 9.11101934e-01
    outer loop
      vertex 0.00000000e+00 0.00000000e+00 1.67000000e+00
      vertex -1.45000000e-01 1.94855716e-01 1.56014083e+00
      vertex -2.51147367e-01 1.12500000e-01 1.56014083e+00
    endloop
  endfacet
  facet normal -3.51635271e-01 1.21439610e-01 9.28226835e-01
    outer loop
      vertex 0.00000000e+00 0.00000000e+00 1.67000000e+00
      vertex -2.51147367e-01 1.12500000e-01 1.56014083e+00
      vertex -2.90000000e-01 2.75545530e-17 1.56014083e+00
    endloop
  endfacet
  facet normal -3.51635271e-01 -1.21439610e-01 9.28226835e-01
    outer loop
      vertex 0.00000000e+00 0.00000000e+00 1.67000000e+00
      vertex -2.90000000e-01 2.75545530e-17 1.56014083e+00
      vertex -2.51147367e-01 -1.12500000e-01 1.56014083e+00
    endloop
  endfacet
  facet normal -2.52665825e-01 -3.25658174e-01 9.11101934e-01
    outer loop
      vertex 0.00000000e+00 0.00000000e+00 1.67000000e+00
      vertex -2.51147367e-01 -1.12500000e-01 1.56014083e+00
      vertex -1.45000000e-01 -1.94855716e-01 1.56014083e+00
    endloop
  endfacet
  facet normal -9.08366241e-02 -4.36942222e-01 8.94891168e-01
    outer loop
      vertex 0.00000000e+00 0.00000000e+00 1.67000000e+00
      vertex -1.45000000e-01 -1.94855716e-01 1.56014083e+00
      vertex -5.32721358e-17 -2.25000000e-01 1.56014083e+00
    endloop
  endfacet
  facet normal 9.08366241e-02 -4.36942222e-01 8.94891168e-01
    outer loop
      vertex 0.00000000e+00 0.00000000e+00 1.67000000e+00
      vertex -5.32721358e-17 -2.25000000e-01 1.56014083e+00
      vertex 1.45000000e-01 -1.94855716e-01 1.56014083e+00
    endloop
  endfacet
  facet normal 2.52665825e-01 -3.25658174e-01 9.11101934e-01
    outer loop
      vertex 0.00000000e+00 0.00000000e+00 1.67000000e+00
      vertex 1.45000000e-01 -1.94855716e-01 1.56014083e+00
      vertex 2.51147367e-01 -1.12500000e-01 1.56014083e+00
    endloop
  endfacet
  facet normal 3.51635271e-01 -1.21439610e-01 9.28226835e-01
    outer loop
      vertex 0.00000000e+00 0.00000000e+00 1.67000000e+00
      vertex 2.51147367e-01 -1.12500000e-01 1.56014083e+00
      vertex 2.90000000e-01 0.00000000e+00 1.56014083e+00
    endloop
  endfacet
  facet normal 7.85778805e-01 2.71374004e-01 5.55794764e-01
    outer loop
      vertex 2.90000000e-01 0.00000000e+00 1.56014083e+00
      vertex 5.02294734e-01 0.00000000e+00 1.26000000e+00
      vertex 4.35000000e-01 1.94855716e-01 1.26000000e+00
    endloop
  endfacet
  facet normal 7.85778805e-01 2.71374004e-01 5.55794764e-01
    outer loop
      vertex 2.90000000e-01 0.00000000e+00 1.56014083e+00
      vertex 4.35000000e-01 1.94855716e-01 1.26000000e+00
      vertex 2.51147367e-01 1.12500000e-01 1.56014083e+00
    endloop
  endfacet
  facet normal 5.27427165e-01 6.79795013e-01 5.09607031e-01
    outer loop
      vertex 2.51147367e-01 1.12500000e-01 1.56014083e+00
      vertex 4.35000000e-01 1.94855716e-01 1.26000000e+00
      vertex 2.51147367e-01 3.37500000e-01 1.26000000e+00
    endloop
  endfacet
  facet normal 5.27427165e-01 6.79795013e-01 5.09607031e-01
    outer loop
      vertex 2.51147367e-01 1.12500000e-01 1.56014083e+00
      vertex 2.51147367e-01 3.37500000e-01 1.26000000e+00
      vertex 1.45000000e-01 1.94855716e-01 1.56014083e+00
    endloop
  endfacet
  facet normal 1.79298279e-01 8.62460370e-01 4.73301423e-01
    outer loop
      vertex 1.45000000e-01 1.94855716e-01 1.56014083e+00
      vertex 2.51147367e-01 3.37500000e-01 1.26000000e+00
      vertex 3.07566819e-17 3.89711432e-01 1.26000000e+00
    endloop
  endfacet
  facet normal 1.79298279e-01 8.62460370e-01 4.73301423e-01
    outer loop
      vertex 1.45000000e-01 1.94855716e-01 1.56014083e+00
      vertex 3.07566819e-17 3.89711432e-01 1.26000000e+00
      vertex 1.77573786e-17 2.25000000e-01 1.56014083e+00
    endloop
  endfacet
  facet normal -1.79298279e-01 8.62460370e-01 4.73301423e-01
    outer loop
      vertex 1.77573786e-17 2.25000000e-01 1.56014083e+00
      vertex 3.07566819e-17 3.89711432e-01 1.26000000e+00
      vertex -2.51147367e-01 3.37500000e-01 1.26000000e+00
    endloop
  endfacet
  facet normal -1.79298279e-01 8.62460370e-01 4.73301423e-01
    outer loop
      vertex 1.77573786e-17 2.25000000e-01 1.56014083e+00
      vertex -2.51147367e-01 3.37500000e-01 1.26000000e+00
      vertex -1.45000000e-01 1.94855716e-01 1.56014083e+00
    endloop
  endfacet
  facet normal -5.27427165e-01 6.79795013e-01 5.09607031e-01
    outer loop
      vertex -1.45000000e-01 1.94855716e-01 1.56014083e+00
      vertex -2.51147367e-01 3.37500000e-01 1.26000000e+00
      vertex -4.35000000e-01 1.94855716e-01 1.26000000e+00
    endloop
  endfacet
  facet normal -5.27427165e-01 6.79795013e-01 5.09607031e-01
    outer loop
      vertex -1.45000000e-01 1.94855716e-01 1.56014083e+00
      vertex -4.35000000e-01 1.94855716e-01 1.26000000e+00
      vertex -2.51147367e-01 1.12500000e-01 1.56014083e+00
    endloop
  endfacet
  facet normal -7.85778805e-01 2.71374004e-01 5.55794764e-01
    outer loop
      vertex -2.51147367e-01 1.12500000e-01 1.56014083e+00
      vertex -4.35000000e-01 1.94855716e-01 1.26000000e+00
      vertex -5.02294734e-01 4.77258857e-17 1.26000000e+00
    endloop
  endfacet
  facet normal -7.85778805e-01 2.71374004e-01 5.55794764e-01
    outer loop
      vertex -2.51147367e-01 1.12500000e-01 1.56014083e+00
      vertex -5.02294734e-01 4.77258857e-17 1.26000000e+00
      vertex -2.90000000e-01 2.75545530e-17 1.56014083e+00
    endloop
  endfacet
  facet normal -7.85778805e-01 -2.71374004e-01 5.55794764e-01
    outer loop
      vertex -2.90000000e-01 2.75545530e-17 1.56014083e+00
      vertex -5.02294734e-01 4.77258857e-17 1.26000000e+00
      vertex -4.35000000e-01 -1.94855716e-01 1.26000000e+00
    endloop
  endfacet
  facet normal -7.85778805e-01 -2.71374004e-01 5.55794764e-01
    outer loop
      vertex -2.90000000e-01 2.75545530e-17 1.56014083e+00
      vertex -4.35000000e-01 -1.94855716e-01 1.26000000e+00
      vertex -2.51147367e-01 -1.12500000e-01 1.56014083e+00
    endloop
  endfacet
  facet normal -5.27427165e-01 -6.79795013e-01 5.09607031e-01
    outer loop
      vertex -2.51147367e-01 -1.12500000e-01 1.56014083e+00
      vertex -4.35000000e-01 -1.94855716e-01 1.26000000e+00
      vertex -2.51147367e-01 -3.37500000e-01 1.26000000e+00
    endloop
  endfacet
  facet normal -5.27427165e-01 -6.79795013e-01 5.09607031e-01
    outer loop
      vertex -2.51147367e-01 -1.12500000e-01 1.56014083e+00
      vertex -2.51147367e-01 -3.37500000e-01 1.26000000e+00
      vertex -1.45000000e-01 -1.94855716e-01 1.56014083e+00
    endloop
  endfacet
  facet normal -1.79298279e-01 -8.62460370e-01 4.73301423e-01
    outer loop
      vertex -1.45000000e-01 -1.94855716e-01 1.56014083e+00
      vertex -2.51147367e-01 -3.37500000e-01 1.26000000e+00
      vertex -9.22700458e-17 -3.89711432e-01 1.26000000e+00
    endloop
  endfacet
  facet normal -1.79298279e-01 -8.62460370e-01 4.73301423e-01
    outer loop
      vertex -1.45000000e-01 -1.94855716e-01 1.56014083e+00
      vertex -9.22700458e-17 -3.89711432e-01 1.26000000e+00
      vertex -5.32721358e-17 -2.25000000e-01 1.56014083e+00
    endloop
  endfacet
  facet normal 1.79298279e-01 -8.62460370e-01 4.73301423e-01
    outer loop
      vertex -5.32721358e-17 -2.25000000e-01 1.56014083e+00
      vertex -9.22700458e-17 -3.89711432e-01 1.26000000e+00
      vertex 2.51147367e-01 -3.37500000e-01 1.26000000e+00
    endloop
  endfacet
  facet normal 1.79298279e-01 -8.62460370e-01 4.73301423e-01
    outer loop
      vertex -5.32721358e-17 -2.25000000e-01 1.56014083e+00
      vertex 2.51147367e-01 -3.37500000e-01 1.26000000e+00
      vertex 1.45000000e-01 -1.94855716e-01 1.56014083e+00
    endloop
  endfacet
  facet normal 5.27427165e-01 -6.79795013e-01 5.09607031e-01
    outer loop
      vertex 1.45000000e-01 -1.94855716e-01 1.56014083e+00
      vertex 2.51147367e-01 -3.37500000e-01 1.26000000e+00
      vertex 4.35000000e-01 -1.94855716e-01 1.26000000e+00
    endloop
  endfacet
  facet normal 5.27427165e-01 -6.79795013e-01 5.09607031e-01
    outer loop
      vertex 1.45000000e-01 -1.94855716e-01 1.56014083e+00
      vertex 4.35000000e-01 -1.94855716e-01 1.26000000e+00
      vertex 2.51147367e-01 -1.12500000e-01 1.56014083e+00
    endloop
  endfacet
  facet normal 7.85778805e-01 -2.71374004e-01 5.55794764e-01
    outer loop
      vertex 2.51147367e-01 -1.12500000e-01 1.56014083e+00
      vertex 4.35000000e-01 -1.94855716e-01 1.26000000e+00
      vertex 5.02294734e-01 0.00000000e+00 1.26000000e+00
    endloop
  endfacet
  facet normal 7.85778805e-01 -2.71374004e-01 5.55794764e-01
    outer loop
      vertex 2.51147367e-01 -1.12500000e-01 1.56014083e+00
      vertex 5.02294734e-01 0.00000000e+00 1.26000000e+00
      vertex 2.90000000e-01 0.00000000e+00 1.56014083e+00
    endloop
  endfacet
  facet normal 9.30407277e-01 3.21322421e-01 1.76335475e-01
    outer loop
      vertex 5.02294734e-01 0.00000000e+00 1.26000000e+00
      vertex 5.80000000e-01 0.00000000e+00 8.50000000e-01
      vertex 5.02294734e-01 2.25000000e-01 8.50000000e-01
    endloop
  endfacet
  facet normal 9.30407277e-01 3.21322421e-01 1.76335475e-01
    outer loop
      vertex 5.02294734e-01 0.00000000e+00 1.26000000e+00
      vertex 5.02294734e-01 2.25000000e-01 8.50000000e-01
      vertex 4.35000000e-01 1.94855716e-01 1.26000000e+00
    endloop
  endfacet
  facet normal 6.05420309e-01 7.80319510e-01 1.56740907e-01
    outer loop
      vertex 4.35000000e-01 1.94855716e-01 1.26000000e+00
      vertex 5.02294734e-01 2.25000000e-01 8.50000000e-01
      vertex 2.90000000e-01 3.89711432e-01 8.50000000e-01
    endloop
  endfacet
  facet normal 6.05420309e-01 7.80319510e-01 1.56740907e-01
    outer loop
      vertex 4.35000000e-01 1.94855716e-01 1.26000000e+00
      vertex 2.90000000e-01 3.89711432e-01 8.50000000e-01
      vertex 2.51147367e-01 3.37500000e-01 1.26000000e+00
    endloop
  endfacet
  facet normal 2.01462650e-01 9.69075399e-01 1.42497972e-01
    outer loop
      vertex 2.51147367e-01 3.37500000e-01 1.26000000e+00
      vertex 2.90000000e-01 3.89711432e-01 8.50000000e-01
      vertex 3.55147572e-17 4.50000000e-01 8.50000000e-01
    endloop
  endfacet
  facet normal 2.01462650e-01 9.69075399e-01 1.42497972e-01
    outer loop
      vertex 2.51147367e-01 3.37500000e-01 1.26000000e+00
      vertex 3.55147572e-17 4.50000000e-01 8.50000000e-01
      vertex 3.07566819e-17 3.89711432e-01 1.26000000e+00
    endloop
  endfacet
  facet normal -2.01462650e-01 9.69075399e-01 1.42497972e-01
    outer loop
      vertex 3.07566819e-17 3.89711432e-01 1.26000000e+00
      vertex 3.55147572e-17 4.50000000e-01 8.50000000e-01
      vertex -2.90000000e-01 3.89711432e-01 8.50000000e-01
    endloop
  endfacet
  facet normal -2.01462650e-01 9.69075399e-01 1.42497972e-01
    outer loop
      vertex 3.07566819e-17 3.89711432e-01 1.26000000e+00
      vertex -2.90000000e-01 3.89711432e-01 8.50000000e-01
      vertex -2.51147367e-01 3.37500000e-01 1.26000000e+00
    endloop
  endfacet
  facet normal -6.05420309e-01 7.80319510e-01 1.56740907e-01
    outer loop
      vertex -2.51147367e-01 3.37500000e-01 1.26000000e+00
      vertex -2.90000000e-01 3.89711432e-01 8.50000000e-01
      vertex -5.02294734e-01 2.25000000e-01 8.50000000e-01
    endloop
  endfacet
  facet normal -6.05420309e-01 7.80319510e-01 1.56740907e-01
    outer loop
      vertex -2.51147367e-01 3.37500000e-01 1.26000000e+00
      vertex -5.02294734e-01 2.25000000e-01 8.50000000e-01
      vertex -4.35000000e-01 1.94855716e-01 1.26000000e+00
    endloop
  endfacet
  facet normal -9.30407277e-01 3.21322421e-01 1.76335475e-01
    outer loop
      vertex -4.35000000e-01 1.94855716e-01 1.26000000e+00
      vertex -5.02294734e-01 2.25000000e-01 8.50000000e-01
      vertex -5.80000000e-01 5.51091060e-17 8.50000000e-01
    endloop
  endfacet
  facet normal -9.30407277e-01 3.21322421e-01 1.76335475e-01
    outer loop
      vertex -4.35000000e-01 1.94855716e-01 1.26000000e+00
      vertex -5.80000000e-01 5.51091060e-17 8.50000000e-01
      vertex -5.02294734e-01 4.77258857e-17 1.26000000e+00
    endloop
  endfacet
  facet normal -9.30407277e-01 -3.21322421e-01 1.76335475e-01
    outer loop
      vertex -5.02294734e-01 4.77258857e-17 1.26000000e+00
      vertex -5.80000000e-01 5.51091060e-17 8.50000000e-01
      vertex -5.02294734e-01 -2.25000000e-01 8.50000000e-01
    endloop
  endfacet
  facet normal -9.30407277e-01 -3.21322421e-01 1.76335475e-01
    outer loop
      vertex -5.02294734e-01 4.77258857e-17 1.26000000e+00
      vertex -5.02294734e-01 -2.25000000e-01 8.50000000e-01
      vertex -4.35000000e-01 -1.94855716e-01 1.26000000e+00
    endloop
  endfacet
  facet normal -6.05420309e-01 -7.80319510e-01 1.56740907e-01
    outer loop
      vertex -4.35000000e-01 -1.94855716e-01 1.26000000e+00
      vertex -5.02294734e-01 -2.25000000e-01 8.50000000e-01
      vertex -2.90000000e-01 -3.89711432e-01 8.50000000e-01
    endloop
  endfacet
  facet normal -6.05420309e-01 -7.80319510e-01 1.56740907e-01
    outer loop
      vertex -4.35000000e-01 -1.94855716e-01 1.26000000e+00
      vertex -2.90000000e-01 -3.89711432e-01 8.50000000e-01
      vertex -2.51147367e-01 -3.37500000e-01 1.26000000e+00
    endloop
  endfacet
  facet normal -2.01462650e-01 -9.69075399e-01 1.42497972e-01
    outer loop
      vertex -2.51147367e-01 -3.37500000e-01 1.26000000e+00
      vertex -2.90000000e-01 -3.89711432e-01 8.50000000e-01
      vertex -1.06544272e-16 -4.50000000e-01 8.50000000e-01
    endloop
  endfacet
  facet normal -2.01462650e-01 -9.69075399e-01 1.42497972e-01
    outer loop
      vertex -2.51147367e-01 -3.37500000e-01 1.26000000e+00
      vertex -1.06544272e-16 -4.50000000e-01 8.50000000e-01
      vertex -9.22700458e-17 -3.89711432e-01 1.26000000e+00
    endloop
  endfacet
  facet normal 2.01462650e-01 -9.69075399e-01 1.42497972e-01
    outer loop
      vertex -9.22700458e-17 -3.89711432e-01 1.26000000e+00
      vertex -1.06544272e-16 -4.50000000e-01 8.50000000e-01
      vertex 2.90000000e-01 -3.89711432e-01 8.50000000e-01
    endloop
  endfacet
  facet normal 2.01462650e-01 -9.69075399e-01 1.42497972e-01
    outer loop
      vertex -9.22700458e-17 -3.89711432e-01 1.26000000e+00
      vertex 2.90000000e-01 -3.89711432e-01 8.50000000e-01
      vertex 2.51147367e-01 -3.37500000e-01 1.26000000e+00
    endloop
  endfacet
  facet normal 6.05420309e-01 -7.80319510e-01 1.56740907e-01
    outer loop
      vertex 2.51147367e-01 -3.37500000e-01 1.26000000e+00
      vertex 2.90000000e-01 -3.89711432e-01 8.50000000e-01
      vertex 5.02294734e-01 -2.25000000e-01 8.50000000e-01
    endloop
  endfacet
  facet normal 6.05420309e-01 -7.80319510e-01 1.56740907e-01
    outer loop
      vertex 2.51147367e-01 -3.37500000e-01 1.26000000e+00
      vertex 5.02294734e-01 -2.25000000e-01 8.50000000e-01
      vertex 4.35000000e-01 -1.94855716e-01 1.26000000e+00
    endloop
  endfacet
  facet normal 9.30407277e-01 -3.21322421e-01 1.76335475e-01
    outer loop
      vertex 4.35000000e-01 -1.94855716e-01 1.26000000e+00
      vertex 5.02294734e-01 -2.25000000e-01 8.50000000e-01
      vertex 5.80000000e-01 0.00000000e+00 8.50000000e-01
    endloop
  endfacet
  facet normal 9.30407277e-01 -3.21322421e-01 1.76335475e-01
    outer loop
      vertex 4.35000000e-01 -1.94855716e-01 1.26000000e+00
      vertex 5.80000000e-01 0.00000000e+00 8.50000000e-01
      vertex 5.02294734e-01 0.00000000e+00 1.26000000e+00
    endloop
  endfacet
  facet normal 9.30407277e-01 3.21322421e-01 -1.76335475e-01
    outer loop
      vertex 5.80000000e-01 0.00000000e+00 8.50000000e-01
      vertex 5.02294734e-01 0.00000000e+00 4.40000000e-01
      vertex 4.35000000e-01 1.94855716e-01 4.40000000e-01
    endloop
  endfacet
  facet normal 9.30407277e-01 3.21322421e-01 -1.76335475e-01
    outer loop
      vertex 5.80000000e-01 0.00000000e+00 8.50000000e-01
      vertex 4.35000000e-01 1.94855716e-01 4.40000000e-01
      vertex 5.02294734e-01 2.25000000e-01 8.50000000e-01
    endloop
  endfacet
  facet normal 6.05420309e-01 7.80319510e-01 -1.56740907e-01
    outer loop
      vertex 5.02294734e-01 2.25000000e-01 8.50000000e-01
      vertex 4.35000000e-01 1.94855716e-01 4.40000000e-01
      vertex 2.51147367e-01 3.37500000e-01 4.40000000e-01
    endloop
  endfacet
  facet normal 6.05420309e-01 7.80319510e-01 -1.56740907e-01
    outer loop
      vertex 5.02294734e-01 2.25000000e-01 8.50000000e-01
      vertex 2.51147367e-01 3.37500000e-01 4.40000000e-01
      vertex 2.90000000e-01 3.89711432e-01 8.50000000e-01
    endloop
  endfacet
  facet normal 2.01462650e-01 9.69075399e-01 -1.42497972e-01
    outer loop
      vertex 2.90000000e-01 3.89711432e-01 8.50000000e-01
      vertex 2.51147367e-01 3.37500000e-01 4.40000000e-01
      vertex 3.07566819e-17 3.89711432e-01 4.40000000e-01
    endloop
  endfacet
  facet normal 2.01462650e-01 9.69075399e-01 -1.42497972e-01
    outer loop
      vertex 2.90000000e-01 3.89711432e-01 8.50000000e-01
      vertex 3.07566819e-17 3.89711432e-01 4.40000000e-01
      vertex 3.55147572e-17 4.50000000e-01 8.50000000e-01
    endloop
  endfacet
  facet normal -2.01462650e-01 9.69075399e-01 -1.42497972e-01
    outer loop
      vertex 3.55147572e-17 4.50000000e-01 8.50000000e-01
      vertex 3.07566819e-17 3.89711432e-01 4.40000000e-01
      vertex -2.51147367e-01 3.37500000e-01 4.40000000e-01
    endloop
  endfacet
  facet normal -2.01462650e-01 9.69075399e-01 -1.42497972e-01
    outer loop
      vertex 3.55147572e-17 4.50000000e-01 8.50000000e-01
      vertex -2.51147367e-01 3.37500000e-01 4.40000000e-01
      vertex -2.90000000e-01 3.89711432e-01 8.50000000e-01
    endloop
  endfacet
  facet normal -6.05420309e-01 7.80319510e-01 -1.56740907e-01
    outer loop
      vertex -2.90000000e-01 3.89711432e-01 8.50000000e-01
      vertex -2.51147367e-01 3.37500000e-01 4.40000000e-01
      vertex -4.35000000e-01 1.94855716e-01 4.40000000e-01
    endloop
  endfacet
  facet normal -6.05420309e-01 7.80319510e-01 -1.56740907e-01
    outer loop
      vertex -2.90000000e-01 3.89711432e-01 8.50000000e-01
      vertex -4.35000000e-01 1.94855716e-01 4.40000000e-01
      vertex -5.02294734e-01 2.25000000e-01 8.50000000e-01
    endloop
  endfacet
  facet normal -9.30407277e-01 3.21322421e-01 -1.76335475e-01
    outer loop
      vertex -5.02294734e-01 2.25000000e-01 8.50000000e-01
      vertex -4.35000000e-01 1.94855716e-01 4.40000000e-01
      vertex -5.02294734e-01 4.77258857e-17 4.40000000e-01
    endloop
  endfacet
  facet normal -9.30407277e-01 3.21322421e-01 -1.76335475e-01
    outer loop
      vertex -5.02294734e-01 2.25000000e-01 8.50000000e-01
      vertex -5.02294734e-01 4.77258857e-17 4.40000000e-01
      vertex -5.80000000e-01 5.51091060e-17 8.50000000e-01
    endloop
  endfacet
  facet normal -9.30407277e-01 -3.21322421e-01 -1.76335475e-01
    outer loop
      vertex -5.80000000e-01 5.51091060e-17 8.50000000e-01
      vertex -5.02294734e-01 4.77258857e-17 4.40000000e-01
      vertex -4.35000000e-01 -1.94855716e-01 4.40000000e-01
    endloop
  endfacet
  facet normal -9.30407277e-01 -3.21322421e-01 -1.76335475e-01
    outer loop
      vertex -5.80000000e-01 5.51091060e-17 8.50000000e-01
      vertex -4.35000000e-01 -1.94855716e-01 4.40000000e-01
      vertex -5.02294734e-01 -2.25000000e-01 8.50000000e-01
    endloop
  endfacet
  facet normal -6.05420309e-01 -7.80319510e-01 -1.56740907e-01
    outer loop
      vertex -5.02294734e-01 -2.25000000e-01 8.50000000e-01
      vertex -4.35000000e-01 -1.94855716e-01 4.40000000e-01
      vertex -2.51147367e-01 -3.37500000e-01 4.40000000e-01
    endloop
  endfacet
  facet normal -6.05420309e-01 -7.80319510e-01 -1.56740907e-01
    outer loop
      vertex -5.02294734e-01 -2.25000000e-01 8.50000000e-01
      vertex -2.51147367e-01 -3.37500000e-01 4.40000000e-01
      vertex -2.90000000e-01 -3.89711432e-01 8.50000000e-01
    endloop
  endfacet
  facet normal -2.01462650e-01 -9.69075399e-01 -1.42497972e-01
    outer loop
      vertex -2.90000000e-01 -3.89711432e-01 8.50000000e-01
      vertex -2.51147367e-01 -3.37500000e-01 4.40000000e-01
      vertex -9.22700458e-17 -3.89711432e-01 4.40000000e-01
    endloop
  endfacet
  facet normal -2.01462650e-01 -9.69075399e-01 -1.42497972e-01
    outer loop
      vertex -2.90000000e-01 -3.89711432e-01 8.50000000e-01
      vertex -9.22700458e-17 -3.89711432e-01 4.40000000e-01
      vertex -1.06544272e-16 -4.50000000e-01 8.50000000e-01
    endloop
  endfacet
  facet normal 2.01462650e-01 -9.69075399e-01 -1.42497972e-01
    outer loop
      vertex -1.06544272e-16 -4.50000000e-01 8.50000000e-01
      vertex -9.22700458e-17 -3.89711432e-01 4.40000000e-01
      vertex 2.51147367e-01 -3.37500000e-01 4.40000000e-01
    endloop
  endfacet
  facet normal 2.01462650e-01 -9.69075399e-01 -1.42497972e-01
    outer loop
      vertex -1.06544272e-16 -4.50000000e-01 8.50000000e-01
      vertex 2.51147367e-01 -3.37500000e-01 4.40000000e-01
      vertex 2.90000000e-01 -3.89711432e-01 8.50000000e-01
    endloop
  endfacet
  facet normal 6.05420309e-01 -7.80319510e-01 -1.56740907e-01
    outer loop
      vertex 2.90000000e-01 -3.89711432e-01 8.50000000e-01
      vertex 2.51147367e-01 -3.37500000e-01 4.40000000e-01
      vertex 4.35000000e-01 -1.94855716e-01 4.40000000e-01
    endloop
  endfacet
  facet normal 6.05420309e-01 -7.80319510e-01 -1.56740907e-01
    outer loop
      vertex 2.90000000e-01 -3.89711432e-01 8.50000000e-01
      vertex 4.35000000e-01 -1.94855716e-01 4.40000000e-01
      vertex 5.02294734e-01 -2.25000000e-01 8.50000000e-01
    endloop
  endfacet
  facet normal 9.30407277e-01 -3.21322421e-01 -1.76335475e-01
    outer loop
      vertex 5.02294734e-01 -2.25000000e-01 8.50000000e-01
      vertex 4.35000000e-01 -1.94855716e-01 4.40000000e-01
      vertex 5.02294734e-01 0.00000000e+00 4.40000000e-01
    endloop
  endfacet
  facet normal 9.30407277e-01 -3.21322421e-01 -1.76335475e-01
    outer loop
      vertex 5.02294734e-01 -2.25000000e-01 8.50000000e-01
      vertex 5.02294734e-01 0.00000000e+00 4.40000000e-01
      vertex 5.80000000e-01 0.00000000e+00 8.50000000e-01
    endloop
  endfacet
  facet normal 7.85778805e-01 2.71374004e-01 -5.55794764e-01
    outer loop
      vertex 5.02294734e-01 0.00000000e+00 4.40000000e-01
      vertex 2.90000000e-01 0.00000000e+00 1.39859169e-01
      vertex 2.51147367e-01 1.12500000e-01 1.39859169e-01
    endloop
  endfacet
  facet normal 7.85778805e-01 2.71374004e-01 -5.55794764e-01
    outer loop
      vertex 5.02294734e-01 0.00000000e+00 4.40000000e-01
      vertex 2.51147367e-01 1.12500000e-01 1.39859169e-01
      vertex 4.35000000e-01 1.94855716e-01 4.40000000e-01
    endloop
  endfacet
  facet normal 5.27427165e-01 6.79795013e-01 -5.09607031e-01
    outer loop
      vertex 4.35000000e-01 1.94855716e-01 4.40000000e-01
      vertex 2.51147367e-01 1.12500000e-01 1.39859169e-01
      vertex 1.45000000e-01 1.94855716e-01 1.39859169e-01
    endloop
  endfacet
  facet normal 5.27427165e-01 6.79795013e-01 -5.09607031e-01
    outer loop
      vertex 4.35000000e-01 1.94855716e-01 4.40000000e-01
      vertex 1.45000000e-01 1.94855716e-01 1.39859169e-01
      vertex 2.51147367e-01 3.37500000e-01 4.40000000e-01
    endloop
  endfacet
  facet normal 1.79298279e-01 8.62460370e-01 -4.73301423e-01
    outer loop
      vertex 2.51147367e-01 3.37500000e-01 4.40000000e-01
      vertex 1.45000000e-01 1.94855716e-01 1.39859169e-01
      vertex 1.77573786e-17 2.25000000e-01 1.39859169e-01
    endloop
  endfacet
  facet normal 1.79298279e-01 8.62460370e-01 -4.73301423e-01
    outer loop
      vertex 2.51147367e-01 3.37500000e-01 4.40000000e-01
      vertex 1.77573786e-17 2.25000000e-01 1.39859169e-01
      vertex 3.07566819e-17 3.89711432e-01 4.40000000e-01
    endloop
  endfacet
  facet normal -1.79298279e-01 8.62460370e-01 -4.73301423e-01
    outer loop
      vertex 3.07566819e-17 3.89711432e-01 4.40000000e-01
      vertex 1.77573786e-17 2.25000000e-01 1.39859169e-01
      vertex -1.45000000e-01 1.94855716e-01 1.39859169e-01
    endloop
  endfacet
  facet normal -1.79298279e-01 8.62460370e-01 -4.73301423e-01
    outer loop
      vertex 3.07566819e-17 3.89711432e-01 4.40000000e-01
      vertex -1.45000000e-01 1.94855716e-01 1.39859169e-01
      vertex -2.51147367e-01 3.37500000e-01 4.40000000e-01
    endloop
  endfacet
  facet normal -5.27427165e-01 6.79795013e-01 -5.09607031e-01
    outer loop
      vertex -2.51147367e-01 3.37500000e-01 4.40000000e-01
      vertex -1.45000000e-01 1.94855716e-01 1.39859169e-01
      vertex -2.51147367e-01 1.12500000e-01 1.39859169e-01
    endloop
  endfacet
  facet normal -5.27427165e-01 6.79795013e-01 -5.09607031e-01
    outer loop
      vertex -2.51147367e-01 3.37500000e-01 4.40000000e-01
      vertex -2.51147367e-01 1.12500000e-01 1.39859169e-01
      vertex -4.35000000e-01 1.94855716e-01 4.40000000e-01
    endloop
  endfacet
  facet normal -7.85778805e-01 2.71374004e-01 -5.55794764e-01
    outer loop
      vertex -4.35000000e-01 1.94855716e-01 4.40000000e-01
      vertex -2.51147367e-01 1.12500000e-01 1.39859169e-01
      vertex -2.90000000e-01 2.75545530e-17 1.39859169e-01
    endloop
  endfacet
  facet normal -7.85778805e-01 2.71374004e-01 -5.55794764e-01
    outer loop
      vertex -4.35000000e-01 1.94855716e-01 4.40000000e-01
      vertex -2.90000000e-01 2.75545530e-17 1.39859169e-01
      vertex -5.02294734e-01 4.77258857e-17 4.40000000e-01
    endloop
  endfacet
  facet normal -7.85778805e-01 -2.71374004e-01 -5.55794764e-01
    outer loop
      vertex -5.02294734e-01 4.77258857e-17 4.40000000e-01
      vertex -2.90000000e-01 2.75545530e-17 1.39859169e-01
      vertex -2.51147367e-01 -1.12500000e-01 1.39859169e-01
    endloop
  endfacet
  facet normal -7.85778805e-01 -2.71374004e-01 -5.55794764e-01
    outer loop
      vertex -5.02294734e-01 4.77258857e-17 4.40000000e-01
      vertex -2.51147367e-01 -1.12500000e-01 1.39859169e-01
      vertex -4.35000000e-01 -1.94855716e-01 4.40000000e-01
    endloop
  endfacet
  facet normal -5.27427165e-01 -6.79795013e-01 -5.09607031e-01
    outer loop
      vertex -4.35000000e-01 -1.94855716e-01 4.40000000e-01
      vertex -2.51147367e-01 -1.12500000e-01 1.39859169e-01
      vertex -1.45000000e-01 -1.94855716e-01 1.39859169e-01
    endloop
  endfacet
  facet normal -5.27427165e-01 -6.79795013e-01 -5.09607031e-01
    outer loop
      vertex -4.35000000e-01 -1.94855716e-01 4.40000000e-01
      vertex -1.45000000e-01 -1.94855716e-01 1.39859169e-01
      vertex -2.51147367e-01 -3.37500000e-01 4.40000000e-01
    endloop
  endfacet
  facet normal -1.79298279e-01 -8.62460370e-01 -4.73301423e-01
    outer loop
      vertex -2.51147367e-01 -3.37500000e-01 4.40000000e-01
      vertex -1.45000000e-01 -1.94855716e-01 1.39859169e-01
      vertex -5.32721358e-17 -2.25000000e-01 1.39859169e-01
    endloop
  endfacet
  facet normal -1.79298279e-01 -8.62460370e-01 -4.73301423e-01
    outer loop
      vertex -2.51147367e-01 -3.37500000e-01 4.40000000e-01
      vertex -5.32721358e-17 -2.25000000e-01 1.39859169e-01
      vertex -9.22700458e-17 -3.89711432e-01 4.40000000e-01
    endloop
  endfacet
  facet normal 1.79298279e-01 -8.62460370e-01 -4.73301423e-01
    outer loop
      vertex -9.22700458e-17 -3.89711432e-01 4.40000000e-01
      vertex -5.32721358e-17 -2.25000000e-01 1.39859169e-01
      vertex 1.45000000e-01 -1.94855716e-01 1.39859169e-01
    endloop
  endfacet
  facet normal 1.79298279e-01 -8.62460370e-01 -4.73301423e-01
    outer loop
      vertex -9.22700458e-17 -3.89711432e-01 4.40000000e-01
      vertex 1.45000000e-01 -1.94855716e-01 1.39859169e-01
      vertex 2.51147367e-01 -3.37500000e-01 4.40000000e-01
    endloop
  endfacet
  facet normal 5.27427165e-01 -6.79795013e-01 -5.09607031e-01
    outer loop
      vertex 2.51147367e-01 -3.37500000e-01 4.40000000e-01
      vertex 1.45000000e-01 -1.94855716e-01 1.39859169e-01
      vertex 2.51147367e-01 -1.12500000e-01 1.39859169e-01
    endloop
  endfacet
  facet normal 5.27427165e-01 -6.79795013e-01 -5.09607031e-01
    outer loop
      vertex 2.51147367e-01 -3.37500000e-01 4.40000000e-01
      vertex 2.51147367e-01 -1.12500000e-01 1.39859169e-01
      vertex 4.35000000e-01 -1.94855716e-01 4.40000000e-01
    endloop
  endfacet
  facet normal 7.85778805e-01 -2.71374004e-01 -5.55794764e-01
    outer loop
      vertex 4.35000000e-01 -1.94855716e-01 4.40000000e-01
      vertex 2.51147367e-01 -1.12500000e-01 1.39859169e-01
      vertex 2.90000000e-01 0.00000000e+00 1.39859169e-01
    endloop
  endfacet
  facet normal 7.85778805e-01 -2.71374004e-01 -5.55794764e-01
    outer loop
      vertex 4.35000000e-01 -1.94855716e-01 4.40000000e-01
      vertex 2.90000000e-01 0.00000000e+00 1.39859169e-01
      vertex 5.02294734e-01 0.00000000e+00 4.40000000e-01
    endloop
  endfacet
  facet normal 3.51635271e-01 1.21439610e-01 -9.28226835e-01
    outer loop
      vertex 7.10295144e-17 0.00000000e+00 3.00000000e-02
      vertex 2.51147367e-01 1.12500000e-01 1.39859169e-01
      vertex 2.90000000e-01 0.00000000e+00 1.39859169e-01
    endloop
  endfacet
  facet normal 2.52665825e-01 3.25658174e-01 -9.11101934e-01
    outer loop
      vertex 6.15133638e-17 2.75545530e-17 3.00000000e-02
      vertex 1.45000000e-01 1.94855716e-01 1.39859169e-01
      vertex 2.51147367e-01 1.12500000e-01 1.39859169e-01
    endloop
  endfacet
  facet normal 9.08366241e-02 4.36942222e-01 -8.94891168e-01
    outer loop
      vertex 3.55147572e-17 4.77258857e-17 3.00000000e-02
      vertex 1.77573786e-17 2.25000000e-01 1.39859169e-01
      vertex 1.45000000e-01 1.94855716e-01 1.39859169e-01
    endloop
  endfacet
  facet normal -9.08366241e-02 4.36942222e-01 -8.94891168e-01
    outer loop
      vertex 4.34930337e-33 5.51091060e-17 3.00000000e-02
      vertex -1.45000000e-01 1.94855716e-01 1.39859169e-01
      vertex 1.77573786e-17 2.25000000e-01 1.39859169e-01
    endloop
  endfacet
  facet normal -2.52665825e-01 3.25658174e-01 -9.11101934e-01
    outer loop
      vertex -3.55147572e-17 4.77258857e-17 3.00000000e-02
      vertex -2.51147367e-01 1.12500000e-01 1.39859169e-01
      vertex -1.45000000e-01 1.94855716e-01 1.39859169e-01
    endloop
  endfacet
  facet normal -3.51635271e-01 1.21439610e-01 -9.28226835e-01
    outer loop
      vertex -6.15133638e-17 2.75545530e-17 3.00000000e-02
      vertex -2.90000000e-01 2.75545530e-17 1.39859169e-01
      vertex -2.51147367e-01 1.12500000e-01 1.39859169e-01
    endloop
  endfacet
  facet normal -3.51635271e-01 -1.21439610e-01 -9.28226835e-01
    outer loop
      vertex -7.10295144e-17 6.74891902e-33 3.00000000e-02
      vertex -2.51147367e-01 -1.12500000e-01 1.39859169e-01
      vertex -2.90000000e-01 2.75545530e-17 1.39859169e-01
    endloop
  endfacet
  facet normal -2.52665825e-01 -3.25658174e-01 -9.11101934e-01
    outer loop
      vertex -6.15133638e-17 -2.75545530e-17 3.00000000e-02
      vertex -1.45000000e-01 -1.94855716e-01 1.39859169e-01
      vertex -2.51147367e-01 -1.12500000e-01 1.39859169e-01
    endloop
  endfacet
  facet normal -9.08366241e-02 -4.36942222e-01 -8.94891168e-01
    outer loop
      vertex -3.55147572e-17 -4.77258857e-17 3.00000000e-02
      vertex -5.32721358e-17 -2.25000000e-01 1.39859169e-01
      vertex -1.45000000e-01 -1.94855716e-01 1.39859169e-01
    endloop
  endfacet
  facet normal 9.08366241e-02 -4.36942222e-01 -8.94891168e-01
    outer loop
      vertex -1.30479101e-32 -5.51091060e-17 3.00000000e-02
      vertex 1.45000000e-01 -1.94855716e-01 1.39859169e-01
      vertex -5.32721358e-17 -2.25000000e-01 1.39859169e-01
    endloop
  endfacet
  facet normal 2.52665825e-01 -3.25658174e-01 -9.11101934e-01
    outer loop
      vertex 3.55147572e-17 -4.77258857e-17 3.00000000e-02
      vertex 2.51147367e-01 -1.12500000e-01 1.39859169e-01
      vertex 1.45000000e-01 -1.94855716e-01 1.39859169e-01
    endloop
  endfacet
  facet normal 3.51635271e-01 -1.21439610e-01 -9.28226835e-01
    outer loop
      vertex 6.15133638e-17 -2.75545530e-17 3.00000000e-02
      vertex 2.90000000e-01 0.00000000e+00 1.39859169e-01
      vertex 2.51147367e-01 -1.12500000e-01 1.39859169e-01
    endloop
  endfacet
  facet normal 2.94583513e-01 1.05287584e-01 9.49807917e-01
    outer loop
      vertex 0.00000000e+00 0.00000000e+00 2.12000000e+00
      vertex 2.58625511e-01 0.00000000e+00 2.03978714e+00
      vertex 2.09232434e-01 1.38196601e-01 2.03978714e+00
    endloop
  endfacet
  facet normal 1.81045931e-01 2.74107181e-01 9.44503904e-01
    outer loop
      vertex 0.00000000e+00 0.00000000e+00 2.12000000e+00
      vertex 2.09232434e-01 1.38196601e-01 2.03978714e+00
      vertex 7.99196781e-02 2.23606798e-01 2.03978714e+00
    endloop
  endfacet
  facet normal 9.13704399e-17 3.37655011e-01 9.41269936e-01
    outer loop
      vertex 0.00000000e+00 0.00000000e+00 2.12000000e+00
      vertex 7.99196781e-02 2.23606798e-01 2.03978714e+00
      vertex -7.99196781e-02 2.23606798e-01 2.03978714e+00
    endloop
  endfacet
  facet normal -1.81045931e-01 2.74107181e-01 9.44503904e-01
    outer loop
      vertex 0.00000000e+00 0.00000000e+00 2.12000000e+00
      vertex -7.99196781e-02 2.23606798e-01 2.03978714e+00
      vertex -2.09232434e-01 1.38196601e-01 2.03978714e+00
    endloop
  endfacet
  facet normal -2.94583513e-01 1.05287584e-01 9.49807917e-01
    outer loop
      vertex 0.00000000e+00 0.00000000e+00 2.12000000e+00
      vertex -2.09232434e-01 1.38196601e-01 2.03978714e+00
      vertex -2.58625511e-01 2.87931731e-17 2.03978714e+00
    endloop
  endfacet
  facet normal -2.94583513e-01 -1.05287584e-01 9.49807917e-01
    outer loop
      vertex 0.00000000e+00 0.00000000e+00 2.12000000e+00
      vertex -2.58625511e-01 2.87931731e-17 2.03978714e+00
      vertex -2.09232434e-01 -1.38196601e-01 2.03978714e+00
    endloop
  endfacet
  facet normal -1.81045931e-01 -2.74107181e-01 9.44503904e-01
    outer loop
      vertex 0.00000000e+00 0.00000000e+00 2.12000000e+00
      vertex -2.09232434e-01 -1.38196601e-01 2.03978714e+00
      vertex -7.99196781e-02 -2.23606798e-01 2.03978714e+00
    endloop
  endfacet
  facet normal -9.13704399e-17 -3.37655011e-01 9.41269936e-01
    outer loop
      vertex 0.00000000e+00 0.00000000e+00 2.12000000e+00
      vertex -7.99196781e-02 -2.23606798e-01 2.03978714e+00
      vertex 7.99196781e-02 -2.23606798e-01 2.03978714e+00
    endloop
  endfacet
  facet normal 1.81045931e-01 -2.74107181e-01 9.44503904e-01
    outer loop
      vertex 0.00000000e+00 0.00000000e+00 2.12000000e+00
      vertex 7.99196781e-02 -2.23606798e-01 2.03978714e+00
      vertex 2.09232434e-01 -1.38196601e-01 2.03978714e+00
    endloop
  endfacet
  facet normal 2.94583513e-01 -1.05287584e-01 9.49807917e-01
    outer loop
      vertex 0.00000000e+00 0.00000000e+00 2.12000000e+00
      vertex 2.09232434e-01 -1.38196601e-01 2.03978714e+00
      vertex 2.58625511e-01 0.00000000e+00 2.03978714e+00
    endloop
  endfacet
  facet normal 7.65373568e-01 2.73553442e-01 5.82556277e-01
    outer loop
      vertex 2.58625511e-01 0.00000000e+00 2.03978714e+00
      vertex 4.18464867e-01 0.00000000e+00 1.82978714e+00
      vertex 3.38545189e-01 2.23606798e-01 1.82978714e+00
    endloop
  endfacet
  facet normal 7.65373568e-01 2.73553442e-01 5.82556277e-01
    outer loop
      vertex 2.58625511e-01 0.00000000e+00 2.03978714e+00
      vertex 3.38545189e-01 2.23606798e-01 1.82978714e+00
      vertex 2.09232434e-01 1.38196601e-01 2.03978714e+00
    endloop
  endfacet
  facet normal 4.56009464e-01 6.90407500e-01 5.61598480e-01
    outer loop
      vertex 2.09232434e-01 1.38196601e-01 2.03978714e+00
      vertex 3.38545189e-01 2.23606798e-01 1.82978714e+00
      vertex 1.29312756e-01 3.61803399e-01 1.82978714e+00
    endloop
  endfacet
  facet normal 4.56009464e-01 6.90407500e-01 5.61598480e-01
    outer loop
      vertex 2.09232434e-01 1.38196601e-01 2.03978714e+00
      vertex 1.29312756e-01 3.61803399e-01 1.82978714e+00
      vertex 7.99196781e-02 2.23606798e-01 2.03978714e+00
    endloop
  endfacet
  facet normal 1.60087508e-16 8.35346380e-01 5.49723954e-01
    outer loop
      vertex 7.99196781e-02 2.23606798e-01 2.03978714e+00
      vertex 1.29312756e-01 3.61803399e-01 1.82978714e+00
      vertex -1.29312756e-01 3.61803399e-01 1.82978714e+00
    endloop
  endfacet
  facet normal 1.45055136e-16 8.35346380e-01 5.49723954e-01
    outer loop
      vertex 7.99196781e-02 2.23606798e-01 2.03978714e+00
      vertex -1.29312756e-01 3.61803399e-01 1.82978714e+00
      vertex -7.99196781e-02 2.23606798e-01 2.03978714e+00
    endloop
  endfacet
  facet normal -4.56009464e-01 6.90407500e-01 5.61598480e-01
    outer loop
      vertex -7.99196781e-02 2.23606798e-01 2.03978714e+00
      vertex -1.29312756e-01 3.61803399e-01 1.82978714e+00
      vertex -3.38545189e-01 2.23606798e-01 1.82978714e+00
    endloop
  endfacet
  facet normal -4.56009464e-01 6.90407500e-01 5.61598480e-01
    outer loop
      vertex -7.99196781e-02 2.23606798e-01 2.03978714e+00
      vertex -3.38545189e-01 2.23606798e-01 1.82978714e+00
      vertex -2.09232434e-01 1.38196601e-01 2.03978714e+00
    endloop
  endfacet
  facet normal -7.65373568e-01 2.73553442e-01 5.82556277e-01
    outer loop
      vertex -2.09232434e-01 1.38196601e-01 2.03978714e+00
      vertex -3.38545189e-01 2.23606798e-01 1.82978714e+00
      vertex -4.18464867e-01 4.65883327e-17 1.82978714e+00
    endloop
  endfacet
  facet normal -7.65373568e-01 2.73553442e-01 5.82556277e-01
    outer loop
      vertex -2.09232434e-01 1.38196601e-01 2.03978714e+00
      vertex -4.18464867e-01 4.65883327e-17 1.82978714e+00
      vertex -2.58625511e-01 2.87931731e-17 2.03978714e+00
    endloop
  endfacet
  facet normal -7.65373568e-01 -2.73553442e-01 5.82556277e-01
    outer loop
      vertex -2.58625511e-01 2.87931731e-17 2.03978714e+00
      vertex -4.18464867e-01 4.65883327e-17 1.82978714e+00
      vertex -3.38545189e-01 -2.23606798e-01 1.82978714e+00
    endloop
  endfacet
  facet normal -7.65373568e-01 -2.73553442e-01 5.82556277e-01
    outer loop
      vertex -2.58625511e-01 2.87931731e-17 2.03978714e+00
      vertex -3.38545189e-01 -2.23606798e-01 1.82978714e+00
      vertex -2.09232434e-01 -1.38196601e-01 2.03978714e+00
    endloop
  endfacet
  facet normal -4.56009464e-01 -6.90407500e-01 5.61598480e-01
    outer loop
      vertex -2.09232434e-01 -1.38196601e-01 2.03978714e+00
      vertex -3.38545189e-01 -2.23606798e-01 1.82978714e+00
      vertex -1.29312756e-01 -3.61803399e-01 1.82978714e+00
    endloop
  endfacet
  facet normal -4.56009464e-01 -6.90407500e-01 5.61598480e-01
    outer loop
      vertex -2.09232434e-01 -1.38196601e-01 2.03978714e+00
      vertex -1.29312756e-01 -3.61803399e-01 1.82978714e+00
      vertex -7.99196781e-02 -2.23606798e-01 2.03978714e+00
    endloop
  endfacet
  facet normal -1.60087508e-16 -8.35346380e-01 5.49723954e-01
    outer loop
      vertex -7.99196781e-02 -2.23606798e-01 2.03978714e+00
      vertex -1.29312756e-01 -3.61803399e-01 1.82978714e+00
      vertex 1.29312756e-01 -3.61803399e-01 1.82978714e+00
    endloop
  endfacet
  facet normal -1.45055136e-16 -8.35346380e-01 5.49723954e-01
    outer loop
      vertex -7.99196781e-02 -2.23606798e-01 2.03978714e+00
      vertex 1.29312756e-01 -3.61803399e-01 1.82978714e+00
      vertex 7.99196781e-02 -2.23606798e-01 2.03978714e+00
    endloop
  endfacet
  facet normal 4.56009464e-01 -6.90407500e-01 5.61598480e-01
    outer loop
      vertex 7.99196781e-02 -2.23606798e-01 2.03978714e+00
      vertex 1.29312756e-01 -3.61803399e-01 1.82978714e+00
      vertex 3.38545189e-01 -2.23606798e-01 1.82978714e+00
    endloop
  endfacet
  facet normal 4.56009464e-01 -6.90407500e-01 5.61598480e-01
    outer loop
      vertex 7.99196781e-02 -2.23606798e-01 2.03978714e+00
      vertex 3.38545189e-01 -2.23606798e-01 1.82978714e+00
      vertex 2.09232434e-01 -1.38196601e-01 2.03978714e+00
    endloop
  endfacet
  facet normal 7.65373568e-01 -2.73553442e-01 5.82556277e-01
    outer loop
      vertex 2.09232434e-01 -1.38196601e-01 2.03978714e+00
      vertex 3.38545189e-01 -2.23606798e-01 1.82978714e+00
      vertex 4.18464867e-01 0.00000000e+00 1.82978714e+00
    endloop
  endfacet
  facet normal 7.65373568e-01 -2.73553442e-01 5.82556277e-01
    outer loop
      vertex 2.09232434e-01 -1.38196601e-01 2.03978714e+00
      vertex 4.18464867e-01 0.00000000e+00 1.82978714e+00
      vertex 2.58625511e-01 0.00000000e+00 2.03978714e+00
    endloop
  endfacet
  facet normal 9.41661709e-01 3.36560880e-01 0.00000000e+00
    outer loop
      vertex 4.18464867e-01 0.00000000e+00 1.82978714e+00
      vertex 4.18464867e-01 0.00000000e+00 1.57021286e+00
      vertex 3.38545189e-01 2.23606798e-01 1.57021286e+00
    endloop
  endfacet
  facet normal 9.41661709e-01 3.36560880e-01 0.00000000e+00
    outer loop
      vertex 4.18464867e-01 0.00000000e+00 1.82978714e+00
      vertex 3.38545189e-01 2.23606798e-01 1.57021286e+00
      vertex 3.38545189e-01 2.23606798e-01 1.82978714e+00
    endloop
  endfacet
  facet normal 5.51128845e-01 8.34420156e-01 8.92222918e-17
    outer loop
      vertex 3.38545189e-01 2.23606798e-01 1.82978714e+00
      vertex 3.38545189e-01 2.23606798e-01 1.57021286e+00
      vertex 1.29312756e-01 3.61803399e-01 1.57021286e+00
    endloop
  endfacet
  facet normal 5.51128845e-01 8.34420156e-01 1.59910005e-16
    outer loop
      vertex 3.38545189e-01 2.23606798e-01 1.82978714e+00
      vertex 1.29312756e-01 3.61803399e-01 1.57021286e+00
      vertex 1.29312756e-01 3.61803399e-01 1.82978714e+00
    endloop
  endfacet
  facet normal 2.14639117e-16 1.00000000e+00 2.13854594e-16
    outer loop
      vertex 1.29312756e-01 3.61803399e-01 1.82978714e+00
      vertex 1.29312756e-01 3.61803399e-01 1.57021286e+00
      vertex -1.29312756e-01 3.61803399e-01 1.57021286e+00
    endloop
  endfacet
  facet normal 2.14639117e-16 1.00000000e+00 2.13854594e-16
    outer loop
      vertex 1.29312756e-01 3.61803399e-01 1.82978714e+00
      vertex -1.29312756e-01 3.61803399e-01 1.57021286e+00
      vertex -1.29312756e-01 3.61803399e-01 1.82978714e+00
    endloop
  endfacet
  facet normal -5.51128845e-01 8.34420156e-01 1.78444584e-16
    outer loop
      vertex -1.29312756e-01 3.61803399e-01 1.82978714e+00
      vertex -1.29312756e-01 3.61803399e-01 1.57021286e+00
      vertex -3.38545189e-01 2.23606798e-01 1.57021286e+00
    endloop
  endfacet
  facet normal -5.51128845e-01 8.34420156e-01 1.06606670e-16
    outer loop
      vertex -1.29312756e-01 3.61803399e-01 1.82978714e+00
      vertex -3.38545189e-01 2.23606798e-01 1.57021286e+00
      vertex -3.38545189e-01 2.23606798e-01 1.82978714e+00
    endloop
  endfacet
  facet normal -9.41661709e-01 3.36560880e-01 3.59875452e-17
    outer loop
      vertex -3.38545189e-01 2.23606798e-01 1.82978714e+00
      vertex -3.38545189e-01 2.23606798e-01 1.57021286e+00
      vertex -4.18464867e-01 4.65883327e-17 1.57021286e+00
    endloop
  endfacet
  facet normal -9.41661709e-01 3.36560880e-01 0.00000000e+00
    outer loop
      vertex -3.38545189e-01 2.23606798e-01 1.82978714e+00
      vertex -4.18464867e-01 4.65883327e-17 1.57021286e+00
      vertex -4.18464867e-01 4.65883327e-17 1.82978714e+00
    endloop
  endfacet
  facet normal -9.41661709e-01 -3.36560880e-01 -7.99084025e-33
    outer loop
      vertex -4.18464867e-01 4.65883327e-17 1.82978714e+00
      vertex -4.18464867e-01 4.65883327e-17 1.57021286e+00
      vertex -3.38545189e-01 -2.23606798e-01 1.57021286e+00
    endloop
  endfacet
  facet normal -9.41661709e-01 -3.36560880e-01 0.00000000e+00
    outer loop
      vertex -4.18464867e-01 4.65883327e-17 1.82978714e+00
      vertex -3.38545189e-01 -2.23606798e-01 1.57021286e+00
      vertex -3.38545189e-01 -2.23606798e-01 1.82978714e+00
    endloop
  endfacet
  facet normal -5.51128845e-01 -8.34420156e-01 8.92222918e-17
    outer loop
      vertex -3.38545189e-01 -2.23606798e-01 1.82978714e+00
      vertex -3.38545189e-01 -2.23606798e-01 1.57021286e+00
      vertex -1.29312756e-01 -3.61803399e-01 1.57021286e+00
    endloop
  endfacet
  facet normal -5.51128845e-01 -8.34420156e-01 2.13213339e-16
    outer loop
      vertex -3.38545189e-01 -2.23606798e-01 1.82978714e+00
      vertex -1.29312756e-01 -3.61803399e-01 1.57021286e+00
      vertex -1.29312756e-01 -3.61803399e-01 1.82978714e+00
    endloop
  endfacet
  facet normal -2.14639117e-16 -1.00000000e+00 2.13854594e-16
    outer loop
      vertex -1.29312756e-01 -3.61803399e-01 1.82978714e+00
      vertex -1.29312756e-01 -3.61803399e-01 1.57021286e+00
      vertex 1.29312756e-01 -3.61803399e-01 1.57021286e+00
    endloop
  endfacet
  facet normal -2.14639117e-16 -1.00000000e+00 2.13854594e-16
    outer loop
      vertex -1.29312756e-01 -3.61803399e-01 1.82978714e+00
      vertex 1.29312756e-01 -3.61803399e-01 1.57021286e+00
      vertex 1.29312756e-01 -3.61803399e-01 1.82978714e+00
    endloop
  endfacet
  facet normal 5.51128845e-01 -8.34420156e-01 1.78444584e-16
    outer loop
      vertex 1.29312756e-01 -3.61803399e-01 1.82978714e+00
      vertex 1.29312756e-01 -3.61803399e-01 1.57021286e+00
      vertex 3.38545189e-01 -2.23606798e-01 1.57021286e+00
    endloop
  endfacet
  facet normal 5.51128845e-01 -8.34420156e-01 1.06606670e-16
    outer loop
      vertex 1.29312756e-01 -3.61803399e-01 1.82978714e+00
      vertex 3.38545189e-01 -2.23606798e-01 1.57021286e+00
      vertex 3.38545189e-01 -2.23606798e-01 1.82978714e+00
    endloop
  endfacet
  facet normal 9.41661709e-01 -3.36560880e-01 3.59875452e-17
    outer loop
      vertex 3.38545189e-01 -2.23606798e-01 1.82978714e+00
      vertex 3.38545189e-01 -2.23606798e-01 1.57021286e+00
      vertex 4.18464867e-01 0.00000000e+00 1.57021286e+00
    endloop
  endfacet
  facet normal 9.41661709e-01 -3.36560880e-01 0.00000000e+00
    outer loop
      vertex 3.38545189e-01 -2.23606798e-01 1.82978714e+00
      vertex 4.18464867e-01 0.00000000e+00 1.57021286e+00
      vertex 4.18464867e-01 0.00000000e+00 1.82978714e+00
    endloop
  endfacet
  facet normal 7.65373568e-01 2.73553442e-01 -5.82556277e-01
    outer loop
      vertex 4.18464867e-01 0.00000000e+00 1.57021286e+00
      vertex 2.58625511e-01 0.00000000e+00 1.36021286e+00
      vertex 2.09232434e-01 1.38196601e-01 1.36021286e+00
    endloop
  endfacet
  facet normal 7.65373568e-01 2.73553442e-01 -5.82556277e-01
    outer loop
      vertex 4.18464867e-01 0.00000000e+00 1.57021286e+00
      vertex 2.09232434e-01 1.38196601e-01 1.36021286e+00
      vertex 3.38545189e-01 2.23606798e-01 1.57021286e+00
    endloop
  endfacet
  facet normal 4.56009464e-01 6.90407500e-01 -5.61598480e-01
    outer loop
      vertex 3.38545189e-01 2.23606798e-01 1.57021286e+00
      vertex 2.09232434e-01 1.38196601e-01 1.36021286e+00
      vertex 7.99196781e-02 2.23606798e-01 1.36021286e+00
    endloop
  endfacet
  facet normal 4.56009464e-01 6.90407500e-01 -5.61598480e-01
    outer loop
      vertex 3.38545189e-01 2.23606798e-01 1.57021286e+00
      vertex 7.99196781e-02 2.23606798e-01 1.36021286e+00
      vertex 1.29312756e-01 3.61803399e-01 1.57021286e+00
    endloop
  endfacet
  facet normal 1.72684686e-16 8.35346380e-01 -5.49723954e-01
    outer loop
      vertex 1.29312756e-01 3.61803399e-01 1.57021286e+00
      vertex 7.99196781e-02 2.23606798e-01 1.36021286e+00
      vertex -7.99196781e-02 2.23606798e-01 1.36021286e+00
    endloop
  endfacet
  facet normal 1.79298009e-16 8.35346380e-01 -5.49723954e-01
    outer loop
      vertex 1.29312756e-01 3.61803399e-01 1.57021286e+00
      vertex -7.99196781e-02 2.23606798e-01 1.36021286e+00
      vertex -1.29312756e-01 3.61803399e-01 1.57021286e+00
    endloop
  endfacet
  facet normal -4.56009464e-01 6.90407500e-01 -5.61598480e-01
    outer loop
      vertex -1.29312756e-01 3.61803399e-01 1.57021286e+00
      vertex -7.99196781e-02 2.23606798e-01 1.36021286e+00
      vertex -2.09232434e-01 1.38196601e-01 1.36021286e+00
    endloop
  endfacet
  facet normal -4.56009464e-01 6.90407500e-01 -5.61598480e-01
    outer loop
      vertex -1.29312756e-01 3.61803399e-01 1.57021286e+00
      vertex -2.09232434e-01 1.38196601e-01 1.36021286e+00
      vertex -3.38545189e-01 2.23606798e-01 1.57021286e+00
    endloop
  endfacet
  facet normal -7.65373568e-01 2.73553442e-01 -5.82556277e-01
    outer loop
      vertex -3.38545189e-01 2.23606798e-01 1.57021286e+00
      vertex -2.09232434e-01 1.38196601e-01 1.36021286e+00
      vertex -2.58625511e-01 2.87931731e-17 1.36021286e+00
    endloop
  endfacet
  facet normal -7.65373568e-01 2.73553442e-01 -5.82556277e-01
    outer loop
      vertex -3.38545189e-01 2.23606798e-01 1.57021286e+00
      vertex -2.58625511e-01 2.87931731e-17 1.36021286e+00
      vertex -4.18464867e-01 4.65883327e-17 1.57021286e+00
    endloop
  endfacet
  facet normal -7.65373568e-01 -2.73553442e-01 -5.82556277e-01
    outer loop
      vertex -4.18464867e-01 4.65883327e-17 1.57021286e+00
      vertex -2.58625511e-01 2.87931731e-17 1.36021286e+00
      vertex -2.09232434e-01 -1.38196601e-01 1.36021286e+00
    endloop
  endfacet
  facet normal -7.65373568e-01 -2.73553442e-01 -5.82556277e-01
    outer loop
      vertex -4.18464867e-01 4.65883327e-17 1.57021286e+00
      vertex -2.09232434e-01 -1.38196601e-01 1.36021286e+00
      vertex -3.38545189e-01 -2.23606798e-01 1.57021286e+00
    endloop
  endfacet
  facet normal -4.56009464e-01 -6.90407500e-01 -5.61598480e-01
    outer loop
      vertex -3.38545189e-01 -2.23606798e-01 1.57021286e+00
      vertex -2.09232434e-01 -1.38196601e-01 1.36021286e+00
      vertex -7.99196781e-02 -2.23606798e-01 1.36021286e+00
    endloop
  endfacet
  facet normal -4.56009464e-01 -6.90407500e-01 -5.61598480e-01
    outer loop
      vertex -3.38545189e-01 -2.23606798e-01 1.57021286e+00
      vertex -7.99196781e-02 -2.23606798e-01 1.36021286e+00
      vertex -1.29312756e-01 -3.61803399e-01 1.57021286e+00
    endloop
  endfacet
  facet normal -1.72684686e-16 -8.35346380e-01 -5.49723954e-01
    outer loop
      vertex -1.29312756e-01 -3.61803399e-01 1.57021286e+00
      vertex -7.99196781e-02 -2.23606798e-01 1.36021286e+00
      vertex 7.99196781e-02 -2.23606798e-01 1.36021286e+00
    endloop
  endfacet
  facet normal -1.79298009e-16 -8.35346380e-01 -5.49723954e-01
    outer loop
      vertex -1.29312756e-01 -3.61803399e-01 1.57021286e+00
      vertex 7.99196781e-02 -2.23606798e-01 1.36021286e+00
      vertex 1.29312756e-01 -3.61803399e-01 1.57021286e+00
    endloop
  endfacet
  facet normal 4.56009464e-01 -6.90407500e-01 -5.61598480e-01
    outer loop
      vertex 1.29312756e-01 -3.61803399e-01 1.57021286e+00
      vertex 7.99196781e-02 -2.23606798e-01 1.36021286e+00
      vertex 2.09232434e-01 -1.38196601e-01 1.36021286e+00
    endloop
  endfacet
  facet normal 4.56009464e-01 -6.90407500e-01 -5.61598480e-01
    outer loop
      vertex 1.29312756e-01 -3.61803399e-01 1.57021286e+00
      vertex 2.09232434e-01 -1.38196601e-01 1.36021286e+00
      vertex 3.38545189e-01 -2.23606798e-01 1.57021286e+00
    endloop
  endfacet
  facet normal 7.65373568e-01 -2.73553442e-01 -5.82556277e-01
    outer loop
      vertex 3.38545189e-01 -2.23606798e-01 1.57021286e+00
      vertex 2.09232434e-01 -1.38196601e-01 1.36021286e+00
      vertex 2.58625511e-01 0.00000000e+00 1.36021286e+00
    endloop
  endfacet
  facet normal 7.65373568e-01 -2.73553442e-01 -5.82556277e-01
    outer loop
      vertex 3.38545189e-01 -2.23606798e-01 1.57021286e+00
      vertex 2.58625511e-01 0.00000000e+00 1.36021286e+00
      vertex 4.18464867e-01 0.00000000e+00 1.57021286e+00
    endloop
  endfacet
  facet normal 2.94583513e-01 1.05287584e-01 -9.49807917e-01
    outer loop
      vertex 5.38844592e-17 0.00000000e+00 1.28000000e+00
      vertex 2.09232434e-01 1.38196601e-01 1.36021286e+00
      vertex 2.58625511e-01 0.00000000e+00 1.36021286e+00
    endloop
  endfacet
  facet normal 1.81045931e-01 2.74107181e-01 -9.44503904e-01
    outer loop
      vertex 4.35934432e-17 2.87931731e-17 1.28000000e+00
      vertex 7.99196781e-02 2.23606798e-01 1.36021286e+00
      vertex 2.09232434e-01 1.38196601e-01 1.36021286e+00
    endloop
  endfacet
  facet normal 9.13704399e-17 3.37655011e-01 -9.41269936e-01
    outer loop
      vertex 1.66512136e-17 4.65883327e-17 1.28000000e+00
      vertex -7.99196781e-02 2.23606798e-01 1.36021286e+00
      vertex 7.99196781e-02 2.23606798e-01 1.36021286e+00
    endloop
  endfacet
  facet normal -1.81045931e-01 2.74107181e-01 -9.44503904e-01
    outer loop
      vertex -1.66512136e-17 4.65883327e-17 1.28000000e+00
      vertex -2.09232434e-01 1.38196601e-01 1.36021286e+00
      vertex -7.99196781e-02 2.23606798e-01 1.36021286e+00
    endloop
  endfacet
  facet normal -2.94583513e-01 1.05287584e-01 -9.49807917e-01
    outer loop
      vertex -4.35934432e-17 2.87931731e-17 1.28000000e+00
      vertex -2.58625511e-01 2.87931731e-17 1.36021286e+00
      vertex -2.09232434e-01 1.38196601e-01 1.36021286e+00
    endloop
  endfacet
  facet normal -2.94583513e-01 -1.05287584e-01 -9.49807917e-01
    outer loop
      vertex -5.38844592e-17 5.99903913e-33 1.28000000e+00
      vertex -2.09232434e-01 -1.38196601e-01 1.36021286e+00
      vertex -2.58625511e-01 2.87931731e-17 1.36021286e+00
    endloop
  endfacet
  facet normal -1.81045931e-01 -2.74107181e-01 -9.44503904e-01
    outer loop
      vertex -4.35934432e-17 -2.87931731e-17 1.28000000e+00
      vertex -7.99196781e-02 -2.23606798e-01 1.36021286e+00
      vertex -2.09232434e-01 -1.38196601e-01 1.36021286e+00
    endloop
  endfacet
  facet normal -9.13704399e-17 -3.37655011e-01 -9.41269936e-01
    outer loop
      vertex -1.66512136e-17 -4.65883327e-17 1.28000000e+00
      vertex 7.99196781e-02 -2.23606798e-01 1.36021286e+00
      vertex -7.99196781e-02 -2.23606798e-01 1.36021286e+00
    endloop
  endfacet
  facet normal 1.81045931e-01 -2.74107181e-01 -9.44503904e-01
    outer loop
      vertex 1.66512136e-17 -4.65883327e-17 1.28000000e+00
      vertex 2.09232434e-01 -1.38196601e-01 1.36021286e+00
      vertex 7.99196781e-02 -2.23606798e-01 1.36021286e+00
    endloop
  endfacet
  facet normal 2.94583513e-01 -1.05287584e-01 -9.49807917e-01
    outer loop
      vertex 4.35934432e-17 -2.87931731e-17 1.28000000e+00
      vertex 2.58625511e-01 0.00000000e+00 1.36021286e+00
      vertex 2.09232434e-01 -1.38196601e-01 1.36021286e+00
    endloop
  endfacet
  facet normal 5.95932612e-01 1.31736770e-01 -7.92155127e-01
    outer loop
      vertex 4.53286730e-02 0.00000000e+00 9.46803088e-01
      vertex -8.30667453e-02 0.00000000e+00 8.50212138e-01
      vertex -8.62373515e-02 1.50000000e-01 8.72772173e-01
    endloop
  endfacet
  facet normal 7.73951436e-01 4.68658354e-01 -4.25862093e-01
    outer loop
      vertex 4.53286730e-02 0.00000000e+00 9.46803088e-01
      vertex -8.62373515e-02 1.50000000e-01 8.72772173e-01
      vertex -9.38918720e-02 2.12132034e-01 9.27236917e-01
    endloop
  endfacet
  facet normal 6.26586369e-01 4.68658354e-01 6.22694845e-01
    outer loop
      vertex 4.53286730e-02 0.00000000e+00 9.46803088e-01
      vertex -9.38918720e-02 2.12132034e-01 9.27236917e-01
      vertex -1.01546393e-01 1.50000000e-01 9.81701661e-01
    endloop
  endfacet
  facet normal 3.54499649e-01 1.31736770e-01 9.25729670e-01
    outer loop
      vertex 4.53286730e-02 0.00000000e+00 9.46803088e-01
      vertex -1.01546393e-01 1.50000000e-01 9.81701661e-01
      vertex -1.04716999e-01 2.59786817e-17 1.00426170e+00
    endloop
  endfacet
  facet normal 3.54499649e-01 -1.31736770e-01 9.25729670e-01
    outer loop
      vertex 4.53286730e-02 0.00000000e+00 9.46803088e-01
      vertex -1.04716999e-01 2.59786817e-17 1.00426170e+00
      vertex -1.01546393e-01 -1.50000000e-01 9.81701661e-01
    endloop
  endfacet
  facet normal 6.26586369e-01 -4.68658354e-01 6.22694845e-01
    outer loop
      vertex 4.53286730e-02 0.00000000e+00 9.46803088e-01
      vertex -1.01546393e-01 -1.50000000e-01 9.81701661e-01
      vertex -9.38918720e-02 -2.12132034e-01 9.27236917e-01
    endloop
  endfacet
  facet normal 7.73951436e-01 -4.68658354e-01 -4.25862093e-01
    outer loop
      vertex 4.53286730e-02 0.00000000e+00 9.46803088e-01
      vertex -9.38918720e-02 -2.12132034e-01 9.27236917e-01
      vertex -8.62373515e-02 -1.50000000e-01 8.72772173e-01
    endloop
  endfacet
  facet normal 5.95932612e-01 -1.31736770e-01 -7.92155127e-01
    outer loop
      vertex 4.53286730e-02 0.00000000e+00 9.46803088e-01
      vertex -8.62373515e-02 -1.50000000e-01 8.72772173e-01
      vertex -8.30667453e-02 0.00000000e+00 8.50212138e-01
    endloop
  endfacet
  facet normal 2.29521067e-01 1.49499443e-01 -9.61753605e-01
    outer loop
      vertex -8.30667453e-02 0.00000000e+00 8.50212138e-01
      vertex -4.14690959e-01 0.00000000e+00 7.71070512e-01
      vertex -4.19174873e-01 2.12132034e-01 8.02975221e-01
    endloop
  endfacet
  facet normal 2.29521067e-01 1.49499443e-01 -9.61753605e-01
    outer loop
      vertex -8.30667453e-02 0.00000000e+00 8.50212138e-01
      vertex -4.19174873e-01 2.12132034e-01 8.02975221e-01
      vertex -8.62373515e-02 1.50000000e-01 8.72772173e-01
    endloop
  endfacet
  facet normal 2.70184768e-01 6.53276354e-01 -7.07269536e-01
    outer loop
      vertex -8.62373515e-02 1.50000000e-01 8.72772173e-01
      vertex -4.19174873e-01 2.12132034e-01 8.02975221e-01
      vertex -4.30000000e-01 3.00000000e-01 8.80000000e-01
    endloop
  endfacet
  facet normal 2.70184768e-01 6.53276354e-01 -7.07269536e-01
    outer loop
      vertex -8.62373515e-02 1.50000000e-01 8.72772173e-01
      vertex -4.30000000e-01 3.00000000e-01 8.80000000e-01
      vertex -9.38918720e-02 2.12132034e-01 9.27236917e-01
    endloop
  endfacet
  facet normal 6.47683635e-02 6.53276354e-01 7.54344128e-01
    outer loop
      vertex -9.38918720e-02 2.12132034e-01 9.27236917e-01
      vertex -4.30000000e-01 3.00000000e-01 8.80000000e-01
      vertex -4.40825127e-01 2.12132034e-01 9.57024779e-01
    endloop
  endfacet
  facet normal 6.47683635e-02 6.53276354e-01 7.54344128e-01
    outer loop
      vertex -9.38918720e-02 2.12132034e-01 9.27236917e-01
      vertex -4.40825127e-01 2.12132034e-01 9.57024779e-01
      vertex -1.01546393e-01 1.50000000e-01 9.81701661e-01
    endloop
  endfacet
  facet normal -4.44654109e-02 1.49499443e-01 9.87761481e-01
    outer loop
      vertex -1.01546393e-01 1.50000000e-01 9.81701661e-01
      vertex -4.40825127e-01 2.12132034e-01 9.57024779e-01
      vertex -4.45309041e-01 3.67394040e-17 9.88929488e-01
    endloop
  endfacet
  facet normal -4.44654109e-02 1.49499443e-01 9.87761481e-01
    outer loop
      vertex -1.01546393e-01 1.50000000e-01 9.81701661e-01
      vertex -4.45309041e-01 3.67394040e-17 9.88929488e-01
      vertex -1.04716999e-01 2.59786817e-17 1.00426170e+00
    endloop
  endfacet
  facet normal -4.44654109e-02 -1.49499443e-01 9.87761481e-01
    outer loop
      vertex -1.04716999e-01 2.59786817e-17 1.00426170e+00
      vertex -4.45309041e-01 3.67394040e-17 9.88929488e-01
      vertex -4.40825127e-01 -2.12132034e-01 9.57024779e-01
    endloop
  endfacet
  facet normal -4.44654109e-02 -1.49499443e-01 9.87761481e-01
    outer loop
      vertex -1.04716999e-01 2.59786817e-17 1.00426170e+00
      vertex -4.40825127e-01 -2.12132034e-01 9.57024779e-01
      vertex -1.01546393e-01 -1.50000000e-01 9.81701661e-01
    endloop
  endfacet
  facet normal 6.47683635e-02 -6.53276354e-01 7.54344128e-01
    outer loop
      vertex -1.01546393e-01 -1.50000000e-01 9.81701661e-01
      vertex -4.40825127e-01 -2.12132034e-01 9.57024779e-01
      vertex -4.30000000e-01 -3.00000000e-01 8.80000000e-01
    endloop
  endfacet
  facet normal 6.47683635e-02 -6.53276354e-01 7.54344128e-01
    outer loop
      vertex -1.01546393e-01 -1.50000000e-01 9.81701661e-01
      vertex -4.30000000e-01 -3.00000000e-01 8.80000000e-01
      vertex -9.38918720e-02 -2.12132034e-01 9.27236917e-01
    endloop
  endfacet
  facet normal 2.70184768e-01 -6.53276354e-01 -7.07269536e-01
    outer loop
      vertex -9.38918720e-02 -2.12132034e-01 9.27236917e-01
      vertex -4.30000000e-01 -3.00000000e-01 8.80000000e-01
      vertex -4.19174873e-01 -2.12132034e-01 8.02975221e-01
    endloop
  endfacet
  facet normal 2.70184768e-01 -6.53276354e-01 -7.07269536e-01
    outer loop
      vertex -9.38918720e-02 -2.12132034e-01 9.27236917e-01
      vertex -4.19174873e-01 -2.12132034e-01 8.02975221e-01
      vertex -8.62373515e-02 -1.50000000e-01 8.72772173e-01
    endloop
  endfacet
  facet normal 2.29521067e-01 -1.49499443e-01 -9.61753605e-01
    outer loop
      vertex -8.62373515e-02 -1.50000000e-01 8.72772173e-01
      vertex -4.19174873e-01 -2.12132034e-01 8.02975221e-01
      vertex -4.14690959e-01 0.00000000e+00 7.71070512e-01
    endloop
  endfacet
  facet normal 2.29521067e-01 -1.49499443e-01 -9.61753605e-01
    outer loop
      vertex -8.62373515e-02 -1.50000000e-01 8.72772173e-01
      vertex -4.14690959e-01 0.00000000e+00 7.71070512e-01
      vertex -8.30667453e-02 0.00000000e+00 8.50212138e-01
    endloop
  endfacet
  facet normal 4.44654109e-02 1.49499443e-01 -9.87761481e-01
    outer loop
      vertex -4.14690959e-01 0.00000000e+00 7.71070512e-01
      vertex -7.55283001e-01 0.00000000e+00 7.55738304e-01
      vertex -7.58453607e-01 1.50000000e-01 7.78298339e-01
    endloop
  endfacet
  facet normal 4.44654109e-02 1.49499443e-01 -9.87761481e-01
    outer loop
      vertex -4.14690959e-01 0.00000000e+00 7.71070512e-01
      vertex -7.58453607e-01 1.50000000e-01 7.78298339e-01
      vertex -4.19174873e-01 2.12132034e-01 8.02975221e-01
    endloop
  endfacet
  facet normal -6.47683635e-02 6.53276354e-01 -7.54344128e-01
    outer loop
      vertex -4.19174873e-01 2.12132034e-01 8.02975221e-01
      vertex -7.58453607e-01 1.50000000e-01 7.78298339e-01
      vertex -7.66108128e-01 2.12132034e-01 8.32763083e-01
    endloop
  endfacet
  facet normal -6.47683635e-02 6.53276354e-01 -7.54344128e-01
    outer loop
      vertex -4.19174873e-01 2.12132034e-01 8.02975221e-01
      vertex -7.66108128e-01 2.12132034e-01 8.32763083e-01
      vertex -4.30000000e-01 3.00000000e-01 8.80000000e-01
    endloop
  endfacet
  facet normal -2.70184768e-01 6.53276354e-01 7.07269536e-01
    outer loop
      vertex -4.30000000e-01 3.00000000e-01 8.80000000e-01
      vertex -7.66108128e-01 2.12132034e-01 8.32763083e-01
      vertex -7.73762649e-01 1.50000000e-01 8.87227827e-01
    endloop
  endfacet
  facet normal -2.70184768e-01 6.53276354e-01 7.07269536e-01
    outer loop
      vertex -4.30000000e-01 3.00000000e-01 8.80000000e-01
      vertex -7.73762649e-01 1.50000000e-01 8.87227827e-01
      vertex -4.40825127e-01 2.12132034e-01 9.57024779e-01
    endloop
  endfacet
  facet normal -2.29521067e-01 1.49499443e-01 9.61753605e-01
    outer loop
      vertex -4.40825127e-01 2.12132034e-01 9.57024779e-01
      vertex -7.73762649e-01 1.50000000e-01 8.87227827e-01
      vertex -7.76933255e-01 2.59786817e-17 9.09787862e-01
    endloop
  endfacet
  facet normal -2.29521067e-01 1.49499443e-01 9.61753605e-01
    outer loop
      vertex -4.40825127e-01 2.12132034e-01 9.57024779e-01
      vertex -7.76933255e-01 2.59786817e-17 9.09787862e-01
      vertex -4.45309041e-01 3.67394040e-17 9.88929488e-01
    endloop
  endfacet
  facet normal -2.29521067e-01 -1.49499443e-01 9.61753605e-01
    outer loop
      vertex -4.45309041e-01 3.67394040e-17 9.88929488e-01
      vertex -7.76933255e-01 2.59786817e-17 9.09787862e-01
      vertex -7.73762649e-01 -1.50000000e-01 8.87227827e-01
    endloop
  endfacet
  facet normal -2.29521067e-01 -1.49499443e-01 9.61753605e-01
    outer loop
      vertex -4.45309041e-01 3.67394040e-17 9.88929488e-01
      vertex -7.73762649e-01 -1.50000000e-01 8.87227827e-01
      vertex -4.40825127e-01 -2.12132034e-01 9.57024779e-01
    endloop
  endfacet
  facet normal -2.70184768e-01 -6.53276354e-01 7.07269536e-01
    outer loop
      vertex -4.40825127e-01 -2.12132034e-01 9.57024779e-01
      vertex -7.73762649e-01 -1.50000000e-01 8.87227827e-01
      vertex -7.66108128e-01 -2.12132034e-01 8.32763083e-01
    endloop
  endfacet
  facet normal -2.70184768e-01 -6.53276354e-01 7.07269536e-01
    outer loop
      vertex -4.40825127e-01 -2.12132034e-01 9.57024779e-01
      vertex -7.66108128e-01 -2.12132034e-01 8.32763083e-01
      vertex -4.30000000e-01 -3.00000000e-01 8.80000000e-01
    endloop
  endfacet
  facet normal -6.47683635e-02 -6.53276354e-01 -7.54344128e-01
    outer loop
      vertex -4.30000000e-01 -3.00000000e-01 8.80000000e-01
      vertex -7.66108128e-01 -2.12132034e-01 8.32763083e-01
      vertex -7.58453607e-01 -1.50000000e-01 7.78298339e-01
    endloop
  endfacet
  facet normal -6.47683635e-02 -6.53276354e-01 -7.54344128e-01
    outer loop
      vertex -4.30000000e-01 -3.00000000e-01 8.80000000e-01
      vertex -7.58453607e-01 -1.50000000e-01 7.78298339e-01
      vertex -4.19174873e-01 -2.12132034e-01 8.02975221e-01
    endloop
  endfacet
  facet normal 4.44654109e-02 -1.49499443e-01 -9.87761481e-01
    outer loop
      vertex -4.19174873e-01 -2.12132034e-01 8.02975221e-01
      vertex -7.58453607e-01 -1.50000000e-01 7.78298339e-01
      vertex -7.55283001e-01 0.00000000e+00 7.55738304e-01
    endloop
  endfacet
  facet normal 4.44654109e-02 -1.49499443e-01 -9.87761481e-01
    outer loop
      vertex -4.19174873e-01 -2.12132034e-01 8.02975221e-01
      vertex -7.55283001e-01 0.00000000e+00 7.55738304e-01
      vertex -4.14690959e-01 0.00000000e+00 7.71070512e-01
    endloop
  endfacet
  facet normal -3.54499649e-01 1.31736770e-01 -9.25729670e-01
    outer loop
      vertex -9.05328673e-01 0.00000000e+00 8.13196912e-01
      vertex -7.58453607e-01 1.50000000e-01 7.78298339e-01
      vertex -7.55283001e-01 0.00000000e+00 7.55738304e-01
    endloop
  endfacet
  facet normal -6.26586369e-01 4.68658354e-01 -6.22694845e-01
    outer loop
      vertex -9.05328673e-01 2.59786817e-17 8.13196912e-01
      vertex -7.66108128e-01 2.12132034e-01 8.32763083e-01
      vertex -7.58453607e-01 1.50000000e-01 7.78298339e-01
    endloop
  endfacet
  facet normal -7.73951436e-01 4.68658354e-01 4.25862093e-01
    outer loop
      vertex -9.05328673e-01 3.67394040e-17 8.13196912e-01
      vertex -7.73762649e-01 1.50000000e-01 8.87227827e-01
      vertex -7.66108128e-01 2.12132034e-01 8.32763083e-01
    endloop
  endfacet
  facet normal -5.95932612e-01 1.31736770e-01 7.92155127e-01
    outer loop
      vertex -9.05328673e-01 2.59786817e-17 8.13196912e-01
      vertex -7.76933255e-01 2.59786817e-17 9.09787862e-01
      vertex -7.73762649e-01 1.50000000e-01 8.87227827e-01
    endloop
  endfacet
  facet normal -5.95932612e-01 -1.31736770e-01 7.92155127e-01
    outer loop
      vertex -9.05328673e-01 4.49927935e-33 8.13196912e-01
      vertex -7.73762649e-01 -1.50000000e-01 8.87227827e-01
      vertex -7.76933255e-01 2.59786817e-17 9.09787862e-01
    endloop
  endfacet
  facet normal -7.73951436e-01 -4.68658354e-01 4.25862093e-01
    outer loop
      vertex -9.05328673e-01 -2.59786817e-17 8.13196912e-01
      vertex -7.66108128e-01 -2.12132034e-01 8.32763083e-01
      vertex -7.73762649e-01 -1.50000000e-01 8.87227827e-01
    endloop
  endfacet
  facet normal -6.26586369e-01 -4.68658354e-01 -6.22694845e-01
    outer loop
      vertex -9.05328673e-01 -3.67394040e-17 8.13196912e-01
      vertex -7.58453607e-01 -1.50000000e-01 7.78298339e-01
      vertex -7.66108128e-01 -2.12132034e-01 8.32763083e-01
    endloop
  endfacet
  facet normal -3.54499649e-01 -1.31736770e-01 -9.25729670e-01
    outer loop
      vertex -9.05328673e-01 -2.59786817e-17 8.13196912e-01
      vertex -7.55283001e-01 0.00000000e+00 7.55738304e-01
      vertex -7.58453607e-01 -1.50000000e-01 7.78298339e-01
    endloop
  endfacet
  facet normal -3.11100122e-01 -8.30311149e-01 4.62385240e-01
    outer loop
      vertex -4.10000000e-01 -1.20000000e-01 1.72000000e+00
      vertex -4.15928788e-01 -6.00000000e-02 1.82375379e+00
      vertex -7.60000000e-01 0.00000000e+00 1.70000000e+00
    endloop
  endfacet
  facet normal -3.38448671e-01 0.00000000e+00 9.40984855e-01
    outer loop
      vertex -4.15928788e-01 -6.00000000e-02 1.82375379e+00
      vertex -4.15928788e-01 6.00000000e-02 1.82375379e+00
      vertex -7.60000000e-01 0.00000000e+00 1.70000000e+00
    endloop
  endfacet
  facet normal -3.11100122e-01 8.30311149e-01 4.62385240e-01
    outer loop
      vertex -4.15928788e-01 6.00000000e-02 1.82375379e+00
      vertex -4.10000000e-01 1.20000000e-01 1.72000000e+00
      vertex -7.60000000e-01 0.00000000e+00 1.70000000e+00
    endloop
  endfacet
  facet normal -2.56403023e-01 8.30311149e-01 -4.94813991e-01
    outer loop
      vertex -4.10000000e-01 1.20000000e-01 1.72000000e+00
      vertex -4.04071212e-01 6.00000000e-02 1.61624621e+00
      vertex -7.60000000e-01 0.00000000e+00 1.70000000e+00
    endloop
  endfacet
  facet normal -2.29054474e-01 -0.00000000e+00 -9.73413606e-01
    outer loop
      vertex -4.04071212e-01 6.00000000e-02 1.61624621e+00
      vertex -4.04071212e-01 -6.00000000e-02 1.61624621e+00
      vertex -7.60000000e-01 0.00000000e+00 1.70000000e+00
    endloop
  endfacet
  facet normal -2.56403023e-01 -8.30311149e-01 -4.94813991e-01
    outer loop
      vertex -4.04071212e-01 -6.00000000e-02 1.61624621e+00
      vertex -4.10000000e-01 -1.20000000e-01 1.72000000e+00
      vertex -7.60000000e-01 0.00000000e+00 1.70000000e+00
    endloop
  endfacet
  facet normal 9.98371334e-01 0.00000000e+00 5.70497905e-02
    outer loop
      vertex -4.10000000e-01 0.00000000e+00 1.72000000e+00
      vertex -4.15928788e-01 6.00000000e-02 1.82375379e+00
      vertex -4.15928788e-01 -6.00000000e-02 1.82375379e+00
    endloop
  endfacet
  facet normal 9.98371334e-01 -0.00000000e+00 5.70497905e-02
    outer loop
      vertex -4.10000000e-01 0.00000000e+00 1.72000000e+00
      vertex -4.10000000e-01 1.20000000e-01 1.72000000e+00
      vertex -4.15928788e-01 6.00000000e-02 1.82375379e+00
    endloop
  endfacet
  facet normal 9.98371334e-01 -0.00000000e+00 5.70497905e-02
    outer loop
      vertex -4.10000000e-01 0.00000000e+00 1.72000000e+00
      vertex -4.04071212e-01 6.00000000e-02 1.61624621e+00
      vertex -4.10000000e-01 1.20000000e-01 1.72000000e+00
    endloop
  endfacet
  facet normal 9.98371334e-01 0.00000000e+00 5.70497905e-02
    outer loop
      vertex -4.10000000e-01 0.00000000e+00 1.72000000e+00
      vertex -4.04071212e-01 -6.00000000e-02 1.61624621e+00
      vertex -4.04071212e-01 6.00000000e-02 1.61624621e+00
    endloop
  endfacet
  facet normal 1.50915608e-01 -1.61750640e-01 9.75223672e-01
    outer loop
      vertex -2.46432120e-01 -5.06176932e-01 5.74615663e-01
      vertex 8.01970126e-02 -4.62081663e-01 5.31383533e-01
      vertex -2.17317005e-01 -3.30268795e-01 5.99286237e-01
    endloop
  endfacet
  facet normal -1.50915608e-01 1.61750640e-01 -9.75223672e-01
    outer loop
      vertex -1.34754570e-01 -6.25872406e-01 1.29628118e+00
      vertex -1.05639455e-01 -4.49964268e-01 1.32095175e+00
      vertex 1.91874562e-01 -5.81777137e-01 1.25304905e+00
    endloop
  endfacet
  facet normal 9.75223672e-01 -1.37058749e-01 -1.73648178e-01
    outer loop
      vertex -2.46432120e-01 -5.06176932e-01 5.74615663e-01
      vertex -2.17317005e-01 -3.30268795e-01 5.99286237e-01
      vertex -1.05639455e-01 -4.49964268e-01 1.32095175e+00
    endloop
  endfacet
  facet normal 9.75223672e-01 -1.37058749e-01 -1.73648178e-01
    outer loop
      vertex -2.46432120e-01 -5.06176932e-01 5.74615663e-01
      vertex -1.05639455e-01 -4.49964268e-01 1.32095175e+00
      vertex -1.34754570e-01 -6.25872406e-01 1.29628118e+00
    endloop
  endfacet
  facet normal -4.19746901e-01 -9.03659360e-01 -8.49252574e-02
    outer loop
      vertex -2.17317005e-01 -3.30268795e-01 5.99286237e-01
      vertex 8.01970126e-02 -4.62081663e-01 5.31383533e-01
      vertex 1.91874562e-01 -5.81777137e-01 1.25304905e+00
    endloop
  endfacet
  facet normal -4.19746901e-01 -9.03659360e-01 -8.49252574e-02
    outer loop
      vertex -2.17317005e-01 -3.30268795e-01 5.99286237e-01
      vertex 1.91874562e-01 -5.81777137e-01 1.25304905e+00
      vertex -1.05639455e-01 -4.49964268e-01 1.32095175e+00
    endloop
  endfacet
  facet normal -1.08328090e-01 9.77875460e-01 1.78954209e-01
    outer loop
      vertex 8.01970126e-02 -4.62081663e-01 5.31383533e-01
      vertex -2.46432120e-01 -5.06176932e-01 5.74615663e-01
      vertex -1.34754570e-01 -6.25872406e-01 1.29628118e+00
    endloop
  endfacet
  facet normal -1.08328090e-01 9.77875460e-01 1.78954209e-01
    outer loop
      vertex 8.01970126e-02 -4.62081663e-01 5.31383533e-01
      vertex -1.34754570e-01 -6.25872406e-01 1.29628118e+00
      vertex 1.91874562e-01 -5.81777137e-01 1.25304905e+00
    endloop
  endfacet
  facet normal 1.50915608e-01 1.61750640e-01 9.75223672e-01
    outer loop
      vertex -2.17317005e-01 3.30268795e-01 5.99286237e-01
      vertex 8.01970126e-02 4.62081663e-01 5.31383533e-01
      vertex -2.46432120e-01 5.06176932e-01 5.74615663e-01
    endloop
  endfacet
  facet normal -1.50915608e-01 -1.61750640e-01 -9.75223672e-01
    outer loop
      vertex -1.05639455e-01 4.49964268e-01 1.32095175e+00
      vertex -1.34754570e-01 6.25872406e-01 1.29628118e+00
      vertex 1.91874562e-01 5.81777137e-01 1.25304905e+00
    endloop
  endfacet
  facet normal 9.75223672e-01 1.37058749e-01 -1.73648178e-01
    outer loop
      vertex -2.17317005e-01 3.30268795e-01 5.99286237e-01
      vertex -2.46432120e-01 5.06176932e-01 5.74615663e-01
      vertex -1.34754570e-01 6.25872406e-01 1.29628118e+00
    endloop
  endfacet
  facet normal 9.75223672e-01 1.37058749e-01 -1.73648178e-01
    outer loop
      vertex -2.17317005e-01 3.30268795e-01 5.99286237e-01
      vertex -1.34754570e-01 6.25872406e-01 1.29628118e+00
      vertex -1.05639455e-01 4.49964268e-01 1.32095175e+00
    endloop
  endfacet
  facet normal -1.08328090e-01 -9.77875460e-01 1.78954209e-01
    outer loop
      vertex -2.46432120e-01 5.06176932e-01 5.74615663e-01
      vertex 8.01970126e-02 4.62081663e-01 5.31383533e-01
      vertex 1.91874562e-01 5.81777137e-01 1.25304905e+00
    endloop
  endfacet
  facet normal -1.08328090e-01 -9.77875460e-01 1.78954209e-01
    outer loop
      vertex -2.46432120e-01 5.06176932e-01 5.74615663e-01
      vertex 1.91874562e-01 5.81777137e-01 1.25304905e+00
      vertex -1.34754570e-01 6.25872406e-01 1.29628118e+00
    endloop
  endfacet
  facet normal -4.19746901e-01 9.03659360e-01 -8.49252574e-02
    outer loop
      vertex 8.01970126e-02 4.62081663e-01 5.31383533e-01
      vertex -2.17317005e-01 3.30268795e-01 5.99286237e-01
      vertex -1.05639455e-01 4.49964268e-01 1.32095175e+00
    endloop
  endfacet
  facet normal -4.19746901e-01 9.03659360e-01 -8.49252574e-02
    outer loop
      vertex 8.01970126e-02 4.62081663e-01 5.31383533e-01
      vertex -1.05639455e-01 4.49964268e-01 1.32095175e+00
      vertex 1.91874562e-01 5.81777137e-01 1.25304905e+00
    endloop
  endfacet
  facet normal 0.00000000e+00 0.00000000e+00 1.00000000e+00
    outer loop
      vertex -4.04136304e-01 -3.26861427e-01 -1.00000000e-01
      vertex -8.02907616e-03 -2.71192187e-01 -1.00000000e-01
      vertex -3.58636963e-02 -7.31385729e-02 -1.00000000e-01
    endloop
  endfacet
  facet normal 0.00000000e+00 -0.00000000e+00 1.00000000e+00
    outer loop
      vertex -4.04136304e-01 -3.26861427e-01 -1.00000000e-01
      vertex -3.58636963e-02 -7.31385729e-02 -1.00000000e-01
      vertex -4.31970924e-01 -1.28807813e-01 -1.00000000e-01
    endloop
  endfacet
  facet normal 0.00000000e+00 0.00000000e+00 -1.00000000e+00
    outer loop
      vertex -4.04136304e-01 -3.26861427e-01 6.00000000e-02
      vertex -3.58636963e-02 -7.31385729e-02 6.00000000e-02
      vertex -8.02907616e-03 -2.71192187e-01 6.00000000e-02
    endloop
  endfacet
  facet normal 0.00000000e+00 0.00000000e+00 -1.00000000e+00
    outer loop
      vertex -4.04136304e-01 -3.26861427e-01 6.00000000e-02
      vertex -4.31970924e-01 -1.28807813e-01 6.00000000e-02
      vertex -3.58636963e-02 -7.31385729e-02 6.00000000e-02
    endloop
  endfacet
  facet normal -1.39173101e-01 9.90268069e-01 0.00000000e+00
    outer loop
      vertex -4.04136304e-01 -3.26861427e-01 -1.00000000e-01
      vertex -4.04136304e-01 -3.26861427e-01 6.00000000e-02
      vertex -8.02907616e-03 -2.71192187e-01 6.00000000e-02
    endloop
  endfacet
  facet normal -1.39173101e-01 9.90268069e-01 0.00000000e+00
    outer loop
      vertex -4.04136304e-01 -3.26861427e-01 -1.00000000e-01
      vertex -8.02907616e-03 -2.71192187e-01 6.00000000e-02
      vertex -8.02907616e-03 -2.71192187e-01 -1.00000000e-01
    endloop
  endfacet
  facet normal -9.90268069e-01 -1.39173101e-01 0.00000000e+00
    outer loop
      vertex -8.02907616e-03 -2.71192187e-01 -1.00000000e-01
      vertex -8.02907616e-03 -2.71192187e-01 6.00000000e-02
      vertex -3.58636963e-02 -7.31385729e-02 6.00000000e-02
    endloop
  endfacet
  facet normal -9.90268069e-01 -1.39173101e-01 0.00000000e+00
    outer loop
      vertex -8.02907616e-03 -2.71192187e-01 -1.00000000e-01
      vertex -3.58636963e-02 -7.31385729e-02 6.00000000e-02
      vertex -3.58636963e-02 -7.31385729e-02 -1.00000000e-01
    endloop
  endfacet
  facet normal 1.39173101e-01 -9.90268069e-01 0.00000000e+00
    outer loop
      vertex -3.58636963e-02 -7.31385729e-02 -1.00000000e-01
      vertex -3.58636963e-02 -7.31385729e-02 6.00000000e-02
      vertex -4.31970924e-01 -1.28807813e-01 6.00000000e-02
    endloop
  endfacet
  facet normal 1.39173101e-01 -9.90268069e-01 0.00000000e+00
    outer loop
      vertex -3.58636963e-02 -7.31385729e-02 -1.00000000e-01
      vertex -4.31970924e-01 -1.28807813e-01 6.00000000e-02
      vertex -4.31970924e-01 -1.28807813e-01 -1.00000000e-01
    endloop
  endfacet
  facet normal 9.90268069e-01 1.39173101e-01 -0.00000000e+00
    outer loop
      vertex -4.31970924e-01 -1.28807813e-01 -1.00000000e-01
      vertex -4.31970924e-01 -1.28807813e-01 6.00000000e-02
      vertex -4.04136304e-01 -3.26861427e-01 6.00000000e-02
    endloop
  endfacet
  facet normal 9.90268069e-01 1.39173101e-01 0.00000000e+00
    outer loop
      vertex -4.31970924e-01 -1.28807813e-01 -1.00000000e-01
      vertex -4.04136304e-01 -3.26861427e-01 6.00000000e-02
      vertex -4.04136304e-01 -3.26861427e-01 -1.00000000e-01
    endloop
  endfacet
  facet normal -0.00000000e+00 0.00000000e+00 1.00000000e+00
    outer loop
      vertex -4.31970924e-01 1.28807813e-01 -1.00000000e-01
      vertex -3.58636963e-02 7.31385729e-02 -1.00000000e-01
      vertex -8.02907616e-03 2.71192187e-01 -1.00000000e-01
    endloop
  endfacet
  facet normal 0.00000000e+00 0.00000000e+00 1.00000000e+00
    outer loop
      vertex -4.31970924e-01 1.28807813e-01 -1.00000000e-01
      vertex -8.02907616e-03 2.71192187e-01 -1.00000000e-01
      vertex -4.04136304e-01 3.26861427e-01 -1.00000000e-01
    endloop
  endfacet
  facet normal 0.00000000e+00 0.00000000e+00 -1.00000000e+00
    outer loop
      vertex -4.31970924e-01 1.28807813e-01 6.00000000e-02
      vertex -8.02907616e-03 2.71192187e-01 6.00000000e-02
      vertex -3.58636963e-02 7.31385729e-02 6.00000000e-02
    endloop
  endfacet
  facet normal 0.00000000e+00 0.00000000e+00 -1.00000000e+00
    outer loop
      vertex -4.31970924e-01 1.28807813e-01 6.00000000e-02
      vertex -4.04136304e-01 3.26861427e-01 6.00000000e-02
      vertex -8.02907616e-03 2.71192187e-01 6.00000000e-02
    endloop
  endfacet
  facet normal 1.39173101e-01 9.90268069e-01 -0.00000000e+00
    outer loop
      vertex -4.31970924e-01 1.28807813e-01 -1.00000000e-01
      vertex -4.31970924e-01 1.28807813e-01 6.00000000e-02
      vertex -3.58636963e-02 7.31385729e-02 6.00000000e-02
    endloop
  endfacet
  facet normal 1.39173101e-01 9.90268069e-01 0.00000000e+00
    outer loop
      vertex -4.31970924e-01 1.28807813e-01 -1.00000000e-01
      vertex -3.58636963e-02 7.31385729e-02 6.00000000e-02
      vertex -3.58636963e-02 7.31385729e-02 -1.00000000e-01
    endloop
  endfacet
  facet normal -9.90268069e-01 1.39173101e-01 0.00000000e+00
    outer loop
      vertex -3.58636963e-02 7.31385729e-02 -1.00000000e-01
      vertex -3.58636963e-02 7.31385729e-02 6.00000000e-02
      vertex -8.02907616e-03 2.71192187e-01 6.00000000e-02
    endloop
  endfacet
  facet normal -9.90268069e-01 1.39173101e-01 0.00000000e+00
    outer loop
      vertex -3.58636963e-02 7.31385729e-02 -1.00000000e-01
      vertex -8.02907616e-03 2.71192187e-01 6.00000000e-02
      vertex -8.02907616e-03 2.71192187e-01 -1.00000000e-01
    endloop
  endfacet
  facet normal -1.39173101e-01 -9.90268069e-01 0.00000000e+00
    outer loop
      vertex -8.02907616e-03 2.71192187e-01 -1.00000000e-01
      vertex -8.02907616e-03 2.71192187e-01 6.00000000e-02
      vertex -4.04136304e-01 3.26861427e-01 6.00000000e-02
    endloop
  endfacet
  facet normal -1.39173101e-01 -9.90268069e-01 0.00000000e+00
    outer loop
      vertex -8.02907616e-03 2.71192187e-01 -1.00000000e-01
      vertex -4.04136304e-01 3.26861427e-01 6.00000000e-02
      vertex -4.04136304e-01 3.26861427e-01 -1.00000000e-01
    endloop
  endfacet
  facet normal 9.90268069e-01 -1.39173101e-01 0.00000000e+00
    outer loop
      vertex -4.04136304e-01 3.26861427e-01 -1.00000000e-01
      vertex -4.04136304e-01 3.26861427e-01 6.00000000e-02
      vertex -4.31970924e-01 1.28807813e-01 6.00000000e-02
    endloop
  endfacet
  facet normal 9.90268069e-01 -1.39173101e-01 0.00000000e+00
    outer loop
      vertex -4.04136304e-01 3.26861427e-01 -1.00000000e-01
      vertex -4.31970924e-01 1.28807813e-01 6.00000000e-02
      vertex -4.31970924e-01 1.28807813e-01 -1.00000000e-01
    endloop
  endfacet
  facet normal 5.34426618e-02 -9.34325156e-01 3.52392374e-01
    outer loop
      vertex -3.14266175e-01 -2.28608335e-01 1.82000000e+00
      vertex -3.21803438e-01 -2.14371284e-01 1.85889087e+00
      vertex -3.52866216e-01 -2.19815094e-01 1.84916815e+00
    endloop
  endfacet
  facet normal 5.34426618e-02 -9.34325156e-01 3.52392374e-01
    outer loop
      vertex -3.14266175e-01 -2.28608335e-01 1.82000000e+00
      vertex -3.52866216e-01 -2.19815094e-01 1.84916815e+00
      vertex -3.47213269e-01 -2.30492883e-01 1.82000000e+00
    endloop
  endfacet
  facet normal -1.79732962e-01 -4.93882312e-01 8.50750448e-01
    outer loop
      vertex -3.21803438e-01 -2.14371284e-01 1.85889087e+00
      vertex -3.40000000e-01 -1.80000000e-01 1.87500000e+00
      vertex -3.66513637e-01 -1.94036632e-01 1.86125000e+00
    endloop
  endfacet
  facet normal -1.79732962e-01 -4.93882312e-01 8.50750448e-01
    outer loop
      vertex -3.21803438e-01 -2.14371284e-01 1.85889087e+00
      vertex -3.66513637e-01 -1.94036632e-01 1.86125000e+00
      vertex -3.52866216e-01 -2.19815094e-01 1.84916815e+00
    endloop
  endfacet
  facet normal -5.09493090e-01 1.28997931e-01 8.50750448e-01
    outer loop
      vertex -3.40000000e-01 -1.80000000e-01 1.87500000e+00
      vertex -3.58196562e-01 -1.45628716e-01 1.85889087e+00
      vertex -3.80161059e-01 -1.68258169e-01 1.84916815e+00
    endloop
  endfacet
  facet normal -5.09493090e-01 1.28997931e-01 8.50750448e-01
    outer loop
      vertex -3.40000000e-01 -1.80000000e-01 1.87500000e+00
      vertex -3.80161059e-01 -1.68258169e-01 1.84916815e+00
      vertex -3.66513637e-01 -1.94036632e-01 1.86125000e+00
    endloop
  endfacet
  facet normal -7.42668714e-01 5.69440775e-01 3.52392374e-01
    outer loop
      vertex -3.58196562e-01 -1.45628716e-01 1.85889087e+00
      vertex -3.65733825e-01 -1.31391665e-01 1.82000000e+00
      vertex -3.85814006e-01 -1.57580380e-01 1.82000000e+00
    endloop
  endfacet
  facet normal -7.42668714e-01 5.69440775e-01 3.52392374e-01
    outer loop
      vertex -3.58196562e-01 -1.45628716e-01 1.85889087e+00
      vertex -3.85814006e-01 -1.57580380e-01 1.82000000e+00
      vertex -3.80161059e-01 -1.68258169e-01 1.84916815e+00
    endloop
  endfacet
  facet normal -7.42668714e-01 5.69440775e-01 -3.52392374e-01
    outer loop
      vertex -3.65733825e-01 -1.31391665e-01 1.82000000e+00
      vertex -3.58196562e-01 -1.45628716e-01 1.78110913e+00
      vertex -3.80161059e-01 -1.68258169e-01 1.79083185e+00
    endloop
  endfacet
  facet normal -7.42668714e-01 5.69440775e-01 -3.52392374e-01
    outer loop
      vertex -3.65733825e-01 -1.31391665e-01 1.82000000e+00
      vertex -3.80161059e-01 -1.68258169e-01 1.79083185e+00
      vertex -3.85814006e-01 -1.57580380e-01 1.82000000e+00
    endloop
  endfacet
  facet normal -5.09493090e-01 1.28997931e-01 -8.50750448e-01
    outer loop
      vertex -3.58196562e-01 -1.45628716e-01 1.78110913e+00
      vertex -3.40000000e-01 -1.80000000e-01 1.76500000e+00
      vertex -3.66513637e-01 -1.94036632e-01 1.77875000e+00
    endloop
  endfacet
  facet normal -5.09493090e-01 1.28997931e-01 -8.50750448e-01
    outer loop
      vertex -3.58196562e-01 -1.45628716e-01 1.78110913e+00
      vertex -3.66513637e-01 -1.94036632e-01 1.77875000e+00
      vertex -3.80161059e-01 -1.68258169e-01 1.79083185e+00
    endloop
  endfacet
  facet normal -1.79732962e-01 -4.93882312e-01 -8.50750448e-01
    outer loop
      vertex -3.40000000e-01 -1.80000000e-01 1.76500000e+00
      vertex -3.21803438e-01 -2.14371284e-01 1.78110913e+00
      vertex -3.52866216e-01 -2.19815094e-01 1.79083185e+00
    endloop
  endfacet
  facet normal -1.79732962e-01 -4.93882312e-01 -8.50750448e-01
    outer loop
      vertex -3.40000000e-01 -1.80000000e-01 1.76500000e+00
      vertex -3.52866216e-01 -2.19815094e-01 1.79083185e+00
      vertex -3.66513637e-01 -1.94036632e-01 1.77875000e+00
    endloop
  endfacet
  facet normal 5.34426618e-02 -9.34325156e-01 -3.52392374e-01
    outer loop
      vertex -3.21803438e-01 -2.14371284e-01 1.78110913e+00
      vertex -3.14266175e-01 -2.28608335e-01 1.82000000e+00
      vertex -3.47213269e-01 -2.30492883e-01 1.82000000e+00
    endloop
  endfacet
  facet normal 5.34426618e-02 -9.34325156e-01 -3.52392374e-01
    outer loop
      vertex -3.21803438e-01 -2.14371284e-01 1.78110913e+00
      vertex -3.47213269e-01 -2.30492883e-01 1.82000000e+00
      vertex -3.52866216e-01 -2.19815094e-01 1.79083185e+00
    endloop
  endfacet
  facet normal -8.83787916e-01 -4.67887720e-01 0.00000000e+00
    outer loop
      vertex -3.40000000e-01 -1.80000000e-01 1.82000000e+00
      vertex -3.21803438e-01 -2.14371284e-01 1.85889087e+00
      vertex -3.40000000e-01 -1.80000000e-01 1.87500000e+00
    endloop
  endfacet
  facet normal 8.83787916e-01 4.67887720e-01 -0.00000000e+00
    outer loop
      vertex -3.66513637e-01 -1.94036632e-01 1.82000000e+00
      vertex -3.66513637e-01 -1.94036632e-01 1.86125000e+00
      vertex -3.52866216e-01 -2.19815094e-01 1.84916815e+00
    endloop
  endfacet
  facet normal -8.83787916e-01 -4.67887720e-01 0.00000000e+00
    outer loop
      vertex -3.40000000e-01 -1.80000000e-01 1.82000000e+00
      vertex -3.40000000e-01 -1.80000000e-01 1.87500000e+00
      vertex -3.58196562e-01 -1.45628716e-01 1.85889087e+00
    endloop
  endfacet
  facet normal 8.83787916e-01 4.67887720e-01 -0.00000000e+00
    outer loop
      vertex -3.66513637e-01 -1.94036632e-01 1.82000000e+00
      vertex -3.80161059e-01 -1.68258169e-01 1.84916815e+00
      vertex -3.66513637e-01 -1.94036632e-01 1.86125000e+00
    endloop
  endfacet
  facet normal -8.83787916e-01 -4.67887720e-01 0.00000000e+00
    outer loop
      vertex -3.40000000e-01 -1.80000000e-01 1.82000000e+00
      vertex -3.58196562e-01 -1.45628716e-01 1.85889087e+00
      vertex -3.65733825e-01 -1.31391665e-01 1.82000000e+00
    endloop
  endfacet
  facet normal 8.83787916e-01 4.67887720e-01 3.60443631e-16
    outer loop
      vertex -3.66513637e-01 -1.94036632e-01 1.82000000e+00
      vertex -3.85814006e-01 -1.57580380e-01 1.82000000e+00
      vertex -3.80161059e-01 -1.68258169e-01 1.84916815e+00
    endloop
  endfacet
  facet normal -8.83787916e-01 -4.67887720e-01 -3.54811700e-16
    outer loop
      vertex -3.40000000e-01 -1.80000000e-01 1.82000000e+00
      vertex -3.65733825e-01 -1.31391665e-01 1.82000000e+00
      vertex -3.58196562e-01 -1.45628716e-01 1.78110913e+00
    endloop
  endfacet
  facet normal 8.83787916e-01 4.67887720e-01 -3.60443631e-16
    outer loop
      vertex -3.66513637e-01 -1.94036632e-01 1.82000000e+00
      vertex -3.80161059e-01 -1.68258169e-01 1.79083185e+00
      vertex -3.85814006e-01 -1.57580380e-01 1.82000000e+00
    endloop
  endfacet
  facet normal -8.83787916e-01 -4.67887720e-01 -0.00000000e+00
    outer loop
      vertex -3.40000000e-01 -1.80000000e-01 1.82000000e+00
      vertex -3.58196562e-01 -1.45628716e-01 1.78110913e+00
      vertex -3.40000000e-01 -1.80000000e-01 1.76500000e+00
    endloop
  endfacet
  facet normal 8.83787916e-01 4.67887720e-01 0.00000000e+00
    outer loop
      vertex -3.66513637e-01 -1.94036632e-01 1.82000000e+00
      vertex -3.66513637e-01 -1.94036632e-01 1.77875000e+00
      vertex -3.80161059e-01 -1.68258169e-01 1.79083185e+00
    endloop
  endfacet
  facet normal -8.83787916e-01 -4.67887720e-01 -0.00000000e+00
    outer loop
      vertex -3.40000000e-01 -1.80000000e-01 1.82000000e+00
      vertex -3.40000000e-01 -1.80000000e-01 1.76500000e+00
      vertex -3.21803438e-01 -2.14371284e-01 1.78110913e+00
    endloop
  endfacet
  facet normal 8.83787916e-01 4.67887720e-01 0.00000000e+00
    outer loop
      vertex -3.66513637e-01 -1.94036632e-01 1.82000000e+00
      vertex -3.52866216e-01 -2.19815094e-01 1.79083185e+00
      vertex -3.66513637e-01 -1.94036632e-01 1.77875000e+00
    endloop
  endfacet
  facet normal -7.42668714e-01 -5.69440775e-01 3.52392374e-01
    outer loop
      vertex -3.65733825e-01 1.31391665e-01 1.82000000e+00
      vertex -3.58196562e-01 1.45628716e-01 1.85889087e+00
      vertex -3.80161059e-01 1.68258169e-01 1.84916815e+00
    endloop
  endfacet
  facet normal -7.42668714e-01 -5.69440775e-01 3.52392374e-01
    outer loop
      vertex -3.65733825e-01 1.31391665e-01 1.82000000e+00
      vertex -3.80161059e-01 1.68258169e-01 1.84916815e+00
      vertex -3.85814006e-01 1.57580380e-01 1.82000000e+00
    endloop
  endfacet
  facet normal -5.09493090e-01 -1.28997931e-01 8.50750448e-01
    outer loop
      vertex -3.58196562e-01 1.45628716e-01 1.85889087e+00
      vertex -3.40000000e-01 1.80000000e-01 1.87500000e+00
      vertex -3.66513637e-01 1.94036632e-01 1.86125000e+00
    endloop
  endfacet
  facet normal -5.09493090e-01 -1.28997931e-01 8.50750448e-01
    outer loop
      vertex -3.58196562e-01 1.45628716e-01 1.85889087e+00
      vertex -3.66513637e-01 1.94036632e-01 1.86125000e+00
      vertex -3.80161059e-01 1.68258169e-01 1.84916815e+00
    endloop
  endfacet
  facet normal -1.79732962e-01 4.93882312e-01 8.50750448e-01
    outer loop
      vertex -3.40000000e-01 1.80000000e-01 1.87500000e+00
      vertex -3.21803438e-01 2.14371284e-01 1.85889087e+00
      vertex -3.52866216e-01 2.19815094e-01 1.84916815e+00
    endloop
  endfacet
  facet normal -1.79732962e-01 4.93882312e-01 8.50750448e-01
    outer loop
      vertex -3.40000000e-01 1.80000000e-01 1.87500000e+00
      vertex -3.52866216e-01 2.19815094e-01 1.84916815e+00
      vertex -3.66513637e-01 1.94036632e-01 1.86125000e+00
    endloop
  endfacet
  facet normal 5.34426618e-02 9.34325156e-01 3.52392374e-01
    outer loop
      vertex -3.21803438e-01 2.14371284e-01 1.85889087e+00
      vertex -3.14266175e-01 2.28608335e-01 1.82000000e+00
      vertex -3.47213269e-01 2.30492883e-01 1.82000000e+00
    endloop
  endfacet
  facet normal 5.34426618e-02 9.34325156e-01 3.52392374e-01
    outer loop
      vertex -3.21803438e-01 2.14371284e-01 1.85889087e+00
      vertex -3.47213269e-01 2.30492883e-01 1.82000000e+00
      vertex -3.52866216e-01 2.19815094e-01 1.84916815e+00
    endloop
  endfacet
  facet normal 5.34426618e-02 9.34325156e-01 -3.52392374e-01
    outer loop
      vertex -3.14266175e-01 2.28608335e-01 1.82000000e+00
      vertex -3.21803438e-01 2.14371284e-01 1.78110913e+00
      vertex -3.52866216e-01 2.19815094e-01 1.79083185e+00
    endloop
  endfacet
  facet normal 5.34426618e-02 9.34325156e-01 -3.52392374e-01
    outer loop
      vertex -3.14266175e-01 2.28608335e-01 1.82000000e+00
      vertex -3.52866216e-01 2.19815094e-01 1.79083185e+00
      vertex -3.47213269e-01 2.30492883e-01 1.82000000e+00
    endloop
  endfacet
  facet normal -1.79732962e-01 4.93882312e-01 -8.50750448e-01
    outer loop
      vertex -3.21803438e-01 2.14371284e-01 1.78110913e+00
      vertex -3.40000000e-01 1.80000000e-01 1.76500000e+00
      vertex -3.66513637e-01 1.94036632e-01 1.77875000e+00
    endloop
  endfacet
  facet normal -1.79732962e-01 4.93882312e-01 -8.50750448e-01
    outer loop
      vertex -3.21803438e-01 2.14371284e-01 1.78110913e+00
      vertex -3.66513637e-01 1.94036632e-01 1.77875000e+00
      vertex -3.52866216e-01 2.19815094e-01 1.79083185e+00
    endloop
  endfacet
  facet normal -5.09493090e-01 -1.28997931e-01 -8.50750448e-01
    outer loop
      vertex -3.40000000e-01 1.80000000e-01 1.76500000e+00
      vertex -3.58196562e-01 1.45628716e-01 1.78110913e+00
      vertex -3.80161059e-01 1.68258169e-01 1.79083185e+00
    endloop
  endfacet
  facet normal -5.09493090e-01 -1.28997931e-01 -8.50750448e-01
    outer loop
      vertex -3.40000000e-01 1.80000000e-01 1.76500000e+00
      vertex -3.80161059e-01 1.68258169e-01 1.79083185e+00
      vertex -3.66513637e-01 1.94036632e-01 1.77875000e+00
    endloop
  endfacet
  facet normal -7.42668714e-01 -5.69440775e-01 -3.52392374e-01
    outer loop
      vertex -3.58196562e-01 1.45628716e-01 1.78110913e+00
      vertex -3.65733825e-01 1.31391665e-01 1.82000000e+00
      vertex -3.85814006e-01 1.57580380e-01 1.82000000e+00
    endloop
  endfacet
  facet normal -7.42668714e-01 -5.69440775e-01 -3.52392374e-01
    outer loop
      vertex -3.58196562e-01 1.45628716e-01 1.78110913e+00
      vertex -3.85814006e-01 1.57580380e-01 1.82000000e+00
      vertex -3.80161059e-01 1.68258169e-01 1.79083185e+00
    endloop
  endfacet
  facet normal -8.83787916e-01 4.67887720e-01 0.00000000e+00
    outer loop
      vertex -3.40000000e-01 1.80000000e-01 1.82000000e+00
      vertex -3.58196562e-01 1.45628716e-01 1.85889087e+00
      vertex -3.40000000e-01 1.80000000e-01 1.87500000e+00
    endloop
  endfacet
  facet normal 8.83787916e-01 -4.67887720e-01 0.00000000e+00
    outer loop
      vertex -3.66513637e-01 1.94036632e-01 1.82000000e+00
      vertex -3.66513637e-01 1.94036632e-01 1.86125000e+00
      vertex -3.80161059e-01 1.68258169e-01 1.84916815e+00
    endloop
  endfacet
  facet normal -8.83787916e-01 4.67887720e-01 0.00000000e+00
    outer loop
      vertex -3.40000000e-01 1.80000000e-01 1.82000000e+00
      vertex -3.40000000e-01 1.80000000e-01 1.87500000e+00
      vertex -3.21803438e-01 2.14371284e-01 1.85889087e+00
    endloop
  endfacet
  facet normal 8.83787916e-01 -4.67887720e-01 0.00000000e+00
    outer loop
      vertex -3.66513637e-01 1.94036632e-01 1.82000000e+00
      vertex -3.52866216e-01 2.19815094e-01 1.84916815e+00
      vertex -3.66513637e-01 1.94036632e-01 1.86125000e+00
    endloop
  endfacet
  facet normal -8.83787916e-01 4.67887720e-01 0.00000000e+00
    outer loop
      vertex -3.40000000e-01 1.80000000e-01 1.82000000e+00
      vertex -3.21803438e-01 2.14371284e-01 1.85889087e+00
      vertex -3.14266175e-01 2.28608335e-01 1.82000000e+00
    endloop
  endfacet
  facet normal 8.83787916e-01 -4.67887720e-01 -3.60443631e-16
    outer loop
      vertex -3.66513637e-01 1.94036632e-01 1.82000000e+00
      vertex -3.47213269e-01 2.30492883e-01 1.82000000e+00
      vertex -3.52866216e-01 2.19815094e-01 1.84916815e+00
    endloop
  endfacet
  facet normal -8.83787916e-01 4.67887720e-01 3.54811700e-16
    outer loop
      vertex -3.40000000e-01 1.80000000e-01 1.82000000e+00
      vertex -3.14266175e-01 2.28608335e-01 1.82000000e+00
      vertex -3.21803438e-01 2.14371284e-01 1.78110913e+00
    endloop
  endfacet
  facet normal 8.83787916e-01 -4.67887720e-01 3.60443631e-16
    outer loop
      vertex -3.66513637e-01 1.94036632e-01 1.82000000e+00
      vertex -3.52866216e-01 2.19815094e-01 1.79083185e+00
      vertex -3.47213269e-01 2.30492883e-01 1.82000000e+00
    endloop
  endfacet
  facet normal -8.83787916e-01 4.67887720e-01 0.00000000e+00
    outer loop
      vertex -3.40000000e-01 1.80000000e-01 1.82000000e+00
      vertex -3.21803438e-01 2.14371284e-01 1.78110913e+00
      vertex -3.40000000e-01 1.80000000e-01 1.76500000e+00
    endloop
  endfacet
  facet normal 8.83787916e-01 -4.67887720e-01 0.00000000e+00
    outer loop
      vertex -3.66513637e-01 1.94036632e-01 1.82000000e+00
      vertex -3.66513637e-01 1.94036632e-01 1.77875000e+00
      vertex -3.52866216e-01 2.19815094e-01 1.79083185e+00
    endloop
  endfacet
  facet normal -8.83787916e-01 4.67887720e-01 0.00000000e+00
    outer loop
      vertex -3.40000000e-01 1.80000000e-01 1.82000000e+00
      vertex -3.40000000e-01 1.80000000e-01 1.76500000e+00
      vertex -3.58196562e-01 1.45628716e-01 1.78110913e+00
    endloop
  endfacet
  facet normal 8.83787916e-01 -4.67887720e-01 0.00000000e+00
    outer loop
      vertex -3.66513637e-01 1.94036632e-01 1.82000000e+00
      vertex -3.80161059e-01 1.68258169e-01 1.79083185e+00
      vertex -3.66513637e-01 1.94036632e-01 1.77875000e+00
    endloop
  endfacet
endsolid glce_lowpoly_penguin
