solid glce_lowpoly_whale
  facet normal 1.28406232e-01 8.60158656e-02 9.87984367e-01
    outer loop
      vertex -3.50000000e-01 0.00000000e+00 8.30000000e-01
      vertex 5.02288616e-01 0.00000000e+00 7.19229857e-01
      vertex 3.88103593e-01 1.70457723e-01 7.19229857e-01
    endloop
  endfacet
  facet normal 9.21667639e-02 2.30416910e-01 9.68717366e-01
    outer loop
      vertex -3.50000000e-01 0.00000000e+00 8.30000000e-01
      vertex 3.88103593e-01 1.70457723e-01 7.19229857e-01
      vertex 7.61443079e-02 2.95241437e-01 7.19229857e-01
    endloop
  endfacet
  facet normal 3.31021908e-02 3.08847645e-01 9.50535311e-01
    outer loop
      vertex -3.50000000e-01 0.00000000e+00 8.30000000e-01
      vertex 7.61443079e-02 2.95241437e-01 7.19229857e-01
      vertex -3.50000000e-01 3.40915446e-01 7.19229857e-01
    endloop
  endfacet
  facet normal -3.31021908e-02 3.08847645e-01 9.50535311e-01
    outer loop
      vertex -3.50000000e-01 0.00000000e+00 8.30000000e-01
      vertex -3.50000000e-01 3.40915446e-01 7.19229857e-01
      vertex -7.76144308e-01 2.95241437e-01 7.19229857e-01
    endloop
  endfacet
  facet normal -9.21667639e-02 2.30416910e-01 9.68717366e-01
    outer loop
      vertex -3.50000000e-01 0.00000000e+00 8.30000000e-01
      vertex -7.76144308e-01 2.95241437e-01 7.19229857e-01
      vertex -1.08810359e+00 1.70457723e-01 7.19229857e-01
    endloop
  endfacet
  facet normal -1.28406232e-01 8.60158656e-02 9.87984367e-01
    outer loop
      vertex -3.50000000e-01 0.00000000e+00 8.30000000e-01
      vertex -1.08810359e+00 1.70457723e-01 7.19229857e-01
      vertex -1.20228862e+00 4.17501010e-17 7.19229857e-01
    endloop
  endfacet
  facet normal -1.28406232e-01 -8.60158656e-02 9.87984367e-01
    outer loop
      vertex -3.50000000e-01 0.00000000e+00 8.30000000e-01
      vertex -1.20228862e+00 4.17501010e-17 7.19229857e-01
      vertex -1.08810359e+00 -1.70457723e-01 7.19229857e-01
    endloop
  endfacet
  facet normal -9.21667639e-02 -2.30416910e-01 9.68717366e-01
    outer loop
      vertex -3.50000000e-01 0.00000000e+00 8.30000000e-01
      vertex -1.08810359e+00 -1.70457723e-01 7.19229857e-01
      vertex -7.76144308e-01 -2.95241437e-01 7.19229857e-01
    endloop
  endfacet
  facet normal -3.31021908e-02 -3.08847645e-01 9.50535311e-01
    outer loop
      vertex -3.50000000e-01 0.00000000e+00 8.30000000e-01
      vertex -7.76144308e-01 -2.95241437e-01 7.19229857e-01
      vertex -3.50000000e-01 -3.40915446e-01 7.19229857e-01
    endloop
  endfacet
  facet normal 3.31021908e-02 -3.08847645e-01 9.50535311e-01
    outer loop
      vertex -3.50000000e-01 0.00000000e+00 8.30000000e-01
      vertex -3.50000000e-01 -3.40915446e-01 7.19229857e-01
      vertex 7.61443079e-02 -2.95241437e-01 7.19229857e-01
    endloop
  endfacet
  facet normal 9.21667639e-02 -2.30416910e-01 9.68717366e-01
    outer loop
      vertex -3.50000000e-01 0.00000000e+00 8.30000000e-01
      vertex 7.61443079e-02 -2.95241437e-01 7.19229857e-01
      vertex 3.88103593e-01 -1.70457723e-01 7.19229857e-01
    endloop
  endfacet
  facet normal 1.28406232e-01 -8.60158656e-02 9.87984367e-01
    outer loop
      vertex -3.50000000e-01 0.00000000e+00 8.30000000e-01
      vertex 3.88103593e-01 -1.70457723e-01 7.19229857e-01
      vertex 5.02288616e-01 0.00000000e+00 7.19229857e-01
    endloop
  endfacet
  facet normal 4.58933889e-01 3.07427413e-01 8.33587471e-01
    outer loop
      vertex 5.02288616e-01 0.00000000e+00 7.19229857e-01
      vertex 1.02903195e+00 0.00000000e+00 4.29229857e-01
      vertex 8.44276700e-01 2.75806390e-01 4.29229857e-01
    endloop
  endfacet
  facet normal 4.58933889e-01 3.07427413e-01 8.33587471e-01
    outer loop
      vertex 5.02288616e-01 0.00000000e+00 7.19229857e-01
      vertex 8.44276700e-01 2.75806390e-01 4.29229857e-01
      vertex 3.88103593e-01 1.70457723e-01 7.19229857e-01
    endloop
  endfacet
  facet normal 2.73115005e-01 6.82787514e-01 6.77649913e-01
    outer loop
      vertex 3.88103593e-01 1.70457723e-01 7.19229857e-01
      vertex 8.44276700e-01 2.75806390e-01 4.29229857e-01
      vertex 3.39515974e-01 4.77710680e-01 4.29229857e-01
    endloop
  endfacet
  facet normal 2.73115005e-01 6.82787514e-01 6.77649913e-01
    outer loop
      vertex 3.88103593e-01 1.70457723e-01 7.19229857e-01
      vertex 3.39515974e-01 4.77710680e-01 4.29229857e-01
      vertex 7.61443079e-02 2.95241437e-01 7.19229857e-01
    endloop
  endfacet
  facet normal 8.63860349e-02 8.05992678e-01 5.85587958e-01
    outer loop
      vertex 7.61443079e-02 2.95241437e-01 7.19229857e-01
      vertex 3.39515974e-01 4.77710680e-01 4.29229857e-01
      vertex -3.50000000e-01 5.51612779e-01 4.29229857e-01
    endloop
  endfacet
  facet normal 8.63860349e-02 8.05992678e-01 5.85587958e-01
    outer loop
      vertex 7.61443079e-02 2.95241437e-01 7.19229857e-01
      vertex -3.50000000e-01 5.51612779e-01 4.29229857e-01
      vertex -3.50000000e-01 3.40915446e-01 7.19229857e-01
    endloop
  endfacet
  facet normal -8.63860349e-02 8.05992678e-01 5.85587958e-01
    outer loop
      vertex -3.50000000e-01 3.40915446e-01 7.19229857e-01
      vertex -3.50000000e-01 5.51612779e-01 4.29229857e-01
      vertex -1.03951597e+00 4.77710680e-01 4.29229857e-01
    endloop
  endfacet
  facet normal -8.63860349e-02 8.05992678e-01 5.85587958e-01
    outer loop
      vertex -3.50000000e-01 3.40915446e-01 7.19229857e-01
      vertex -1.03951597e+00 4.77710680e-01 4.29229857e-01
      vertex -7.76144308e-01 2.95241437e-01 7.19229857e-01
    endloop
  endfacet
  facet normal -2.73115005e-01 6.82787514e-01 6.77649913e-01
    outer loop
      vertex -7.76144308e-01 2.95241437e-01 7.19229857e-01
      vertex -1.03951597e+00 4.77710680e-01 4.29229857e-01
      vertex -1.54427670e+00 2.75806390e-01 4.29229857e-01
    endloop
  endfacet
  facet normal -2.73115005e-01 6.82787514e-01 6.77649913e-01
    outer loop
      vertex -7.76144308e-01 2.95241437e-01 7.19229857e-01
      vertex -1.54427670e+00 2.75806390e-01 4.29229857e-01
      vertex -1.08810359e+00 1.70457723e-01 7.19229857e-01
    endloop
  endfacet
  facet normal -4.58933889e-01 3.07427413e-01 8.33587471e-01
    outer loop
      vertex -1.08810359e+00 1.70457723e-01 7.19229857e-01
      vertex -1.54427670e+00 2.75806390e-01 4.29229857e-01
      vertex -1.72903195e+00 6.75530825e-17 4.29229857e-01
    endloop
  endfacet
  facet normal -4.58933889e-01 3.07427413e-01 8.33587471e-01
    outer loop
      vertex -1.08810359e+00 1.70457723e-01 7.19229857e-01
      vertex -1.72903195e+00 6.75530825e-17 4.29229857e-01
      vertex -1.20228862e+00 4.17501010e-17 7.19229857e-01
    endloop
  endfacet
  facet normal -4.58933889e-01 -3.07427413e-01 8.33587471e-01
    outer loop
      vertex -1.20228862e+00 4.17501010e-17 7.19229857e-01
      vertex -1.72903195e+00 6.75530825e-17 4.29229857e-01
      vertex -1.54427670e+00 -2.75806390e-01 4.29229857e-01
    endloop
  endfacet
  facet normal -4.58933889e-01 -3.07427413e-01 8.33587471e-01
    outer loop
      vertex -1.20228862e+00 4.17501010e-17 7.19229857e-01
      vertex -1.54427670e+00 -2.75806390e-01 4.29229857e-01
      vertex -1.08810359e+00 -1.70457723e-01 7.19229857e-01
    endloop
  endfacet
  facet normal -2.73115005e-01 -6.82787514e-01 6.77649913e-01
    outer loop
      vertex -1.08810359e+00 -1.70457723e-01 7.19229857e-01
      vertex -1.54427670e+00 -2.75806390e-01 4.29229857e-01
      vertex -1.03951597e+00 -4.77710680e-01 4.29229857e-01
    endloop
  endfacet
  facet normal -2.73115005e-01 -6.82787514e-01 6.77649913e-01
    outer loop
      vertex -1.08810359e+00 -1.70457723e-01 7.19229857e-01
      vertex -1.03951597e+00 -4.77710680e-01 4.29229857e-01
      vertex -7.76144308e-01 -2.95241437e-01 7.19229857e-01
    endloop
  endfacet
  facet normal -8.63860349e-02 -8.05992678e-01 5.85587958e-01
    outer loop
      vertex -7.76144308e-01 -2.95241437e-01 7.19229857e-01
      vertex -1.03951597e+00 -4.77710680e-01 4.29229857e-01
      vertex -3.50000000e-01 -5.51612779e-01 4.29229857e-01
    endloop
  endfacet
  facet normal -8.63860349e-02 -8.05992678e-01 5.85587958e-01
    outer loop
      vertex -7.76144308e-01 -2.95241437e-01 7.19229857e-01
      vertex -3.50000000e-01 -5.51612779e-01 4.29229857e-01
      vertex -3.50000000e-01 -3.40915446e-01 7.19229857e-01
    endloop
  endfacet
  facet normal 8.63860349e-02 -8.05992678e-01 5.85587958e-01
    outer loop
      vertex -3.50000000e-01 -3.40915446e-01 7.19229857e-01
      vertex -3.50000000e-01 -5.51612779e-01 4.29229857e-01
      vertex 3.39515974e-01 -4.77710680e-01 4.29229857e-01
    endloop
  endfacet
  facet normal 8.63860349e-02 -8.05992678e-01 5.85587958e-01
    outer loop
      vertex -3.50000000e-01 -3.40915446e-01 7.19229857e-01
      vertex 3.39515974e-01 -4.77710680e-01 4.29229857e-01
      vertex 7.61443079e-02 -2.95241437e-01 7.19229857e-01
    endloop
  endfacet
  facet normal 2.73115005e-01 -6.82787514e-01 6.77649913e-01
    outer loop
      vertex 7.61443079e-02 -2.95241437e-01 7.19229857e-01
      vertex 3.39515974e-01 -4.77710680e-01 4.29229857e-01
      vertex 8.44276700e-01 -2.75806390e-01 4.29229857e-01
    endloop
  endfacet
  facet normal 2.73115005e-01 -6.82787514e-01 6.77649913e-01
    outer loop
      vertex 7.61443079e-02 -2.95241437e-01 7.19229857e-01
      vertex 8.44276700e-01 -2.75806390e-01 4.29229857e-01
      vertex 3.88103593e-01 -1.70457723e-01 7.19229857e-01
    endloop
  endfacet
  facet normal 4.58933889e-01 -3.07427413e-01 8.33587471e-01
    outer loop
      vertex 3.88103593e-01 -1.70457723e-01 7.19229857e-01
      vertex 8.44276700e-01 -2.75806390e-01 4.29229857e-01
      vertex 1.02903195e+00 0.00000000e+00 4.29229857e-01
    endloop
  endfacet
  facet normal 4.58933889e-01 -3.07427413e-01 8.33587471e-01
    outer loop
      vertex 3.88103593e-01 -1.70457723e-01 7.19229857e-01
      vertex 1.02903195e+00 0.00000000e+00 4.29229857e-01
      vertex 5.02288616e-01 0.00000000e+00 7.19229857e-01
    endloop
  endfacet
  facet normal 8.30818774e-01 5.56543049e-01 1.02928625e-15
    outer loop
      vertex 1.02903195e+00 0.00000000e+00 4.29229857e-01
      vertex 1.02903195e+00 0.00000000e+00 7.07701433e-02
      vertex 8.44276700e-01 2.75806390e-01 7.07701433e-02
    endloop
  endfacet
  facet normal 8.30818774e-01 5.56543049e-01 5.24800671e-16
    outer loop
      vertex 1.02903195e+00 0.00000000e+00 4.29229857e-01
      vertex 8.44276700e-01 2.75806390e-01 7.07701433e-02
      vertex 8.44276700e-01 2.75806390e-01 4.29229857e-01
    endloop
  endfacet
  facet normal 3.71390676e-01 9.28476691e-01 2.30054572e-16
    outer loop
      vertex 8.44276700e-01 2.75806390e-01 4.29229857e-01
      vertex 8.44276700e-01 2.75806390e-01 7.07701433e-02
      vertex 3.39515974e-01 4.77710680e-01 7.07701433e-02
    endloop
  endfacet
  facet normal 3.71390676e-01 9.28476691e-01 7.12139932e-17
    outer loop
      vertex 8.44276700e-01 2.75806390e-01 4.29229857e-01
      vertex 3.39515974e-01 4.77710680e-01 7.07701433e-02
      vertex 3.39515974e-01 4.77710680e-01 4.29229857e-01
    endloop
  endfacet
  facet normal 1.06569318e-01 9.94305275e-01 3.30066968e-17
    outer loop
      vertex 3.39515974e-01 4.77710680e-01 4.29229857e-01
      vertex 3.39515974e-01 4.77710680e-01 7.07701433e-02
      vertex -3.50000000e-01 5.51612779e-01 7.07701433e-02
    endloop
  endfacet
  facet normal 1.06569318e-01 9.94305275e-01 0.00000000e+00
    outer loop
      vertex 3.39515974e-01 4.77710680e-01 4.29229857e-01
      vertex -3.50000000e-01 5.51612779e-01 7.07701433e-02
      vertex -3.50000000e-01 5.51612779e-01 4.29229857e-01
    endloop
  endfacet
  facet normal -1.06569318e-01 9.94305275e-01 0.00000000e+00
    outer loop
      vertex -3.50000000e-01 5.51612779e-01 4.29229857e-01
      vertex -3.50000000e-01 5.51612779e-01 7.07701433e-02
      vertex -1.03951597e+00 4.77710680e-01 7.07701433e-02
    endloop
  endfacet
  facet normal -1.06569318e-01 9.94305275e-01 5.58284154e-17
    outer loop
      vertex -3.50000000e-01 5.51612779e-01 4.29229857e-01
      vertex -1.03951597e+00 4.77710680e-01 7.07701433e-02
      vertex -1.03951597e+00 4.77710680e-01 4.29229857e-01
    endloop
  endfacet
  facet normal -3.71390676e-01 9.28476691e-01 2.30054572e-16
    outer loop
      vertex -1.03951597e+00 4.77710680e-01 4.29229857e-01
      vertex -1.03951597e+00 4.77710680e-01 7.07701433e-02
      vertex -1.54427670e+00 2.75806390e-01 7.07701433e-02
    endloop
  endfacet
  facet normal -3.71390676e-01 9.28476691e-01 4.98497952e-16
    outer loop
      vertex -1.03951597e+00 4.77710680e-01 4.29229857e-01
      vertex -1.54427670e+00 2.75806390e-01 7.07701433e-02
      vertex -1.54427670e+00 2.75806390e-01 4.29229857e-01
    endloop
  endfacet
  facet normal -8.30818774e-01 5.56543049e-01 1.02928625e-15
    outer loop
      vertex -1.54427670e+00 2.75806390e-01 4.29229857e-01
      vertex -1.54427670e+00 2.75806390e-01 7.07701433e-02
      vertex -1.72903195e+00 6.75530825e-17 7.07701433e-02
    endloop
  endfacet
  facet normal -8.30818774e-01 5.56543049e-01 0.00000000e+00
    outer loop
      vertex -1.54427670e+00 2.75806390e-01 4.29229857e-01
      vertex -1.72903195e+00 6.75530825e-17 7.07701433e-02
      vertex -1.72903195e+00 6.75530825e-17 4.29229857e-01
    endloop
  endfacet
  facet normal -8.30818774e-01 -5.56543049e-01 -0.00000000e+00
    outer loop
      vertex -1.72903195e+00 6.75530825e-17 4.29229857e-01
      vertex -1.72903195e+00 6.75530825e-17 7.07701433e-02
      vertex -1.54427670e+00 -2.75806390e-01 7.07701433e-02
    endloop
  endfacet
  facet normal -8.30818774e-01 -5.56543049e-01 0.00000000e+00
    outer loop
      vertex -1.72903195e+00 6.75530825e-17 4.29229857e-01
      vertex -1.54427670e+00 -2.75806390e-01 7.07701433e-02
      vertex -1.54427670e+00 -2.75806390e-01 4.29229857e-01
    endloop
  endfacet
  facet normal -3.71390676e-01 -9.28476691e-01 -0.00000000e+00
    outer loop
      vertex -1.54427670e+00 -2.75806390e-01 4.29229857e-01
      vertex -1.54427670e+00 -2.75806390e-01 7.07701433e-02
      vertex -1.03951597e+00 -4.77710680e-01 7.07701433e-02
    endloop
  endfacet
  facet normal -3.71390676e-01 -9.28476691e-01 0.00000000e+00
    outer loop
      vertex -1.54427670e+00 -2.75806390e-01 4.29229857e-01
      vertex -1.03951597e+00 -4.77710680e-01 7.07701433e-02
      vertex -1.03951597e+00 -4.77710680e-01 4.29229857e-01
    endloop
  endfacet
  facet normal -1.06569318e-01 -9.94305275e-01 -0.00000000e+00
    outer loop
      vertex -1.03951597e+00 -4.77710680e-01 4.29229857e-01
      vertex -1.03951597e+00 -4.77710680e-01 7.07701433e-02
      vertex -3.50000000e-01 -5.51612779e-01 7.07701433e-02
    endloop
  endfacet
  facet normal -1.06569318e-01 -9.94305275e-01 0.00000000e+00
    outer loop
      vertex -1.03951597e+00 -4.77710680e-01 4.29229857e-01
      vertex -3.50000000e-01 -5.51612779e-01 7.07701433e-02
      vertex -3.50000000e-01 -5.51612779e-01 4.29229857e-01
    endloop
  endfacet
  facet normal 1.06569318e-01 -9.94305275e-01 0.00000000e+00
    outer loop
      vertex -3.50000000e-01 -5.51612779e-01 4.29229857e-01
      vertex -3.50000000e-01 -5.51612779e-01 7.07701433e-02
      vertex 3.39515974e-01 -4.77710680e-01 7.07701433e-02
    endloop
  endfacet
  facet normal 1.06569318e-01 -9.94305275e-01 0.00000000e+00
    outer loop
      vertex -3.50000000e-01 -5.51612779e-01 4.29229857e-01
      vertex 3.39515974e-01 -4.77710680e-01 7.07701433e-02
      vertex 3.39515974e-01 -4.77710680e-01 4.29229857e-01
    endloop
  endfacet
  facet normal 3.71390676e-01 -9.28476691e-01 1.15027286e-16
    outer loop
      vertex 3.39515974e-01 -4.77710680e-01 4.29229857e-01
      vertex 3.39515974e-01 -4.77710680e-01 7.07701433e-02
      vertex 8.44276700e-01 -2.75806390e-01 7.07701433e-02
    endloop
  endfacet
  facet normal 3.71390676e-01 -9.28476691e-01 2.13641980e-16
    outer loop
      vertex 3.39515974e-01 -4.77710680e-01 4.29229857e-01
      vertex 8.44276700e-01 -2.75806390e-01 7.07701433e-02
      vertex 8.44276700e-01 -2.75806390e-01 4.29229857e-01
    endloop
  endfacet
  facet normal 8.30818774e-01 -5.56543049e-01 5.14643123e-16
    outer loop
      vertex 8.44276700e-01 -2.75806390e-01 4.29229857e-01
      vertex 8.44276700e-01 -2.75806390e-01 7.07701433e-02
      vertex 1.02903195e+00 0.00000000e+00 7.07701433e-02
    endloop
  endfacet
  facet normal 8.30818774e-01 -5.56543049e-01 9.91290156e-16
    outer loop
      vertex 8.44276700e-01 -2.75806390e-01 4.29229857e-01
      vertex 1.02903195e+00 0.00000000e+00 7.07701433e-02
      vertex 1.02903195e+00 0.00000000e+00 4.29229857e-01
    endloop
  endfacet
  facet normal 4.58933889e-01 3.07427413e-01 -8.33587471e-01
    outer loop
      vertex 1.02903195e+00 0.00000000e+00 7.07701433e-02
      vertex 5.02288616e-01 0.00000000e+00 -2.19229857e-01
      vertex 3.88103593e-01 1.70457723e-01 -2.19229857e-01
    endloop
  endfacet
  facet normal 4.58933889e-01 3.07427413e-01 -8.33587471e-01
    outer loop
      vertex 1.02903195e+00 0.00000000e+00 7.07701433e-02
      vertex 3.88103593e-01 1.70457723e-01 -2.19229857e-01
      vertex 8.44276700e-01 2.75806390e-01 7.07701433e-02
    endloop
  endfacet
  facet normal 2.73115005e-01 6.82787514e-01 -6.77649913e-01
    outer loop
      vertex 8.44276700e-01 2.75806390e-01 7.07701433e-02
      vertex 3.88103593e-01 1.70457723e-01 -2.19229857e-01
      vertex 7.61443079e-02 2.95241437e-01 -2.19229857e-01
    endloop
  endfacet
  facet normal 2.73115005e-01 6.82787514e-01 -6.77649913e-01
    outer loop
      vertex 8.44276700e-01 2.75806390e-01 7.07701433e-02
      vertex 7.61443079e-02 2.95241437e-01 -2.19229857e-01
      vertex 3.39515974e-01 4.77710680e-01 7.07701433e-02
    endloop
  endfacet
  facet normal 8.63860349e-02 8.05992678e-01 -5.85587958e-01
    outer loop
      vertex 3.39515974e-01 4.77710680e-01 7.07701433e-02
      vertex 7.61443079e-02 2.95241437e-01 -2.19229857e-01
      vertex -3.50000000e-01 3.40915446e-01 -2.19229857e-01
    endloop
  endfacet
  facet normal 8.63860349e-02 8.05992678e-01 -5.85587958e-01
    outer loop
      vertex 3.39515974e-01 4.77710680e-01 7.07701433e-02
      vertex -3.50000000e-01 3.40915446e-01 -2.19229857e-01
      vertex -3.50000000e-01 5.51612779e-01 7.07701433e-02
    endloop
  endfacet
  facet normal -8.63860349e-02 8.05992678e-01 -5.85587958e-01
    outer loop
      vertex -3.50000000e-01 5.51612779e-01 7.07701433e-02
      vertex -3.50000000e-01 3.40915446e-01 -2.19229857e-01
      vertex -7.76144308e-01 2.95241437e-01 -2.19229857e-01
    endloop
  endfacet
  facet normal -8.63860349e-02 8.05992678e-01 -5.85587958e-01
    outer loop
      vertex -3.50000000e-01 5.51612779e-01 7.07701433e-02
      vertex -7.76144308e-01 2.95241437e-01 -2.19229857e-01
      vertex -1.03951597e+00 4.77710680e-01 7.07701433e-02
    endloop
  endfacet
  facet normal -2.73115005e-01 6.82787514e-01 -6.77649913e-01
    outer loop
      vertex -1.03951597e+00 4.77710680e-01 7.07701433e-02
      vertex -7.76144308e-01 2.95241437e-01 -2.19229857e-01
      vertex -1.08810359e+00 1.70457723e-01 -2.19229857e-01
    endloop
  endfacet
  facet normal -2.73115005e-01 6.82787514e-01 -6.77649913e-01
    outer loop
      vertex -1.03951597e+00 4.77710680e-01 7.07701433e-02
      vertex -1.08810359e+00 1.70457723e-01 -2.19229857e-01
      vertex -1.54427670e+00 2.75806390e-01 7.07701433e-02
    endloop
  endfacet
  facet normal -4.58933889e-01 3.07427413e-01 -8.33587471e-01
    outer loop
      vertex -1.54427670e+00 2.75806390e-01 7.07701433e-02
      vertex -1.08810359e+00 1.70457723e-01 -2.19229857e-01
      vertex -1.20228862e+00 4.17501010e-17 -2.19229857e-01
    endloop
  endfacet
  facet normal -4.58933889e-01 3.07427413e-01 -8.33587471e-01
    outer loop
      vertex -1.54427670e+00 2.75806390e-01 7.07701433e-02
      vertex -1.20228862e+00 4.17501010e-17 -2.19229857e-01
      vertex -1.72903195e+00 6.75530825e-17 7.07701433e-02
    endloop
  endfacet
  facet normal -4.58933889e-01 -3.07427413e-01 -8.33587471e-01
    outer loop
      vertex -1.72903195e+00 6.75530825e-17 7.07701433e-02
      vertex -1.20228862e+00 4.17501010e-17 -2.19229857e-01
      vertex -1.08810359e+00 -1.70457723e-01 -2.19229857e-01
    endloop
  endfacet
  facet normal -4.58933889e-01 -3.07427413e-01 -8.33587471e-01
    outer loop
      vertex -1.72903195e+00 6.75530825e-17 7.07701433e-02
      vertex -1.08810359e+00 -1.70457723e-01 -2.19229857e-01
      vertex -1.54427670e+00 -2.75806390e-01 7.07701433e-02
    endloop
  endfacet
  facet normal -2.73115005e-01 -6.82787514e-01 -6.77649913e-01
    outer loop
      vertex -1.54427670e+00 -2.75806390e-01 7.07701433e-02
      vertex -1.08810359e+00 -1.70457723e-01 -2.19229857e-01
      vertex -7.76144308e-01 -2.95241437e-01 -2.19229857e-01
    endloop
  endfacet
  facet normal -2.73115005e-01 -6.82787514e-01 -6.77649913e-01
    outer loop
      vertex -1.54427670e+00 -2.75806390e-01 7.07701433e-02
      vertex -7.76144308e-01 -2.95241437e-01 -2.19229857e-01
      vertex -1.03951597e+00 -4.77710680e-01 7.07701433e-02
    endloop
  endfacet
  facet normal -8.63860349e-02 -8.05992678e-01 -5.85587958e-01
    outer loop
      vertex -1.03951597e+00 -4.77710680e-01 7.07701433e-02
      vertex -7.76144308e-01 -2.95241437e-01 -2.19229857e-01
      vertex -3.50000000e-01 -3.40915446e-01 -2.19229857e-01
    endloop
  endfacet
  facet normal -8.63860349e-02 -8.05992678e-01 -5.85587958e-01
    outer loop
      vertex -1.03951597e+00 -4.77710680e-01 7.07701433e-02
      vertex -3.50000000e-01 -3.40915446e-01 -2.19229857e-01
      vertex -3.50000000e-01 -5.51612779e-01 7.07701433e-02
    endloop
  endfacet
  facet normal 8.63860349e-02 -8.05992678e-01 -5.85587958e-01
    outer loop
      vertex -3.50000000e-01 -5.51612779e-01 7.07701433e-02
      vertex -3.50000000e-01 -3.40915446e-01 -2.19229857e-01
      vertex 7.61443079e-02 -2.95241437e-01 -2.19229857e-01
    endloop
  endfacet
  facet normal 8.63860349e-02 -8.05992678e-01 -5.85587958e-01
    outer loop
      vertex -3.50000000e-01 -5.51612779e-01 7.07701433e-02
      vertex 7.61443079e-02 -2.95241437e-01 -2.19229857e-01
      vertex 3.39515974e-01 -4.77710680e-01 7.07701433e-02
    endloop
  endfacet
  facet normal 2.73115005e-01 -6.82787514e-01 -6.77649913e-01
    outer loop
      vertex 3.39515974e-01 -4.77710680e-01 7.07701433e-02
      vertex 7.61443079e-02 -2.95241437e-01 -2.19229857e-01
      vertex 3.88103593e-01 -1.70457723e-01 -2.19229857e-01
    endloop
  endfacet
  facet normal 2.73115005e-01 -6.82787514e-01 -6.77649913e-01
    outer loop
      vertex 3.39515974e-01 -4.77710680e-01 7.07701433e-02
      vertex 3.88103593e-01 -1.70457723e-01 -2.19229857e-01
      vertex 8.44276700e-01 -2.75806390e-01 7.07701433e-02
    endloop
  endfacet
  facet normal 4.58933889e-01 -3.07427413e-01 -8.33587471e-01
    outer loop
      vertex 8.44276700e-01 -2.75806390e-01 7.07701433e-02
      vertex 3.88103593e-01 -1.70457723e-01 -2.19229857e-01
      vertex 5.02288616e-01 0.00000000e+00 -2.19229857e-01
    endloop
  endfacet
  facet normal 4.58933889e-01 -3.07427413e-01 -8.33587471e-01
    outer loop
      vertex 8.44276700e-01 -2.75806390e-01 7.07701433e-02
      vertex 5.02288616e-01 0.00000000e+00 -2.19229857e-01
      vertex 1.02903195e+00 0.00000000e+00 7.07701433e-02
    endloop
  endfacet
  facet normal 1.28406232e-01 8.60158656e-02 -9.87984367e-01
    outer loop
      vertex -3.50000000e-01 0.00000000e+00 -3.30000000e-01
      vertex 3.88103593e-01 1.70457723e-01 -2.19229857e-01
      vertex 5.02288616e-01 0.00000000e+00 -2.19229857e-01
    endloop
  endfacet
  facet normal 9.21667639e-02 2.30416910e-01 -9.68717366e-01
    outer loop
      vertex -3.50000000e-01 3.55147572e-17 -3.30000000e-01
      vertex 7.61443079e-02 2.95241437e-01 -2.19229857e-01
      vertex 3.88103593e-01 1.70457723e-01 -2.19229857e-01
    endloop
  endfacet
  facet normal 3.31021908e-02 3.08847645e-01 -9.50535311e-01
    outer loop
      vertex -3.50000000e-01 6.15133638e-17 -3.30000000e-01
      vertex -3.50000000e-01 3.40915446e-01 -2.19229857e-01
      vertex 7.61443079e-02 2.95241437e-01 -2.19229857e-01
    endloop
  endfacet
  facet normal -3.31021908e-02 3.08847645e-01 -9.50535311e-01
    outer loop
      vertex -3.50000000e-01 7.10295144e-17 -3.30000000e-01
      vertex -7.76144308e-01 2.95241437e-01 -2.19229857e-01
      vertex -3.50000000e-01 3.40915446e-01 -2.19229857e-01
    endloop
  endfacet
  facet normal -9.21667639e-02 2.30416910e-01 -9.68717366e-01
    outer loop
      vertex -3.50000000e-01 6.15133638e-17 -3.30000000e-01
      vertex -1.08810359e+00 1.70457723e-01 -2.19229857e-01
      vertex -7.76144308e-01 2.95241437e-01 -2.19229857e-01
    endloop
  endfacet
  facet normal -1.28406232e-01 8.60158656e-02 -9.87984367e-01
    outer loop
      vertex -3.50000000e-01 3.55147572e-17 -3.30000000e-01
      vertex -1.20228862e+00 4.17501010e-17 -2.19229857e-01
      vertex -1.08810359e+00 1.70457723e-01 -2.19229857e-01
    endloop
  endfacet
  facet normal -1.28406232e-01 -8.60158656e-02 -9.87984367e-01
    outer loop
      vertex -3.50000000e-01 8.69860674e-33 -3.30000000e-01
      vertex -1.08810359e+00 -1.70457723e-01 -2.19229857e-01
      vertex -1.20228862e+00 4.17501010e-17 -2.19229857e-01
    endloop
  endfacet
  facet normal -9.21667639e-02 -2.30416910e-01 -9.68717366e-01
    outer loop
      vertex -3.50000000e-01 -3.55147572e-17 -3.30000000e-01
      vertex -7.76144308e-01 -2.95241437e-01 -2.19229857e-01
      vertex -1.08810359e+00 -1.70457723e-01 -2.19229857e-01
    endloop
  endfacet
  facet normal -3.31021908e-02 -3.08847645e-01 -9.50535311e-01
    outer loop
      vertex -3.50000000e-01 -6.15133638e-17 -3.30000000e-01
      vertex -3.50000000e-01 -3.40915446e-01 -2.19229857e-01
      vertex -7.76144308e-01 -2.95241437e-01 -2.19229857e-01
    endloop
  endfacet
  facet normal 3.31021908e-02 -3.08847645e-01 -9.50535311e-01
    outer loop
      vertex -3.50000000e-01 -7.10295144e-17 -3.30000000e-01
      vertex 7.61443079e-02 -2.95241437e-01 -2.19229857e-01
      vertex -3.50000000e-01 -3.40915446e-01 -2.19229857e-01
    endloop
  endfacet
  facet normal 9.21667639e-02 -2.30416910e-01 -9.68717366e-01
    outer loop
      vertex -3.50000000e-01 -6.15133638e-17 -3.30000000e-01
      vertex 3.88103593e-01 -1.70457723e-01 -2.19229857e-01
      vertex 7.61443079e-02 -2.95241437e-01 -2.19229857e-01
    endloop
  endfacet
  facet normal 1.28406232e-01 -8.60158656e-02 -9.87984367e-01
    outer loop
      vertex -3.50000000e-01 -3.55147572e-17 -3.30000000e-01
      vertex 5.02288616e-01 0.00000000e+00 -2.19229857e-01
      vertex 3.88103593e-01 -1.70457723e-01 -2.19229857e-01
    endloop
  endfacet
  facet normal 2.01250096e-01 1.23514671e-01 9.71721423e-01
    outer loop
      vertex 9.50000000e-01 0.00000000e+00 6.80000000e-01
      vertex 1.43083261e+00 0.00000000e+00 5.80416306e-01
      vertex 1.33900175e+00 1.49625698e-01 5.80416306e-01
    endloop
  endfacet
  facet normal 1.20564902e-01 3.13448553e-01 9.41920437e-01
    outer loop
      vertex 9.50000000e-01 0.00000000e+00 6.80000000e-01
      vertex 1.33900175e+00 1.49625698e-01 5.80416306e-01
      vertex 1.09858545e+00 2.42099464e-01 5.80416306e-01
    endloop
  endfacet
  facet normal 0.00000000e+00 3.80409048e-01 9.24818337e-01
    outer loop
      vertex 9.50000000e-01 0.00000000e+00 6.80000000e-01
      vertex 1.09858545e+00 2.42099464e-01 5.80416306e-01
      vertex 8.01414552e-01 2.42099464e-01 5.80416306e-01
    endloop
  endfacet
  facet normal -1.20564902e-01 3.13448553e-01 9.41920437e-01
    outer loop
      vertex 9.50000000e-01 0.00000000e+00 6.80000000e-01
      vertex 8.01414552e-01 2.42099464e-01 5.80416306e-01
      vertex 5.60998246e-01 1.49625698e-01 5.80416306e-01
    endloop
  endfacet
  facet normal -2.01250096e-01 1.23514671e-01 9.71721423e-01
    outer loop
      vertex 9.50000000e-01 0.00000000e+00 6.80000000e-01
      vertex 5.60998246e-01 1.49625698e-01 5.80416306e-01
      vertex 4.69167389e-01 3.11744180e-17 5.80416306e-01
    endloop
  endfacet
  facet normal -2.01250096e-01 -1.23514671e-01 9.71721423e-01
    outer loop
      vertex 9.50000000e-01 0.00000000e+00 6.80000000e-01
      vertex 4.69167389e-01 3.11744180e-17 5.80416306e-01
      vertex 5.60998246e-01 -1.49625698e-01 5.80416306e-01
    endloop
  endfacet
  facet normal -1.20564902e-01 -3.13448553e-01 9.41920437e-01
    outer loop
      vertex 9.50000000e-01 0.00000000e+00 6.80000000e-01
      vertex 5.60998246e-01 -1.49625698e-01 5.80416306e-01
      vertex 8.01414552e-01 -2.42099464e-01 5.80416306e-01
    endloop
  endfacet
  facet normal 0.00000000e+00 -3.80409048e-01 9.24818337e-01
    outer loop
      vertex 9.50000000e-01 0.00000000e+00 6.80000000e-01
      vertex 8.01414552e-01 -2.42099464e-01 5.80416306e-01
      vertex 1.09858545e+00 -2.42099464e-01 5.80416306e-01
    endloop
  endfacet
  facet normal 1.20564902e-01 -3.13448553e-01 9.41920437e-01
    outer loop
      vertex 9.50000000e-01 0.00000000e+00 6.80000000e-01
      vertex 1.09858545e+00 -2.42099464e-01 5.80416306e-01
      vertex 1.33900175e+00 -1.49625698e-01 5.80416306e-01
    endloop
  endfacet
  facet normal 2.01250096e-01 -1.23514671e-01 9.71721423e-01
    outer loop
      vertex 9.50000000e-01 0.00000000e+00 6.80000000e-01
      vertex 1.33900175e+00 -1.49625698e-01 5.80416306e-01
      vertex 1.43083261e+00 0.00000000e+00 5.80416306e-01
    endloop
  endfacet
  facet normal 6.96232168e-01 4.27303584e-01 5.76777613e-01
    outer loop
      vertex 1.43083261e+00 0.00000000e+00 5.80416306e-01
      vertex 1.63000000e+00 0.00000000e+00 3.40000000e-01
      vertex 1.50013156e+00 2.11602691e-01 3.40000000e-01
    endloop
  endfacet
  facet normal 6.96232168e-01 4.27303584e-01 5.76777613e-01
    outer loop
      vertex 1.43083261e+00 0.00000000e+00 5.80416306e-01
      vertex 1.50013156e+00 2.11602691e-01 3.40000000e-01
      vertex 1.33900175e+00 1.49625698e-01 5.80416306e-01
    endloop
  endfacet
  facet normal 3.23493106e-01 8.41027895e-01 4.33617678e-01
    outer loop
      vertex 1.33900175e+00 1.49625698e-01 5.80416306e-01
      vertex 1.50013156e+00 2.11602691e-01 3.40000000e-01
      vertex 1.16013156e+00 3.42380346e-01 3.40000000e-01
    endloop
  endfacet
  facet normal 3.23493106e-01 8.41027895e-01 4.33617678e-01
    outer loop
      vertex 1.33900175e+00 1.49625698e-01 5.80416306e-01
      vertex 1.16013156e+00 3.42380346e-01 3.40000000e-01
      vertex 1.09858545e+00 2.42099464e-01 5.80416306e-01
    endloop
  endfacet
  facet normal 1.26766362e-16 9.22930450e-01 3.84966731e-01
    outer loop
      vertex 1.09858545e+00 2.42099464e-01 5.80416306e-01
      vertex 1.16013156e+00 3.42380346e-01 3.40000000e-01
      vertex 7.39868444e-01 3.42380346e-01 3.40000000e-01
    endloop
  endfacet
  facet normal 8.62011260e-17 9.22930450e-01 3.84966731e-01
    outer loop
      vertex 1.09858545e+00 2.42099464e-01 5.80416306e-01
      vertex 7.39868444e-01 3.42380346e-01 3.40000000e-01
      vertex 8.01414552e-01 2.42099464e-01 5.80416306e-01
    endloop
  endfacet
  facet normal -3.23493106e-01 8.41027895e-01 4.33617678e-01
    outer loop
      vertex 8.01414552e-01 2.42099464e-01 5.80416306e-01
      vertex 7.39868444e-01 3.42380346e-01 3.40000000e-01
      vertex 3.99868444e-01 2.11602691e-01 3.40000000e-01
    endloop
  endfacet
  facet normal -3.23493106e-01 8.41027895e-01 4.33617678e-01
    outer loop
      vertex 8.01414552e-01 2.42099464e-01 5.80416306e-01
      vertex 3.99868444e-01 2.11602691e-01 3.40000000e-01
      vertex 5.60998246e-01 1.49625698e-01 5.80416306e-01
    endloop
  endfacet
  facet normal -6.96232168e-01 4.27303584e-01 5.76777613e-01
    outer loop
      vertex 5.60998246e-01 1.49625698e-01 5.80416306e-01
      vertex 3.99868444e-01 2.11602691e-01 3.40000000e-01
      vertex 2.70000000e-01 4.40872848e-17 3.40000000e-01
    endloop
  endfacet
  facet normal -6.96232168e-01 4.27303584e-01 5.76777613e-01
    outer loop
      vertex 5.60998246e-01 1.49625698e-01 5.80416306e-01
      vertex 2.70000000e-01 4.40872848e-17 3.40000000e-01
      vertex 4.69167389e-01 3.11744180e-17 5.80416306e-01
    endloop
  endfacet
  facet normal -6.96232168e-01 -4.27303584e-01 5.76777613e-01
    outer loop
      vertex 4.69167389e-01 3.11744180e-17 5.80416306e-01
      vertex 2.70000000e-01 4.40872848e-17 3.40000000e-01
      vertex 3.99868444e-01 -2.11602691e-01 3.40000000e-01
    endloop
  endfacet
  facet normal -6.96232168e-01 -4.27303584e-01 5.76777613e-01
    outer loop
      vertex 4.69167389e-01 3.11744180e-17 5.80416306e-01
      vertex 3.99868444e-01 -2.11602691e-01 3.40000000e-01
      vertex 5.60998246e-01 -1.49625698e-01 5.80416306e-01
    endloop
  endfacet
  facet normal -3.23493106e-01 -8.41027895e-01 4.33617678e-01
    outer loop
      vertex 5.60998246e-01 -1.49625698e-01 5.80416306e-01
      vertex 3.99868444e-01 -2.11602691e-01 3.40000000e-01
      vertex 7.39868444e-01 -3.42380346e-01 3.40000000e-01
    endloop
  endfacet
  facet normal -3.23493106e-01 -8.41027895e-01 4.33617678e-01
    outer loop
      vertex 5.60998246e-01 -1.49625698e-01 5.80416306e-01
      vertex 7.39868444e-01 -3.42380346e-01 3.40000000e-01
      vertex 8.01414552e-01 -2.42099464e-01 5.80416306e-01
    endloop
  endfacet
  facet normal -1.26766362e-16 -9.22930450e-01 3.84966731e-01
    outer loop
      vertex 8.01414552e-01 -2.42099464e-01 5.80416306e-01
      vertex 7.39868444e-01 -3.42380346e-01 3.40000000e-01
      vertex 1.16013156e+00 -3.42380346e-01 3.40000000e-01
    endloop
  endfacet
  facet normal -8.62011260e-17 -9.22930450e-01 3.84966731e-01
    outer loop
      vertex 8.01414552e-01 -2.42099464e-01 5.80416306e-01
      vertex 1.16013156e+00 -3.42380346e-01 3.40000000e-01
      vertex 1.09858545e+00 -2.42099464e-01 5.80416306e-01
    endloop
  endfacet
  facet normal 3.23493106e-01 -8.41027895e-01 4.33617678e-01
    outer loop
      vertex 1.09858545e+00 -2.42099464e-01 5.80416306e-01
      vertex 1.16013156e+00 -3.42380346e-01 3.40000000e-01
      vertex 1.50013156e+00 -2.11602691e-01 3.40000000e-01
    endloop
  endfacet
  facet normal 3.23493106e-01 -8.41027895e-01 4.33617678e-01
    outer loop
      vertex 1.09858545e+00 -2.42099464e-01 5.80416306e-01
      vertex 1.50013156e+00 -2.11602691e-01 3.40000000e-01
      vertex 1.33900175e+00 -1.49625698e-01 5.80416306e-01
    endloop
  endfacet
  facet normal 6.96232168e-01 -4.27303584e-01 5.76777613e-01
    outer loop
      vertex 1.33900175e+00 -1.49625698e-01 5.80416306e-01
      vertex 1.50013156e+00 -2.11602691e-01 3.40000000e-01
      vertex 1.63000000e+00 0.00000000e+00 3.40000000e-01
    endloop
  endfacet
  facet normal 6.96232168e-01 -4.27303584e-01 5.76777613e-01
    outer loop
      vertex 1.33900175e+00 -1.49625698e-01 5.80416306e-01
      vertex 1.63000000e+00 0.00000000e+00 3.40000000e-01
      vertex 1.43083261e+00 0.00000000e+00 5.80416306e-01
    endloop
  endfacet
  facet normal 6.96232168e-01 4.27303584e-01 -5.76777613e-01
    outer loop
      vertex 1.63000000e+00 0.00000000e+00 3.40000000e-01
      vertex 1.43083261e+00 0.00000000e+00 9.95836944e-02
      vertex 1.33900175e+00 1.49625698e-01 9.95836944e-02
    endloop
  endfacet
  facet normal 6.96232168e-01 4.27303584e-01 -5.76777613e-01
    outer loop
      vertex 1.63000000e+00 0.00000000e+00 3.40000000e-01
      vertex 1.33900175e+00 1.49625698e-01 9.95836944e-02
      vertex 1.50013156e+00 2.11602691e-01 3.40000000e-01
    endloop
  endfacet
  facet normal 3.23493106e-01 8.41027895e-01 -4.33617678e-01
    outer loop
      vertex 1.50013156e+00 2.11602691e-01 3.40000000e-01
      vertex 1.33900175e+00 1.49625698e-01 9.95836944e-02
      vertex 1.09858545e+00 2.42099464e-01 9.95836944e-02
    endloop
  endfacet
  facet normal 3.23493106e-01 8.41027895e-01 -4.33617678e-01
    outer loop
      vertex 1.50013156e+00 2.11602691e-01 3.40000000e-01
      vertex 1.09858545e+00 2.42099464e-01 9.95836944e-02
      vertex 1.16013156e+00 3.42380346e-01 3.40000000e-01
    endloop
  endfacet
  facet normal 8.96373540e-17 9.22930450e-01 -3.84966731e-01
    outer loop
      vertex 1.16013156e+00 3.42380346e-01 3.40000000e-01
      vertex 1.09858545e+00 2.42099464e-01 9.95836944e-02
      vertex 8.01414552e-01 2.42099464e-01 9.95836944e-02
    endloop
  endfacet
  facet normal 1.21906801e-16 9.22930450e-01 -3.84966731e-01
    outer loop
      vertex 1.16013156e+00 3.42380346e-01 3.40000000e-01
      vertex 8.01414552e-01 2.42099464e-01 9.95836944e-02
      vertex 7.39868444e-01 3.42380346e-01 3.40000000e-01
    endloop
  endfacet
  facet normal -3.23493106e-01 8.41027895e-01 -4.33617678e-01
    outer loop
      vertex 7.39868444e-01 3.42380346e-01 3.40000000e-01
      vertex 8.01414552e-01 2.42099464e-01 9.95836944e-02
      vertex 5.60998246e-01 1.49625698e-01 9.95836944e-02
    endloop
  endfacet
  facet normal -3.23493106e-01 8.41027895e-01 -4.33617678e-01
    outer loop
      vertex 7.39868444e-01 3.42380346e-01 3.40000000e-01
      vertex 5.60998246e-01 1.49625698e-01 9.95836944e-02
      vertex 3.99868444e-01 2.11602691e-01 3.40000000e-01
    endloop
  endfacet
  facet normal -6.96232168e-01 4.27303584e-01 -5.76777613e-01
    outer loop
      vertex 3.99868444e-01 2.11602691e-01 3.40000000e-01
      vertex 5.60998246e-01 1.49625698e-01 9.95836944e-02
      vertex 4.69167389e-01 3.11744180e-17 9.95836944e-02
    endloop
  endfacet
  facet normal -6.96232168e-01 4.27303584e-01 -5.76777613e-01
    outer loop
      vertex 3.99868444e-01 2.11602691e-01 3.40000000e-01
      vertex 4.69167389e-01 3.11744180e-17 9.95836944e-02
      vertex 2.70000000e-01 4.40872848e-17 3.40000000e-01
    endloop
  endfacet
  facet normal -6.96232168e-01 -4.27303584e-01 -5.76777613e-01
    outer loop
      vertex 2.70000000e-01 4.40872848e-17 3.40000000e-01
      vertex 4.69167389e-01 3.11744180e-17 9.95836944e-02
      vertex 5.60998246e-01 -1.49625698e-01 9.95836944e-02
    endloop
  endfacet
  facet normal -6.96232168e-01 -4.27303584e-01 -5.76777613e-01
    outer loop
      vertex 2.70000000e-01 4.40872848e-17 3.40000000e-01
      vertex 5.60998246e-01 -1.49625698e-01 9.95836944e-02
      vertex 3.99868444e-01 -2.11602691e-01 3.40000000e-01
    endloop
  endfacet
  facet normal -3.23493106e-01 -8.41027895e-01 -4.33617678e-01
    outer loop
      vertex 3.99868444e-01 -2.11602691e-01 3.40000000e-01
      vertex 5.60998246e-01 -1.49625698e-01 9.95836944e-02
      vertex 8.01414552e-01 -2.42099464e-01 9.95836944e-02
    endloop
  endfacet
  facet normal -3.23493106e-01 -8.41027895e-01 -4.33617678e-01
    outer loop
      vertex 3.99868444e-01 -2.11602691e-01 3.40000000e-01
      vertex 8.01414552e-01 -2.42099464e-01 9.95836944e-02
      vertex 7.39868444e-01 -3.42380346e-01 3.40000000e-01
    endloop
  endfacet
  facet normal -8.96373540e-17 -9.22930450e-01 -3.84966731e-01
    outer loop
      vertex 7.39868444e-01 -3.42380346e-01 3.40000000e-01
      vertex 8.01414552e-01 -2.42099464e-01 9.95836944e-02
      vertex 1.09858545e+00 -2.42099464e-01 9.95836944e-02
    endloop
  endfacet
  facet normal -1.21906801e-16 -9.22930450e-01 -3.84966731e-01
    outer loop
      vertex 7.39868444e-01 -3.42380346e-01 3.40000000e-01
      vertex 1.09858545e+00 -2.42099464e-01 9.95836944e-02
      vertex 1.16013156e+00 -3.42380346e-01 3.40000000e-01
    endloop
  endfacet
  facet normal 3.23493106e-01 -8.41027895e-01 -4.33617678e-01
    outer loop
      vertex 1.16013156e+00 -3.42380346e-01 3.40000000e-01
      vertex 1.09858545e+00 -2.42099464e-01 9.95836944e-02
      vertex 1.33900175e+00 -1.49625698e-01 9.95836944e-02
    endloop
  endfacet
  facet normal 3.23493106e-01 -8.41027895e-01 -4.33617678e-01
    outer loop
      vertex 1.16013156e+00 -3.42380346e-01 3.40000000e-01
      vertex 1.33900175e+00 -1.49625698e-01 9.95836944e-02
      vertex 1.50013156e+00 -2.11602691e-01 3.40000000e-01
    endloop
  endfacet
  facet normal 6.96232168e-01 -4.27303584e-01 -5.76777613e-01
    outer loop
      vertex 1.50013156e+00 -2.11602691e-01 3.40000000e-01
      vertex 1.33900175e+00 -1.49625698e-01 9.95836944e-02
      vertex 1.43083261e+00 0.00000000e+00 9.95836944e-02
    endloop
  endfacet
  facet normal 6.96232168e-01 -4.27303584e-01 -5.76777613e-01
    outer loop
      vertex 1.50013156e+00 -2.11602691e-01 3.40000000e-01
      vertex 1.43083261e+00 0.00000000e+00 9.95836944e-02
      vertex 1.63000000e+00 0.00000000e+00 3.40000000e-01
    endloop
  endfacet
  facet normal 2.01250096e-01 1.23514671e-01 -9.71721423e-01
    outer loop
      vertex 9.50000000e-01 0.00000000e+00 0.00000000e+00
      vertex 1.33900175e+00 1.49625698e-01 9.95836944e-02
      vertex 1.43083261e+00 0.00000000e+00 9.95836944e-02
    endloop
  endfacet
  facet normal 1.20564902e-01 3.13448553e-01 -9.41920437e-01
    outer loop
      vertex 9.50000000e-01 2.59138558e-17 0.00000000e+00
      vertex 1.09858545e+00 2.42099464e-01 9.95836944e-02
      vertex 1.33900175e+00 1.49625698e-01 9.95836944e-02
    endloop
  endfacet
  facet normal 4.45981230e-17 3.80409048e-01 -9.24818337e-01
    outer loop
      vertex 9.50000000e-01 4.19294995e-17 0.00000000e+00
      vertex 8.01414552e-01 2.42099464e-01 9.95836944e-02
      vertex 1.09858545e+00 2.42099464e-01 9.95836944e-02
    endloop
  endfacet
  facet normal -1.20564902e-01 3.13448553e-01 -9.41920437e-01
    outer loop
      vertex 9.50000000e-01 4.19294995e-17 0.00000000e+00
      vertex 5.60998246e-01 1.49625698e-01 9.95836944e-02
      vertex 8.01414552e-01 2.42099464e-01 9.95836944e-02
    endloop
  endfacet
  facet normal -2.01250096e-01 1.23514671e-01 -9.71721423e-01
    outer loop
      vertex 9.50000000e-01 2.59138558e-17 0.00000000e+00
      vertex 4.69167389e-01 3.11744180e-17 9.95836944e-02
      vertex 5.60998246e-01 1.49625698e-01 9.95836944e-02
    endloop
  endfacet
  facet normal -2.01250096e-01 -1.23514671e-01 -9.71721423e-01
    outer loop
      vertex 9.50000000e-01 5.39913522e-33 0.00000000e+00
      vertex 5.60998246e-01 -1.49625698e-01 9.95836944e-02
      vertex 4.69167389e-01 3.11744180e-17 9.95836944e-02
    endloop
  endfacet
  facet normal -1.20564902e-01 -3.13448553e-01 -9.41920437e-01
    outer loop
      vertex 9.50000000e-01 -2.59138558e-17 0.00000000e+00
      vertex 8.01414552e-01 -2.42099464e-01 9.95836944e-02
      vertex 5.60998246e-01 -1.49625698e-01 9.95836944e-02
    endloop
  endfacet
  facet normal -4.45981230e-17 -3.80409048e-01 -9.24818337e-01
    outer loop
      vertex 9.50000000e-01 -4.19294995e-17 0.00000000e+00
      vertex 1.09858545e+00 -2.42099464e-01 9.95836944e-02
      vertex 8.01414552e-01 -2.42099464e-01 9.95836944e-02
    endloop
  endfacet
  facet normal 1.20564902e-01 -3.13448553e-01 -9.41920437e-01
    outer loop
      vertex 9.50000000e-01 -4.19294995e-17 0.00000000e+00
      vertex 1.33900175e+00 -1.49625698e-01 9.95836944e-02
      vertex 1.09858545e+00 -2.42099464e-01 9.95836944e-02
    endloop
  endfacet
  facet normal 2.01250096e-01 -1.23514671e-01 -9.71721423e-01
    outer loop
      vertex 9.50000000e-01 -2.59138558e-17 0.00000000e+00
      vertex 1.43083261e+00 0.00000000e+00 9.95836944e-02
      vertex 1.33900175e+00 -1.49625698e-01 9.95836944e-02
    endloop
  endfacet
  facet normal 1.70267659e-02 9.15846511e-01 4.01167369e-01
    outer loop
      vertex 1.35000000e+00 2.20000000e-01 4.00000000e-01
      vertex 1.30529916e+00 1.55563492e-01 5.49002802e-01
      vertex 1.92358587e+00 9.19238816e-02 6.68047110e-01
    endloop
  endfacet
  facet normal 1.70267659e-02 9.15846511e-01 4.01167369e-01
    outer loop
      vertex 1.35000000e+00 2.20000000e-01 4.00000000e-01
      vertex 1.92358587e+00 9.19238816e-02 6.68047110e-01
      vertex 1.95000000e+00 1.30000000e-01 5.80000000e-01
    endloop
  endfacet
  facet normal -1.37132635e-01 3.79356046e-01 9.15032038e-01
    outer loop
      vertex 1.30529916e+00 1.55563492e-01 5.49002802e-01
      vertex 1.28678347e+00 1.34711148e-17 6.10721783e-01
      vertex 1.91264477e+00 7.96020419e-18 7.04517417e-01
    endloop
  endfacet
  facet normal -1.37132635e-01 3.79356046e-01 9.15032038e-01
    outer loop
      vertex 1.30529916e+00 1.55563492e-01 5.49002802e-01
      vertex 1.91264477e+00 7.96020419e-18 7.04517417e-01
      vertex 1.92358587e+00 9.19238816e-02 6.68047110e-01
    endloop
  endfacet
  facet normal -1.37132635e-01 -3.79356046e-01 9.15032038e-01
    outer loop
      vertex 1.28678347e+00 1.34711148e-17 6.10721783e-01
      vertex 1.30529916e+00 -1.55563492e-01 5.49002802e-01
      vertex 1.92358587e+00 -9.19238816e-02 6.68047110e-01
    endloop
  endfacet
  facet normal -1.37132635e-01 -3.79356046e-01 9.15032038e-01
    outer loop
      vertex 1.28678347e+00 1.34711148e-17 6.10721783e-01
      vertex 1.92358587e+00 -9.19238816e-02 6.68047110e-01
      vertex 1.91264477e+00 7.96020419e-18 7.04517417e-01
    endloop
  endfacet
  facet normal 1.70267659e-02 -9.15846511e-01 4.01167369e-01
    outer loop
      vertex 1.30529916e+00 -1.55563492e-01 5.49002802e-01
      vertex 1.35000000e+00 -2.20000000e-01 4.00000000e-01
      vertex 1.95000000e+00 -1.30000000e-01 5.80000000e-01
    endloop
  endfacet
  facet normal 1.70267659e-02 -9.15846511e-01 4.01167369e-01
    outer loop
      vertex 1.30529916e+00 -1.55563492e-01 5.49002802e-01
      vertex 1.95000000e+00 -1.30000000e-01 5.80000000e-01
      vertex 1.92358587e+00 -9.19238816e-02 6.68047110e-01
    endloop
  endfacet
  facet normal 2.35041081e-01 -9.15846511e-01 -3.25547015e-01
    outer loop
      vertex 1.35000000e+00 -2.20000000e-01 4.00000000e-01
      vertex 1.39470084e+00 -1.55563492e-01 2.50997198e-01
      vertex 1.97641413e+00 -9.19238816e-02 4.91952890e-01
    endloop
  endfacet
  facet normal 2.35041081e-01 -9.15846511e-01 -3.25547015e-01
    outer loop
      vertex 1.35000000e+00 -2.20000000e-01 4.00000000e-01
      vertex 1.97641413e+00 -9.19238816e-02 4.91952890e-01
      vertex 1.95000000e+00 -1.30000000e-01 5.80000000e-01
    endloop
  endfacet
  facet normal 3.89200482e-01 -3.79356046e-01 -8.39411684e-01
    outer loop
      vertex 1.39470084e+00 -1.55563492e-01 2.50997198e-01
      vertex 1.41321653e+00 -4.04133444e-17 1.89278217e-01
      vertex 1.98735523e+00 -2.38806126e-17 4.55482583e-01
    endloop
  endfacet
  facet normal 3.89200482e-01 -3.79356046e-01 -8.39411684e-01
    outer loop
      vertex 1.39470084e+00 -1.55563492e-01 2.50997198e-01
      vertex 1.98735523e+00 -2.38806126e-17 4.55482583e-01
      vertex 1.97641413e+00 -9.19238816e-02 4.91952890e-01
    endloop
  endfacet
  facet normal 3.89200482e-01 3.79356046e-01 -8.39411684e-01
    outer loop
      vertex 1.41321653e+00 -4.04133444e-17 1.89278217e-01
      vertex 1.39470084e+00 1.55563492e-01 2.50997198e-01
      vertex 1.97641413e+00 9.19238816e-02 4.91952890e-01
    endloop
  endfacet
  facet normal 3.89200482e-01 3.79356046e-01 -8.39411684e-01
    outer loop
      vertex 1.41321653e+00 -4.04133444e-17 1.89278217e-01
      vertex 1.97641413e+00 9.19238816e-02 4.91952890e-01
      vertex 1.98735523e+00 -2.38806126e-17 4.55482583e-01
    endloop
  endfacet
  facet normal 2.35041081e-01 9.15846511e-01 -3.25547015e-01
    outer loop
      vertex 1.39470084e+00 1.55563492e-01 2.50997198e-01
      vertex 1.35000000e+00 2.20000000e-01 4.00000000e-01
      vertex 1.95000000e+00 1.30000000e-01 5.80000000e-01
    endloop
  endfacet
  facet normal 2.35041081e-01 9.15846511e-01 -3.25547015e-01
    outer loop
      vertex 1.39470084e+00 1.55563492e-01 2.50997198e-01
      vertex 1.95000000e+00 1.30000000e-01 5.80000000e-01
      vertex 1.97641413e+00 9.19238816e-02 4.91952890e-01
    endloop
  endfacet
  facet normal 9.57826285e-01 -2.02749543e-16 2.87347886e-01
    outer loop
      vertex 1.35000000e+00 0.00000000e+00 4.00000000e-01
      vertex 1.30529916e+00 1.55563492e-01 5.49002802e-01
      vertex 1.28678347e+00 1.34711148e-17 6.10721783e-01
    endloop
  endfacet
  facet normal -9.57826285e-01 -1.08872905e-16 -2.87347886e-01
    outer loop
      vertex 1.95000000e+00 0.00000000e+00 5.80000000e-01
      vertex 1.91264477e+00 7.96020419e-18 7.04517417e-01
      vertex 1.92358587e+00 9.19238816e-02 6.68047110e-01
    endloop
  endfacet
  facet normal 9.57826285e-01 2.02749543e-16 2.87347886e-01
    outer loop
      vertex 1.35000000e+00 0.00000000e+00 4.00000000e-01
      vertex 1.28678347e+00 1.34711148e-17 6.10721783e-01
      vertex 1.30529916e+00 -1.55563492e-01 5.49002802e-01
    endloop
  endfacet
  facet normal -9.57826285e-01 1.08872905e-16 -2.87347886e-01
    outer loop
      vertex 1.95000000e+00 0.00000000e+00 5.80000000e-01
      vertex 1.92358587e+00 -9.19238816e-02 6.68047110e-01
      vertex 1.91264477e+00 7.96020419e-18 7.04517417e-01
    endloop
  endfacet
  facet normal 9.57826285e-01 0.00000000e+00 2.87347886e-01
    outer loop
      vertex 1.35000000e+00 0.00000000e+00 4.00000000e-01
      vertex 1.30529916e+00 -1.55563492e-01 5.49002802e-01
      vertex 1.35000000e+00 -2.20000000e-01 4.00000000e-01
    endloop
  endfacet
  facet normal -9.57826285e-01 -0.00000000e+00 -2.87347886e-01
    outer loop
      vertex 1.95000000e+00 0.00000000e+00 5.80000000e-01
      vertex 1.95000000e+00 -1.30000000e-01 5.80000000e-01
      vertex 1.92358587e+00 -9.19238816e-02 6.68047110e-01
    endloop
  endfacet
  facet normal 9.57826285e-01 0.00000000e+00 2.87347886e-01
    outer loop
      vertex 1.35000000e+00 0.00000000e+00 4.00000000e-01
      vertex 1.35000000e+00 -2.20000000e-01 4.00000000e-01
      vertex 1.39470084e+00 -1.55563492e-01 2.50997198e-01
    endloop
  endfacet
  facet normal -9.57826285e-01 -0.00000000e+00 -2.87347886e-01
    outer loop
      vertex 1.95000000e+00 0.00000000e+00 5.80000000e-01
      vertex 1.97641413e+00 -9.19238816e-02 4.91952890e-01
      vertex 1.95000000e+00 -1.30000000e-01 5.80000000e-01
    endloop
  endfacet
  facet normal 9.57826285e-01 -5.06873857e-17 2.87347886e-01
    outer loop
      vertex 1.35000000e+00 0.00000000e+00 4.00000000e-01
      vertex 1.39470084e+00 -1.55563492e-01 2.50997198e-01
      vertex 1.41321653e+00 -4.04133444e-17 1.89278217e-01
    endloop
  endfacet
  facet normal -9.57826285e-01 -2.17745811e-16 -2.87347886e-01
    outer loop
      vertex 1.95000000e+00 0.00000000e+00 5.80000000e-01
      vertex 1.98735523e+00 -2.38806126e-17 4.55482583e-01
      vertex 1.97641413e+00 -9.19238816e-02 4.91952890e-01
    endloop
  endfacet
  facet normal 9.57826285e-01 1.52062157e-16 2.87347886e-01
    outer loop
      vertex 1.35000000e+00 0.00000000e+00 4.00000000e-01
      vertex 1.41321653e+00 -4.04133444e-17 1.89278217e-01
      vertex 1.39470084e+00 1.55563492e-01 2.50997198e-01
    endloop
  endfacet
  facet normal -9.57826285e-01 2.17745811e-16 -2.87347886e-01
    outer loop
      vertex 1.95000000e+00 0.00000000e+00 5.80000000e-01
      vertex 1.97641413e+00 9.19238816e-02 4.91952890e-01
      vertex 1.98735523e+00 -2.38806126e-17 4.55482583e-01
    endloop
  endfacet
  facet normal 2.20015561e-01 -2.26905185e-01 9.48739790e-01
    outer loop
      vertex 1.88819828e+00 -3.79392832e-01 5.68240613e-01
      vertex 2.37385109e+00 1.37939470e-02 5.49652739e-01
      vertex 1.81048585e+00 -2.48518500e-01 6.17562893e-01
    endloop
  endfacet
  facet normal -2.20015561e-01 2.26905185e-01 -9.48739790e-01
    outer loop
      vertex 1.98500513e+00 -4.79231113e-01 9.85686121e-01
      vertex 1.90729270e+00 -3.48356781e-01 1.03500840e+00
      vertex 2.47065793e+00 -8.60443344e-02 9.67098247e-01
    endloop
  endfacet
  facet normal 8.45982294e-01 5.28628408e-01 -6.97564737e-02
    outer loop
      vertex 1.88819828e+00 -3.79392832e-01 5.68240613e-01
      vertex 1.81048585e+00 -2.48518500e-01 6.17562893e-01
      vertex 1.90729270e+00 -3.48356781e-01 1.03500840e+00
    endloop
  endfacet
  facet normal 8.45982294e-01 5.28628408e-01 -6.97564737e-02
    outer loop
      vertex 1.88819828e+00 -3.79392832e-01 5.68240613e-01
      vertex 1.90729270e+00 -3.48356781e-01 1.03500840e+00
      vertex 1.98500513e+00 -4.79231113e-01 9.85686121e-01
    endloop
  endfacet
  facet normal 3.73447701e-01 -8.78888444e-01 -2.96802826e-01
    outer loop
      vertex 1.81048585e+00 -2.48518500e-01 6.17562893e-01
      vertex 2.37385109e+00 1.37939470e-02 5.49652739e-01
      vertex 2.47065793e+00 -8.60443344e-02 9.67098247e-01
    endloop
  endfacet
  facet normal 3.73447701e-01 -8.78888444e-01 -2.96802826e-01
    outer loop
      vertex 1.81048585e+00 -2.48518500e-01 6.17562893e-01
      vertex 2.47065793e+00 -8.60443344e-02 9.67098247e-01
      vertex 1.90729270e+00 -3.48356781e-01 1.03500840e+00
    endloop
  endfacet
  facet normal -5.89970672e-01 7.43589875e-01 3.14656484e-01
    outer loop
      vertex 2.37385109e+00 1.37939470e-02 5.49652739e-01
      vertex 1.88819828e+00 -3.79392832e-01 5.68240613e-01
      vertex 1.98500513e+00 -4.79231113e-01 9.85686121e-01
    endloop
  endfacet
  facet normal -5.89970672e-01 7.43589875e-01 3.14656484e-01
    outer loop
      vertex 2.37385109e+00 1.37939470e-02 5.49652739e-01
      vertex 1.98500513e+00 -4.79231113e-01 9.85686121e-01
      vertex 2.47065793e+00 -8.60443344e-02 9.67098247e-01
    endloop
  endfacet
  facet normal 2.20015561e-01 2.26905185e-01 9.48739790e-01
    outer loop
      vertex 1.81048585e+00 2.48518500e-01 6.17562893e-01
      vertex 2.37385109e+00 -1.37939470e-02 5.49652739e-01
      vertex 1.88819828e+00 3.79392832e-01 5.68240613e-01
    endloop
  endfacet
  facet normal -2.20015561e-01 -2.26905185e-01 -9.48739790e-01
    outer loop
      vertex 1.90729270e+00 3.48356781e-01 1.03500840e+00
      vertex 1.98500513e+00 4.79231113e-01 9.85686121e-01
      vertex 2.47065793e+00 8.60443344e-02 9.67098247e-01
    endloop
  endfacet
  facet normal 8.45982294e-01 -5.28628408e-01 -6.97564737e-02
    outer loop
      vertex 1.81048585e+00 2.48518500e-01 6.17562893e-01
      vertex 1.88819828e+00 3.79392832e-01 5.68240613e-01
      vertex 1.98500513e+00 4.79231113e-01 9.85686121e-01
    endloop
  endfacet
  facet normal 8.45982294e-01 -5.28628408e-01 -6.97564737e-02
    outer loop
      vertex 1.81048585e+00 2.48518500e-01 6.17562893e-01
      vertex 1.98500513e+00 4.79231113e-01 9.85686121e-01
      vertex 1.90729270e+00 3.48356781e-01 1.03500840e+00
    endloop
  endfacet
  facet normal -5.89970672e-01 -7.43589875e-01 3.14656484e-01
    outer loop
      vertex 1.88819828e+00 3.79392832e-01 5.68240613e-01
      vertex 2.37385109e+00 -1.37939470e-02 5.49652739e-01
      vertex 2.47065793e+00 8.60443344e-02 9.67098247e-01
    endloop
  endfacet
  facet normal -5.89970672e-01 -7.43589875e-01 3.14656484e-01
    outer loop
      vertex 1.88819828e+00 3.79392832e-01 5.68240613e-01
      vertex 2.47065793e+00 8.60443344e-02 9.67098247e-01
      vertex 1.98500513e+00 4.79231113e-01 9.85686121e-01
    endloop
  endfacet
  facet normal 3.73447701e-01 8.78888444e-01 -2.96802826e-01
    outer loop
      vertex 2.37385109e+00 -1.37939470e-02 5.49652739e-01
      vertex 1.81048585e+00 2.48518500e-01 6.17562893e-01
      vertex 1.90729270e+00 3.48356781e-01 1.03500840e+00
    endloop
  endfacet
  facet normal 3.73447701e-01 8.78888444e-01 -2.96802826e-01
    outer loop
      vertex 2.37385109e+00 -1.37939470e-02 5.49652739e-01
      vertex 1.90729270e+00 3.48356781e-01 1.03500840e+00
      vertex 2.47065793e+00 8.60443344e-02 9.67098247e-01
    endloop
  endfacet
  facet normal -1.70100991e-01 -9.51512397e-01 2.56300236e-01
    outer loop
      vertex -4.11638500e-01 -3.20552479e-01 -2.61114659e-01
      vertex 2.67034936e-01 -3.95024802e-01 -8.71714477e-02
      vertex -4.27174816e-01 -2.76550975e-01 -1.08070578e-01
    endloop
  endfacet
  facet normal 1.70100991e-01 9.51512397e-01 -2.56300236e-01
    outer loop
      vertex -4.59266778e-01 -5.86975950e-01 -1.89350593e-01
      vertex -4.74803093e-01 -5.42974446e-01 -3.63065121e-02
      vertex 2.19406658e-01 -6.61448273e-01 -1.54073816e-02
    endloop
  endfacet
  facet normal 9.80630848e-01 -1.37818678e-01 1.39173101e-01
    outer loop
      vertex -4.11638500e-01 -3.20552479e-01 -2.61114659e-01
      vertex -4.27174816e-01 -2.76550975e-01 -1.08070578e-01
      vertex -4.74803093e-01 -5.42974446e-01 -3.63065121e-02
    endloop
  endfacet
  facet normal 9.80630848e-01 -1.37818678e-01 1.39173101e-01
    outer loop
      vertex -4.11638500e-01 -3.20552479e-01 -2.61114659e-01
      vertex -4.74803093e-01 -5.42974446e-01 -3.63065121e-02
      vertex -4.59266778e-01 -5.86975950e-01 -1.89350593e-01
    endloop
  endfacet
  facet normal -1.48733090e-02 -2.57581983e-01 -9.66141970e-01
    outer loop
      vertex -4.27174816e-01 -2.76550975e-01 -1.08070578e-01
      vertex 2.67034936e-01 -3.95024802e-01 -8.71714477e-02
      vertex 2.19406658e-01 -6.61448273e-01 -1.54073816e-02
    endloop
  endfacet
  facet normal -1.48733090e-02 -2.57581983e-01 -9.66141970e-01
    outer loop
      vertex -4.27174816e-01 -2.76550975e-01 -1.08070578e-01
      vertex 2.19406658e-01 -6.61448273e-01 -1.54073816e-02
      vertex -4.74803093e-01 -5.42974446e-01 -3.63065121e-02
    endloop
  endfacet
  facet normal -2.07821271e-01 2.88879665e-01 9.34536708e-01
    outer loop
      vertex 2.67034936e-01 -3.95024802e-01 -8.71714477e-02
      vertex -4.11638500e-01 -3.20552479e-01 -2.61114659e-01
      vertex -4.59266778e-01 -5.86975950e-01 -1.89350593e-01
    endloop
  endfacet
  facet normal -2.07821271e-01 2.88879665e-01 9.34536708e-01
    outer loop
      vertex 2.67034936e-01 -3.95024802e-01 -8.71714477e-02
      vertex -4.59266778e-01 -5.86975950e-01 -1.89350593e-01
      vertex 2.19406658e-01 -6.61448273e-01 -1.54073816e-02
    endloop
  endfacet
  facet normal -1.70100991e-01 9.51512397e-01 2.56300236e-01
    outer loop
      vertex -4.27174816e-01 2.76550975e-01 -1.08070578e-01
      vertex 2.67034936e-01 3.95024802e-01 -8.71714477e-02
      vertex -4.11638500e-01 3.20552479e-01 -2.61114659e-01
    endloop
  endfacet
  facet normal 1.70100991e-01 -9.51512397e-01 -2.56300236e-01
    outer loop
      vertex -4.74803093e-01 5.42974446e-01 -3.63065121e-02
      vertex -4.59266778e-01 5.86975950e-01 -1.89350593e-01
      vertex 2.19406658e-01 6.61448273e-01 -1.54073816e-02
    endloop
  endfacet
  facet normal 9.80630848e-01 1.37818678e-01 1.39173101e-01
    outer loop
      vertex -4.27174816e-01 2.76550975e-01 -1.08070578e-01
      vertex -4.11638500e-01 3.20552479e-01 -2.61114659e-01
      vertex -4.59266778e-01 5.86975950e-01 -1.89350593e-01
    endloop
  endfacet
  facet normal 9.80630848e-01 1.37818678e-01 1.39173101e-01
    outer loop
      vertex -4.27174816e-01 2.76550975e-01 -1.08070578e-01
      vertex -4.59266778e-01 5.86975950e-01 -1.89350593e-01
      vertex -4.74803093e-01 5.42974446e-01 -3.63065121e-02
    endloop
  endfacet
  facet normal -2.07821271e-01 -2.88879665e-01 9.34536708e-01
    outer loop
      vertex -4.11638500e-01 3.20552479e-01 -2.61114659e-01
      vertex 2.67034936e-01 3.95024802e-01 -8.71714477e-02
      vertex 2.19406658e-01 6.61448273e-01 -1.54073816e-02
    endloop
  endfacet
  facet normal -2.07821271e-01 -2.88879665e-01 9.34536708e-01
    outer loop
      vertex -4.11638500e-01 3.20552479e-01 -2.61114659e-01
      vertex 2.19406658e-01 6.61448273e-01 -1.54073816e-02
      vertex -4.59266778e-01 5.86975950e-01 -1.89350593e-01
    endloop
  endfacet
  facet normal -1.48733090e-02 2.57581983e-01 -9.66141970e-01
    outer loop
      vertex 2.67034936e-01 3.95024802e-01 -8.71714477e-02
      vertex -4.27174816e-01 2.76550975e-01 -1.08070578e-01
      vertex -4.74803093e-01 5.42974446e-01 -3.63065121e-02
    endloop
  endfacet
  facet normal -1.48733090e-02 2.57581983e-01 -9.66141970e-01
    outer loop
      vertex 2.67034936e-01 3.95024802e-01 -8.71714477e-02
      vertex -4.74803093e-01 5.42974446e-01 -3.63065121e-02
      vertex 2.19406658e-01 6.61448273e-01 -1.54073816e-02
    endloop
  endfacet
  facet normal 0.00000000e+00 0.00000000e+00 1.00000000e+00
    outer loop
      vertex 5.30000000e-01 -2.25000000e-01 7.10000000e-01
      vertex 4.50000000e-01 2.25000000e-01 7.10000000e-01
      vertex 3.70000000e-01 -2.25000000e-01 7.10000000e-01
    endloop
  endfacet
  facet normal 0.00000000e+00 0.00000000e+00 -1.00000000e+00
    outer loop
      vertex 5.30000000e-01 -2.25000000e-01 9.90000000e-01
      vertex 3.70000000e-01 -2.25000000e-01 9.90000000e-01
      vertex 4.50000000e-01 2.25000000e-01 9.90000000e-01
    endloop
  endfacet
  facet normal 0.00000000e+00 1.00000000e+00 0.00000000e+00
    outer loop
      vertex 5.30000000e-01 -2.25000000e-01 7.10000000e-01
      vertex 3.70000000e-01 -2.25000000e-01 7.10000000e-01
      vertex 3.70000000e-01 -2.25000000e-01 9.90000000e-01
    endloop
  endfacet
  facet normal 0.00000000e+00 1.00000000e+00 -0.00000000e+00
    outer loop
      vertex 5.30000000e-01 -2.25000000e-01 7.10000000e-01
      vertex 3.70000000e-01 -2.25000000e-01 9.90000000e-01
      vertex 5.30000000e-01 -2.25000000e-01 9.90000000e-01
    endloop
  endfacet
  facet normal 9.84562508e-01 -1.75033335e-01 0.00000000e+00
    outer loop
      vertex 3.70000000e-01 -2.25000000e-01 7.10000000e-01
      vertex 4.50000000e-01 2.25000000e-01 7.10000000e-01
      vertex 4.50000000e-01 2.25000000e-01 9.90000000e-01
    endloop
  endfacet
  facet normal 9.84562508e-01 -1.75033335e-01 0.00000000e+00
    outer loop
      vertex 3.70000000e-01 -2.25000000e-01 7.10000000e-01
      vertex 4.50000000e-01 2.25000000e-01 9.90000000e-01
      vertex 3.70000000e-01 -2.25000000e-01 9.90000000e-01
    endloop
  endfacet
  facet normal -9.84562508e-01 -1.75033335e-01 0.00000000e+00
    outer loop
      vertex 4.50000000e-01 2.25000000e-01 7.10000000e-01
      vertex 5.30000000e-01 -2.25000000e-01 7.10000000e-01
      vertex 5.30000000e-01 -2.25000000e-01 9.90000000e-01
    endloop
  endfacet
  facet normal -9.84562508e-01 -1.75033335e-01 0.00000000e+00
    outer loop
      vertex 4.50000000e-01 2.25000000e-01 7.10000000e-01
      vertex 5.30000000e-01 -2.25000000e-01 9.90000000e-01
      vertex 4.50000000e-01 2.25000000e-01 9.90000000e-01
    endloop
  endfacet
  facet normal 4.98560823e-01 -7.88693208e-01 3.59722295e-01
    outer loop
      vertex -1.40564773e+00 -2.82525001e-01 4.20000000e-01
      vertex -1.41863821e+00 -2.72998649e-01 4.58890873e-01
      vertex -1.44717638e+00 -2.95473162e-01 4.49168155e-01
    endloop
  endfacet
  facet normal 4.98560823e-01 -7.88693208e-01 3.59722295e-01
    outer loop
      vertex -1.40564773e+00 -2.82525001e-01 4.20000000e-01
      vertex -1.44717638e+00 -2.95473162e-01 4.49168155e-01
      vertex -1.43743352e+00 -3.02617926e-01 4.20000000e-01
    endloop
  endfacet
  facet normal 8.83231282e-02 -4.87852232e-01 8.68446443e-01
    outer loop
      vertex -1.41863821e+00 -2.72998649e-01 4.58890873e-01
      vertex -1.45000000e+00 -2.50000000e-01 4.75000000e-01
      vertex -1.47069773e+00 -2.78224175e-01 4.61250000e-01
    endloop
  endfacet
  facet normal 8.83231282e-02 -4.87852232e-01 8.68446443e-01
    outer loop
      vertex -1.41863821e+00 -2.72998649e-01 4.58890873e-01
      vertex -1.47069773e+00 -2.78224175e-01 4.61250000e-01
      vertex -1.44717638e+00 -2.95473162e-01 4.49168155e-01
    endloop
  endfacet
  facet normal -4.91840583e-01 -6.23988434e-02 8.68446443e-01
    outer loop
      vertex -1.45000000e+00 -2.50000000e-01 4.75000000e-01
      vertex -1.48136179e+00 -2.27001351e-01 4.58890873e-01
      vertex -1.49421907e+00 -2.60975188e-01 4.49168155e-01
    endloop
  endfacet
  facet normal -4.91840583e-01 -6.23988434e-02 8.68446443e-01
    outer loop
      vertex -1.45000000e+00 -2.50000000e-01 4.75000000e-01
      vertex -1.49421907e+00 -2.60975188e-01 4.49168155e-01
      vertex -1.47069773e+00 -2.78224175e-01 4.61250000e-01
    endloop
  endfacet
  facet normal -9.02078278e-01 2.38442133e-01 3.59722295e-01
    outer loop
      vertex -1.48136179e+00 -2.27001351e-01 4.58890873e-01
      vertex -1.49435227e+00 -2.17474999e-01 4.20000000e-01
      vertex -1.50396193e+00 -2.53830424e-01 4.20000000e-01
    endloop
  endfacet
  facet normal -9.02078278e-01 2.38442133e-01 3.59722295e-01
    outer loop
      vertex -1.48136179e+00 -2.27001351e-01 4.58890873e-01
      vertex -1.50396193e+00 -2.53830424e-01 4.20000000e-01
      vertex -1.49421907e+00 -2.60975188e-01 4.49168155e-01
    endloop
  endfacet
  facet normal -9.02078278e-01 2.38442133e-01 -3.59722295e-01
    outer loop
      vertex -1.49435227e+00 -2.17474999e-01 4.20000000e-01
      vertex -1.48136179e+00 -2.27001351e-01 3.81109127e-01
      vertex -1.49421907e+00 -2.60975188e-01 3.90831845e-01
    endloop
  endfacet
  facet normal -9.02078278e-01 2.38442133e-01 -3.59722295e-01
    outer loop
      vertex -1.49435227e+00 -2.17474999e-01 4.20000000e-01
      vertex -1.49421907e+00 -2.60975188e-01 3.90831845e-01
      vertex -1.50396193e+00 -2.53830424e-01 4.20000000e-01
    endloop
  endfacet
  facet normal -4.91840583e-01 -6.23988434e-02 -8.68446443e-01
    outer loop
      vertex -1.48136179e+00 -2.27001351e-01 3.81109127e-01
      vertex -1.45000000e+00 -2.50000000e-01 3.65000000e-01
      vertex -1.47069773e+00 -2.78224175e-01 3.78750000e-01
    endloop
  endfacet
  facet normal -4.91840583e-01 -6.23988434e-02 -8.68446443e-01
    outer loop
      vertex -1.48136179e+00 -2.27001351e-01 3.81109127e-01
      vertex -1.47069773e+00 -2.78224175e-01 3.78750000e-01
      vertex -1.49421907e+00 -2.60975188e-01 3.90831845e-01
    endloop
  endfacet
  facet normal 8.83231282e-02 -4.87852232e-01 -8.68446443e-01
    outer loop
      vertex -1.45000000e+00 -2.50000000e-01 3.65000000e-01
      vertex -1.41863821e+00 -2.72998649e-01 3.81109127e-01
      vertex -1.44717638e+00 -2.95473162e-01 3.90831845e-01
    endloop
  endfacet
  facet normal 8.83231282e-02 -4.87852232e-01 -8.68446443e-01
    outer loop
      vertex -1.45000000e+00 -2.50000000e-01 3.65000000e-01
      vertex -1.44717638e+00 -2.95473162e-01 3.90831845e-01
      vertex -1.47069773e+00 -2.78224175e-01 3.78750000e-01
    endloop
  endfacet
  facet normal 4.98560823e-01 -7.88693208e-01 -3.59722295e-01
    outer loop
      vertex -1.41863821e+00 -2.72998649e-01 3.81109127e-01
      vertex -1.40564773e+00 -2.82525001e-01 4.20000000e-01
      vertex -1.43743352e+00 -3.02617926e-01 4.20000000e-01
    endloop
  endfacet
  facet normal 4.98560823e-01 -7.88693208e-01 -3.59722295e-01
    outer loop
      vertex -1.41863821e+00 -2.72998649e-01 3.81109127e-01
      vertex -1.43743352e+00 -3.02617926e-01 4.20000000e-01
      vertex -1.44717638e+00 -2.95473162e-01 3.90831845e-01
    endloop
  endfacet
  facet normal -5.91363664e-01 -8.06404996e-01 0.00000000e+00
    outer loop
      vertex -1.45000000e+00 -2.50000000e-01 4.20000000e-01
      vertex -1.41863821e+00 -2.72998649e-01 4.58890873e-01
      vertex -1.45000000e+00 -2.50000000e-01 4.75000000e-01
    endloop
  endfacet
  facet normal 5.91363664e-01 8.06404996e-01 -0.00000000e+00
    outer loop
      vertex -1.47069773e+00 -2.78224175e-01 4.20000000e-01
      vertex -1.47069773e+00 -2.78224175e-01 4.61250000e-01
      vertex -1.44717638e+00 -2.95473162e-01 4.49168155e-01
    endloop
  endfacet
  facet normal -5.91363664e-01 -8.06404996e-01 0.00000000e+00
    outer loop
      vertex -1.45000000e+00 -2.50000000e-01 4.20000000e-01
      vertex -1.45000000e+00 -2.50000000e-01 4.75000000e-01
      vertex -1.48136179e+00 -2.27001351e-01 4.58890873e-01
    endloop
  endfacet
  facet normal 5.91363664e-01 8.06404996e-01 -0.00000000e+00
    outer loop
      vertex -1.47069773e+00 -2.78224175e-01 4.20000000e-01
      vertex -1.49421907e+00 -2.60975188e-01 4.49168155e-01
      vertex -1.47069773e+00 -2.78224175e-01 4.61250000e-01
    endloop
  endfacet
  facet normal -5.91363664e-01 -8.06404996e-01 -1.92612066e-15
    outer loop
      vertex -1.45000000e+00 -2.50000000e-01 4.20000000e-01
      vertex -1.48136179e+00 -2.27001351e-01 4.58890873e-01
      vertex -1.49435227e+00 -2.17474999e-01 4.20000000e-01
    endloop
  endfacet
  facet normal 5.91363664e-01 8.06404996e-01 1.98243997e-15
    outer loop
      vertex -1.47069773e+00 -2.78224175e-01 4.20000000e-01
      vertex -1.50396193e+00 -2.53830424e-01 4.20000000e-01
      vertex -1.49421907e+00 -2.60975188e-01 4.49168155e-01
    endloop
  endfacet
  facet normal -5.91363664e-01 -8.06404996e-01 1.92612066e-15
    outer loop
      vertex -1.45000000e+00 -2.50000000e-01 4.20000000e-01
      vertex -1.49435227e+00 -2.17474999e-01 4.20000000e-01
      vertex -1.48136179e+00 -2.27001351e-01 3.81109127e-01
    endloop
  endfacet
  facet normal 5.91363664e-01 8.06404996e-01 -1.98243997e-15
    outer loop
      vertex -1.47069773e+00 -2.78224175e-01 4.20000000e-01
      vertex -1.49421907e+00 -2.60975188e-01 3.90831845e-01
      vertex -1.50396193e+00 -2.53830424e-01 4.20000000e-01
    endloop
  endfacet
  facet normal -5.91363664e-01 -8.06404996e-01 -0.00000000e+00
    outer loop
      vertex -1.45000000e+00 -2.50000000e-01 4.20000000e-01
      vertex -1.48136179e+00 -2.27001351e-01 3.81109127e-01
      vertex -1.45000000e+00 -2.50000000e-01 3.65000000e-01
    endloop
  endfacet
  facet normal 5.91363664e-01 8.06404996e-01 0.00000000e+00
    outer loop
      vertex -1.47069773e+00 -2.78224175e-01 4.20000000e-01
      vertex -1.47069773e+00 -2.78224175e-01 3.78750000e-01
      vertex -1.49421907e+00 -2.60975188e-01 3.90831845e-01
    endloop
  endfacet
  facet normal -5.91363664e-01 -8.06404996e-01 -0.00000000e+00
    outer loop
      vertex -1.45000000e+00 -2.50000000e-01 4.20000000e-01
      vertex -1.45000000e+00 -2.50000000e-01 3.65000000e-01
      vertex -1.41863821e+00 -2.72998649e-01 3.81109127e-01
    endloop
  endfacet
  facet normal 5.91363664e-01 8.06404996e-01 0.00000000e+00
    outer loop
      vertex -1.47069773e+00 -2.78224175e-01 4.20000000e-01
      vertex -1.44717638e+00 -2.95473162e-01 3.90831845e-01
      vertex -1.47069773e+00 -2.78224175e-01 3.78750000e-01
    endloop
  endfacet
  facet normal -9.02078278e-01 -2.38442133e-01 3.59722295e-01
    outer loop
      vertex -1.49435227e+00 2.17474999e-01 4.20000000e-01
      vertex -1.48136179e+00 2.27001351e-01 4.58890873e-01
      vertex -1.49421907e+00 2.60975188e-01 4.49168155e-01
    endloop
  endfacet
  facet normal -9.02078278e-01 -2.38442133e-01 3.59722295e-01
    outer loop
      vertex -1.49435227e+00 2.17474999e-01 4.20000000e-01
      vertex -1.49421907e+00 2.60975188e-01 4.49168155e-01
      vertex -1.50396193e+00 2.53830424e-01 4.20000000e-01
    endloop
  endfacet
  facet normal -4.91840583e-01 6.23988434e-02 8.68446443e-01
    outer loop
      vertex -1.48136179e+00 2.27001351e-01 4.58890873e-01
      vertex -1.45000000e+00 2.50000000e-01 4.75000000e-01
      vertex -1.47069773e+00 2.78224175e-01 4.61250000e-01
    endloop
  endfacet
  facet normal -4.91840583e-01 6.23988434e-02 8.68446443e-01
    outer loop
      vertex -1.48136179e+00 2.27001351e-01 4.58890873e-01
      vertex -1.47069773e+00 2.78224175e-01 4.61250000e-01
      vertex -1.49421907e+00 2.60975188e-01 4.49168155e-01
    endloop
  endfacet
  facet normal 8.83231282e-02 4.87852232e-01 8.68446443e-01
    outer loop
      vertex -1.45000000e+00 2.50000000e-01 4.75000000e-01
      vertex -1.41863821e+00 2.72998649e-01 4.58890873e-01
      vertex -1.44717638e+00 2.95473162e-01 4.49168155e-01
    endloop
  endfacet
  facet normal 8.83231282e-02 4.87852232e-01 8.68446443e-01
    outer loop
      vertex -1.45000000e+00 2.50000000e-01 4.75000000e-01
      vertex -1.44717638e+00 2.95473162e-01 4.49168155e-01
      vertex -1.47069773e+00 2.78224175e-01 4.61250000e-01
    endloop
  endfacet
  facet normal 4.98560823e-01 7.88693208e-01 3.59722295e-01
    outer loop
      vertex -1.41863821e+00 2.72998649e-01 4.58890873e-01
      vertex -1.40564773e+00 2.82525001e-01 4.20000000e-01
      vertex -1.43743352e+00 3.02617926e-01 4.20000000e-01
    endloop
  endfacet
  facet normal 4.98560823e-01 7.88693208e-01 3.59722295e-01
    outer loop
      vertex -1.41863821e+00 2.72998649e-01 4.58890873e-01
      vertex -1.43743352e+00 3.02617926e-01 4.20000000e-01
      vertex -1.44717638e+00 2.95473162e-01 4.49168155e-01
    endloop
  endfacet
  facet normal 4.98560823e-01 7.88693208e-01 -3.59722295e-01
    outer loop
      vertex -1.40564773e+00 2.82525001e-01 4.20000000e-01
      vertex -1.41863821e+00 2.72998649e-01 3.81109127e-01
      vertex -1.44717638e+00 2.95473162e-01 3.90831845e-01
    endloop
  endfacet
  facet normal 4.98560823e-01 7.88693208e-01 -3.59722295e-01
    outer loop
      vertex -1.40564773e+00 2.82525001e-01 4.20000000e-01
      vertex -1.44717638e+00 2.95473162e-01 3.90831845e-01
      vertex -1.43743352e+00 3.02617926e-01 4.20000000e-01
    endloop
  endfacet
  facet normal 8.83231282e-02 4.87852232e-01 -8.68446443e-01
    outer loop
      vertex -1.41863821e+00 2.72998649e-01 3.81109127e-01
      vertex -1.45000000e+00 2.50000000e-01 3.65000000e-01
      vertex -1.47069773e+00 2.78224175e-01 3.78750000e-01
    endloop
  endfacet
  facet normal 8.83231282e-02 4.87852232e-01 -8.68446443e-01
    outer loop
      vertex -1.41863821e+00 2.72998649e-01 3.81109127e-01
      vertex -1.47069773e+00 2.78224175e-01 3.78750000e-01
      vertex -1.44717638e+00 2.95473162e-01 3.90831845e-01
    endloop
  endfacet
  facet normal -4.91840583e-01 6.23988434e-02 -8.68446443e-01
    outer loop
      vertex -1.45000000e+00 2.50000000e-01 3.65000000e-01
      vertex -1.48136179e+00 2.27001351e-01 3.81109127e-01
      vertex -1.49421907e+00 2.60975188e-01 3.90831845e-01
    endloop
  endfacet
  facet normal -4.91840583e-01 6.23988434e-02 -8.68446443e-01
    outer loop
      vertex -1.45000000e+00 2.50000000e-01 3.65000000e-01
      vertex -1.49421907e+00 2.60975188e-01 3.90831845e-01
      vertex -1.47069773e+00 2.78224175e-01 3.78750000e-01
    endloop
  endfacet
  facet normal -9.02078278e-01 -2.38442133e-01 -3.59722295e-01
    outer loop
      vertex -1.48136179e+00 2.27001351e-01 3.81109127e-01
      vertex -1.49435227e+00 2.17474999e-01 4.20000000e-01
      vertex -1.50396193e+00 2.53830424e-01 4.20000000e-01
    endloop
  endfacet
  facet normal -9.02078278e-01 -2.38442133e-01 -3.59722295e-01
    outer loop
      vertex -1.48136179e+00 2.27001351e-01 3.81109127e-01
      vertex -1.50396193e+00 2.53830424e-01 4.20000000e-01
      vertex -1.49421907e+00 2.60975188e-01 3.90831845e-01
    endloop
  endfacet
  facet normal -5.91363664e-01 8.06404996e-01 0.00000000e+00
    outer loop
      vertex -1.45000000e+00 2.50000000e-01 4.20000000e-01
      vertex -1.48136179e+00 2.27001351e-01 4.58890873e-01
      vertex -1.45000000e+00 2.50000000e-01 4.75000000e-01
    endloop
  endfacet
  facet normal 5.91363664e-01 -8.06404996e-01 0.00000000e+00
    outer loop
      vertex -1.47069773e+00 2.78224175e-01 4.20000000e-01
      vertex -1.47069773e+00 2.78224175e-01 4.61250000e-01
      vertex -1.49421907e+00 2.60975188e-01 4.49168155e-01
    endloop
  endfacet
  facet normal -5.91363664e-01 8.06404996e-01 0.00000000e+00
    outer loop
      vertex -1.45000000e+00 2.50000000e-01 4.20000000e-01
      vertex -1.45000000e+00 2.50000000e-01 4.75000000e-01
      vertex -1.41863821e+00 2.72998649e-01 4.58890873e-01
    endloop
  endfacet
  facet normal 5.91363664e-01 -8.06404996e-01 0.00000000e+00
    outer loop
      vertex -1.47069773e+00 2.78224175e-01 4.20000000e-01
      vertex -1.44717638e+00 2.95473162e-01 4.49168155e-01
      vertex -1.47069773e+00 2.78224175e-01 4.61250000e-01
    endloop
  endfacet
  facet normal -5.91363664e-01 8.06404996e-01 1.92612066e-15
    outer loop
      vertex -1.45000000e+00 2.50000000e-01 4.20000000e-01
      vertex -1.41863821e+00 2.72998649e-01 4.58890873e-01
      vertex -1.40564773e+00 2.82525001e-01 4.20000000e-01
    endloop
  endfacet
  facet normal 5.91363664e-01 -8.06404996e-01 -1.98243997e-15
    outer loop
      vertex -1.47069773e+00 2.78224175e-01 4.20000000e-01
      vertex -1.43743352e+00 3.02617926e-01 4.20000000e-01
      vertex -1.44717638e+00 2.95473162e-01 4.49168155e-01
    endloop
  endfacet
  facet normal -5.91363664e-01 8.06404996e-01 -1.92612066e-15
    outer loop
      vertex -1.45000000e+00 2.50000000e-01 4.20000000e-01
      vertex -1.40564773e+00 2.82525001e-01 4.20000000e-01
      vertex -1.41863821e+00 2.72998649e-01 3.81109127e-01
    endloop
  endfacet
  facet normal 5.91363664e-01 -8.06404996e-01 1.98243997e-15
    outer loop
      vertex -1.47069773e+00 2.78224175e-01 4.20000000e-01
      vertex -1.44717638e+00 2.95473162e-01 3.90831845e-01
      vertex -1.43743352e+00 3.02617926e-01 4.20000000e-01
    endloop
  endfacet
  facet normal -5.91363664e-01 8.06404996e-01 0.00000000e+00
    outer loop
      vertex -1.45000000e+00 2.50000000e-01 4.20000000e-01
      vertex -1.41863821e+00 2.72998649e-01 3.81109127e-01
      vertex -1.45000000e+00 2.50000000e-01 3.65000000e-01
    endloop
  endfacet
  facet normal 5.91363664e-01 -8.06404996e-01 0.00000000e+00
    outer loop
      vertex -1.47069773e+00 2.78224175e-01 4.20000000e-01
      vertex -1.47069773e+00 2.78224175e-01 3.78750000e-01
      vertex -1.44717638e+00 2.95473162e-01 3.90831845e-01
    endloop
  endfacet
  facet normal -5.91363664e-01 8.06404996e-01 0.00000000e+00
    outer loop
      vertex -1.45000000e+00 2.50000000e-01 4.20000000e-01
      vertex -1.45000000e+00 2.50000000e-01 3.65000000e-01
      vertex -1.48136179e+00 2.27001351e-01 3.81109127e-01
    endloop
  endfacet
  facet normal 5.91363664e-01 -8.06404996e-01 0.00000000e+00
    outer loop
      vertex -1.47069773e+00 2.78224175e-01 4.20000000e-01
      vertex -1.49421907e+00 2.60975188e-01 3.90831845e-01
      vertex -1.47069773e+00 2.78224175e-01 3.78750000e-01
    endloop
  endfacet
endsolid glce_lowpoly_whale
