solid glce_lowpoly_fish
  facet normal 1.40356502e-01 8.97473450e-02 9.86025084e-01
    outer loop
      vertex -2.00000000e-01 0.00000000e+00 6.60000000e-01
      vertex 4.17174515e-01 0.00000000e+00 5.72147817e-01
      vertex 3.34488808e-01 1.29312756e-01 5.72147817e-01
    endloop
  endfacet
  facet normal 1.00611508e-01 2.40095645e-01 9.65521313e-01
    outer loop
      vertex -2.00000000e-01 0.00000000e+00 6.60000000e-01
      vertex 3.34488808e-01 1.29312756e-01 5.72147817e-01
      vertex 1.08587257e-01 2.23976263e-01 5.72147817e-01
    endloop
  endfacet
  facet normal 3.60911662e-02 3.21429021e-01 9.46245641e-01
    outer loop
      vertex -2.00000000e-01 0.00000000e+00 6.60000000e-01
      vertex 1.08587257e-01 2.23976263e-01 5.72147817e-01
      vertex -2.00000000e-01 2.58625511e-01 5.72147817e-01
    endloop
  endfacet
  facet normal -3.60911662e-02 3.21429021e-01 9.46245641e-01
    outer loop
      vertex -2.00000000e-01 0.00000000e+00 6.60000000e-01
      vertex -2.00000000e-01 2.58625511e-01 5.72147817e-01
      vertex -5.08587257e-01 2.23976263e-01 5.72147817e-01
    endloop
  endfacet
  facet normal -1.00611508e-01 2.40095645e-01 9.65521313e-01
    outer loop
      vertex -2.00000000e-01 0.00000000e+00 6.60000000e-01
      vertex -5.08587257e-01 2.23976263e-01 5.72147817e-01
      vertex -7.34488808e-01 1.29312756e-01 5.72147817e-01
    endloop
  endfacet
  facet normal -1.40356502e-01 8.97473450e-02 9.86025084e-01
    outer loop
      vertex -2.00000000e-01 0.00000000e+00 6.60000000e-01
      vertex -7.34488808e-01 1.29312756e-01 5.72147817e-01
      vertex -8.17174515e-01 3.16724904e-17 5.72147817e-01
    endloop
  endfacet
  facet normal -1.40356502e-01 -8.97473450e-02 9.86025084e-01
    outer loop
      vertex -2.00000000e-01 0.00000000e+00 6.60000000e-01
      vertex -8.17174515e-01 3.16724904e-17 5.72147817e-01
      vertex -7.34488808e-01 -1.29312756e-01 5.72147817e-01
    endloop
  endfacet
  facet normal -1.00611508e-01 -2.40095645e-01 9.65521313e-01
    outer loop
      vertex -2.00000000e-01 0.00000000e+00 6.60000000e-01
      vertex -7.34488808e-01 -1.29312756e-01 5.72147817e-01
      vertex -5.08587257e-01 -2.23976263e-01 5.72147817e-01
    endloop
  endfacet
  facet normal -3.60911662e-02 -3.21429021e-01 9.46245641e-01
    outer loop
      vertex -2.00000000e-01 0.00000000e+00 6.60000000e-01
      vertex -5.08587257e-01 -2.23976263e-01 5.72147817e-01
      vertex -2.00000000e-01 -2.58625511e-01 5.72147817e-01
    endloop
  endfacet
  facet normal 3.60911662e-02 -3.21429021e-01 9.46245641e-01
    outer loop
      vertex -2.00000000e-01 0.00000000e+00 6.60000000e-01
      vertex -2.00000000e-01 -2.58625511e-01 5.72147817e-01
      vertex 1.08587257e-01 -2.23976263e-01 5.72147817e-01
    endloop
  endfacet
  facet normal 1.00611508e-01 -2.40095645e-01 9.65521313e-01
    outer loop
      vertex -2.00000000e-01 0.00000000e+00 6.60000000e-01
      vertex 1.08587257e-01 -2.23976263e-01 5.72147817e-01
      vertex 3.34488808e-01 -1.29312756e-01 5.72147817e-01
    endloop
  endfacet
  facet normal 1.40356502e-01 -8.97473450e-02 9.86025084e-01
    outer loop
      vertex -2.00000000e-01 0.00000000e+00 6.60000000e-01
      vertex 3.34488808e-01 -1.29312756e-01 5.72147817e-01
      vertex 4.17174515e-01 0.00000000e+00 5.72147817e-01
    endloop
  endfacet
  facet normal 4.90337803e-01 3.13533862e-01 8.13182240e-01
    outer loop
      vertex 4.17174515e-01 0.00000000e+00 5.72147817e-01
      vertex 7.98609342e-01 0.00000000e+00 3.42147817e-01
      vertex 6.64821059e-01 2.09232434e-01 3.42147817e-01
    endloop
  endfacet
  facet normal 4.90337803e-01 3.13533862e-01 8.13182240e-01
    outer loop
      vertex 4.17174515e-01 0.00000000e+00 5.72147817e-01
      vertex 6.64821059e-01 2.09232434e-01 3.42147817e-01
      vertex 3.34488808e-01 1.29312756e-01 5.72147817e-01
    endloop
  endfacet
  facet normal 2.90779763e-01 6.93906254e-01 6.58742165e-01
    outer loop
      vertex 3.34488808e-01 1.29312756e-01 5.72147817e-01
      vertex 6.64821059e-01 2.09232434e-01 3.42147817e-01
      vertex 2.99304671e-01 3.62401206e-01 3.42147817e-01
    endloop
  endfacet
  facet normal 2.90779763e-01 6.93906254e-01 6.58742165e-01
    outer loop
      vertex 3.34488808e-01 1.29312756e-01 5.72147817e-01
      vertex 2.99304671e-01 3.62401206e-01 3.42147817e-01
      vertex 1.08587257e-01 2.23976263e-01 5.72147817e-01
    endloop
  endfacet
  facet normal 9.18148039e-02 8.17705429e-01 5.68267432e-01
    outer loop
      vertex 1.08587257e-01 2.23976263e-01 5.72147817e-01
      vertex 2.99304671e-01 3.62401206e-01 3.42147817e-01
      vertex -2.00000000e-01 4.18464867e-01 3.42147817e-01
    endloop
  endfacet
  facet normal 9.18148039e-02 8.17705429e-01 5.68267432e-01
    outer loop
      vertex 1.08587257e-01 2.23976263e-01 5.72147817e-01
      vertex -2.00000000e-01 4.18464867e-01 3.42147817e-01
      vertex -2.00000000e-01 2.58625511e-01 5.72147817e-01
    endloop
  endfacet
  facet normal -9.18148039e-02 8.17705429e-01 5.68267432e-01
    outer loop
      vertex -2.00000000e-01 2.58625511e-01 5.72147817e-01
      vertex -2.00000000e-01 4.18464867e-01 3.42147817e-01
      vertex -6.99304671e-01 3.62401206e-01 3.42147817e-01
    endloop
  endfacet
  facet normal -9.18148039e-02 8.17705429e-01 5.68267432e-01
    outer loop
      vertex -2.00000000e-01 2.58625511e-01 5.72147817e-01
      vertex -6.99304671e-01 3.62401206e-01 3.42147817e-01
      vertex -5.08587257e-01 2.23976263e-01 5.72147817e-01
    endloop
  endfacet
  facet normal -2.90779763e-01 6.93906254e-01 6.58742165e-01
    outer loop
      vertex -5.08587257e-01 2.23976263e-01 5.72147817e-01
      vertex -6.99304671e-01 3.62401206e-01 3.42147817e-01
      vertex -1.06482106e+00 2.09232434e-01 3.42147817e-01
    endloop
  endfacet
  facet normal -2.90779763e-01 6.93906254e-01 6.58742165e-01
    outer loop
      vertex -5.08587257e-01 2.23976263e-01 5.72147817e-01
      vertex -1.06482106e+00 2.09232434e-01 3.42147817e-01
      vertex -7.34488808e-01 1.29312756e-01 5.72147817e-01
    endloop
  endfacet
  facet normal -4.90337803e-01 3.13533862e-01 8.13182240e-01
    outer loop
      vertex -7.34488808e-01 1.29312756e-01 5.72147817e-01
      vertex -1.06482106e+00 2.09232434e-01 3.42147817e-01
      vertex -1.19860934e+00 5.12471660e-17 3.42147817e-01
    endloop
  endfacet
  facet normal -4.90337803e-01 3.13533862e-01 8.13182240e-01
    outer loop
      vertex -7.34488808e-01 1.29312756e-01 5.72147817e-01
      vertex -1.19860934e+00 5.12471660e-17 3.42147817e-01
      vertex -8.17174515e-01 3.16724904e-17 5.72147817e-01
    endloop
  endfacet
  facet normal -4.90337803e-01 -3.13533862e-01 8.13182240e-01
    outer loop
      vertex -8.17174515e-01 3.16724904e-17 5.72147817e-01
      vertex -1.19860934e+00 5.12471660e-17 3.42147817e-01
      vertex -1.06482106e+00 -2.09232434e-01 3.42147817e-01
    endloop
  endfacet
  facet normal -4.90337803e-01 -3.13533862e-01 8.13182240e-01
    outer loop
      vertex -8.17174515e-01 3.16724904e-17 5.72147817e-01
      vertex -1.06482106e+00 -2.09232434e-01 3.42147817e-01
      vertex -7.34488808e-01 -1.29312756e-01 5.72147817e-01
    endloop
  endfacet
  facet normal -2.90779763e-01 -6.93906254e-01 6.58742165e-01
    outer loop
      vertex -7.34488808e-01 -1.29312756e-01 5.72147817e-01
      vertex -1.06482106e+00 -2.09232434e-01 3.42147817e-01
      vertex -6.99304671e-01 -3.62401206e-01 3.42147817e-01
    endloop
  endfacet
  facet normal -2.90779763e-01 -6.93906254e-01 6.58742165e-01
    outer loop
      vertex -7.34488808e-01 -1.29312756e-01 5.72147817e-01
      vertex -6.99304671e-01 -3.62401206e-01 3.42147817e-01
      vertex -5.08587257e-01 -2.23976263e-01 5.72147817e-01
    endloop
  endfacet
  facet normal -9.18148039e-02 -8.17705429e-01 5.68267432e-01
    outer loop
      vertex -5.08587257e-01 -2.23976263e-01 5.72147817e-01
      vertex -6.99304671e-01 -3.62401206e-01 3.42147817e-01
      vertex -2.00000000e-01 -4.18464867e-01 3.42147817e-01
    endloop
  endfacet
  facet normal -9.18148039e-02 -8.17705429e-01 5.68267432e-01
    outer loop
      vertex -5.08587257e-01 -2.23976263e-01 5.72147817e-01
      vertex -2.00000000e-01 -4.18464867e-01 3.42147817e-01
      vertex -2.00000000e-01 -2.58625511e-01 5.72147817e-01
    endloop
  endfacet
  facet normal 9.18148039e-02 -8.17705429e-01 5.68267432e-01
    outer loop
      vertex -2.00000000e-01 -2.58625511e-01 5.72147817e-01
      vertex -2.00000000e-01 -4.18464867e-01 3.42147817e-01
      vertex 2.99304671e-01 -3.62401206e-01 3.42147817e-01
    endloop
  endfacet
  facet normal 9.18148039e-02 -8.17705429e-01 5.68267432e-01
    outer loop
      vertex -2.00000000e-01 -2.58625511e-01 5.72147817e-01
      vertex 2.99304671e-01 -3.62401206e-01 3.42147817e-01
      vertex 1.08587257e-01 -2.23976263e-01 5.72147817e-01
    endloop
  endfacet
  facet normal 2.90779763e-01 -6.93906254e-01 6.58742165e-01
    outer loop
      vertex 1.08587257e-01 -2.23976263e-01 5.72147817e-01
      vertex 2.99304671e-01 -3.62401206e-01 3.42147817e-01
      vertex 6.64821059e-01 -2.09232434e-01 3.42147817e-01
    endloop
  endfacet
  facet normal 2.90779763e-01 -6.93906254e-01 6.58742165e-01
    outer loop
      vertex 1.08587257e-01 -2.23976263e-01 5.72147817e-01
      vertex 6.64821059e-01 -2.09232434e-01 3.42147817e-01
      vertex 3.34488808e-01 -1.29312756e-01 5.72147817e-01
    endloop
  endfacet
  facet normal 4.90337803e-01 -3.13533862e-01 8.13182240e-01
    outer loop
      vertex 3.34488808e-01 -1.29312756e-01 5.72147817e-01
      vertex 6.64821059e-01 -2.09232434e-01 3.42147817e-01
      vertex 7.98609342e-01 0.00000000e+00 3.42147817e-01
    endloop
  endfacet
  facet normal 4.90337803e-01 -3.13533862e-01 8.13182240e-01
    outer loop
      vertex 3.34488808e-01 -1.29312756e-01 5.72147817e-01
      vertex 7.98609342e-01 0.00000000e+00 3.42147817e-01
      vertex 4.17174515e-01 0.00000000e+00 5.72147817e-01
    endloop
  endfacet
  facet normal 8.42491580e-01 5.38709512e-01 6.58014711e-16
    outer loop
      vertex 7.98609342e-01 0.00000000e+00 3.42147817e-01
      vertex 7.98609342e-01 0.00000000e+00 5.78521826e-02
      vertex 6.64821059e-01 2.09232434e-01 5.78521826e-02
    endloop
  endfacet
  facet normal 8.42491580e-01 5.38709512e-01 6.87946489e-16
    outer loop
      vertex 7.98609342e-01 0.00000000e+00 3.42147817e-01
      vertex 6.64821059e-01 2.09232434e-01 5.78521826e-02
      vertex 6.64821059e-01 2.09232434e-01 3.42147817e-01
    endloop
  endfacet
  facet normal 3.86485692e-01 9.22295403e-01 3.01858532e-16
    outer loop
      vertex 6.64821059e-01 2.09232434e-01 3.42147817e-01
      vertex 6.64821059e-01 2.09232434e-01 5.78521826e-02
      vertex 2.99304671e-01 3.62401206e-01 5.78521826e-02
    endloop
  endfacet
  facet normal 3.86485692e-01 9.22295403e-01 6.15861771e-17
    outer loop
      vertex 6.64821059e-01 2.09232434e-01 3.42147817e-01
      vertex 2.99304671e-01 3.62401206e-01 5.78521826e-02
      vertex 2.99304671e-01 3.62401206e-01 3.42147817e-01
    endloop
  endfacet
  facet normal 1.11582283e-01 9.93755198e-01 2.17873939e-17
    outer loop
      vertex 2.99304671e-01 3.62401206e-01 3.42147817e-01
      vertex 2.99304671e-01 3.62401206e-01 5.78521826e-02
      vertex -2.00000000e-01 4.18464867e-01 5.78521826e-02
    endloop
  endfacet
  facet normal 1.11582283e-01 9.93755198e-01 0.00000000e+00
    outer loop
      vertex 2.99304671e-01 3.62401206e-01 3.42147817e-01
      vertex -2.00000000e-01 4.18464867e-01 5.78521826e-02
      vertex -2.00000000e-01 4.18464867e-01 3.42147817e-01
    endloop
  endfacet
  facet normal -1.11582283e-01 9.93755198e-01 0.00000000e+00
    outer loop
      vertex -2.00000000e-01 4.18464867e-01 3.42147817e-01
      vertex -2.00000000e-01 4.18464867e-01 5.78521826e-02
      vertex -6.99304671e-01 3.62401206e-01 5.78521826e-02
    endloop
  endfacet
  facet normal -1.11582283e-01 9.93755198e-01 4.85773523e-17
    outer loop
      vertex -2.00000000e-01 4.18464867e-01 3.42147817e-01
      vertex -6.99304671e-01 3.62401206e-01 5.78521826e-02
      vertex -6.99304671e-01 3.62401206e-01 3.42147817e-01
    endloop
  endfacet
  facet normal -3.86485692e-01 9.22295403e-01 1.50929266e-16
    outer loop
      vertex -6.99304671e-01 3.62401206e-01 3.42147817e-01
      vertex -6.99304671e-01 3.62401206e-01 5.78521826e-02
      vertex -1.06482106e+00 2.09232434e-01 5.78521826e-02
    endloop
  endfacet
  facet normal -3.86485692e-01 9.22295403e-01 0.00000000e+00
    outer loop
      vertex -6.99304671e-01 3.62401206e-01 3.42147817e-01
      vertex -1.06482106e+00 2.09232434e-01 5.78521826e-02
      vertex -1.06482106e+00 2.09232434e-01 3.42147817e-01
    endloop
  endfacet
  facet normal -8.42491580e-01 5.38709512e-01 0.00000000e+00
    outer loop
      vertex -1.06482106e+00 2.09232434e-01 3.42147817e-01
      vertex -1.06482106e+00 2.09232434e-01 5.78521826e-02
      vertex -1.19860934e+00 5.12471660e-17 5.78521826e-02
    endloop
  endfacet
  facet normal -8.42491580e-01 5.38709512e-01 0.00000000e+00
    outer loop
      vertex -1.06482106e+00 2.09232434e-01 3.42147817e-01
      vertex -1.19860934e+00 5.12471660e-17 5.78521826e-02
      vertex -1.19860934e+00 5.12471660e-17 3.42147817e-01
    endloop
  endfacet
  facet normal -8.42491580e-01 -5.38709512e-01 -0.00000000e+00
    outer loop
      vertex -1.19860934e+00 5.12471660e-17 3.42147817e-01
      vertex -1.19860934e+00 5.12471660e-17 5.78521826e-02
      vertex -1.06482106e+00 -2.09232434e-01 5.78521826e-02
    endloop
  endfacet
  facet normal -8.42491580e-01 -5.38709512e-01 6.87946489e-16
    outer loop
      vertex -1.19860934e+00 5.12471660e-17 3.42147817e-01
      vertex -1.06482106e+00 -2.09232434e-01 5.78521826e-02
      vertex -1.06482106e+00 -2.09232434e-01 3.42147817e-01
    endloop
  endfacet
  facet normal -3.86485692e-01 -9.22295403e-01 3.01858532e-16
    outer loop
      vertex -1.06482106e+00 -2.09232434e-01 3.42147817e-01
      vertex -1.06482106e+00 -2.09232434e-01 5.78521826e-02
      vertex -6.99304671e-01 -3.62401206e-01 5.78521826e-02
    endloop
  endfacet
  facet normal -3.86485692e-01 -9.22295403e-01 1.84758531e-16
    outer loop
      vertex -1.06482106e+00 -2.09232434e-01 3.42147817e-01
      vertex -6.99304671e-01 -3.62401206e-01 5.78521826e-02
      vertex -6.99304671e-01 -3.62401206e-01 3.42147817e-01
    endloop
  endfacet
  facet normal -1.11582283e-01 -9.93755198e-01 4.35747879e-17
    outer loop
      vertex -6.99304671e-01 -3.62401206e-01 3.42147817e-01
      vertex -6.99304671e-01 -3.62401206e-01 5.78521826e-02
      vertex -2.00000000e-01 -4.18464867e-01 5.78521826e-02
    endloop
  endfacet
  facet normal -1.11582283e-01 -9.93755198e-01 0.00000000e+00
    outer loop
      vertex -6.99304671e-01 -3.62401206e-01 3.42147817e-01
      vertex -2.00000000e-01 -4.18464867e-01 5.78521826e-02
      vertex -2.00000000e-01 -4.18464867e-01 3.42147817e-01
    endloop
  endfacet
  facet normal 1.11582283e-01 -9.93755198e-01 0.00000000e+00
    outer loop
      vertex -2.00000000e-01 -4.18464867e-01 3.42147817e-01
      vertex -2.00000000e-01 -4.18464867e-01 5.78521826e-02
      vertex 2.99304671e-01 -3.62401206e-01 5.78521826e-02
    endloop
  endfacet
  facet normal 1.11582283e-01 -9.93755198e-01 2.42886762e-17
    outer loop
      vertex -2.00000000e-01 -4.18464867e-01 3.42147817e-01
      vertex 2.99304671e-01 -3.62401206e-01 5.78521826e-02
      vertex 2.99304671e-01 -3.62401206e-01 3.42147817e-01
    endloop
  endfacet
  facet normal 3.86485692e-01 -9.22295403e-01 7.54646329e-17
    outer loop
      vertex 2.99304671e-01 -3.62401206e-01 3.42147817e-01
      vertex 2.99304671e-01 -3.62401206e-01 5.78521826e-02
      vertex 6.64821059e-01 -2.09232434e-01 5.78521826e-02
    endloop
  endfacet
  facet normal 3.86485692e-01 -9.22295403e-01 0.00000000e+00
    outer loop
      vertex 2.99304671e-01 -3.62401206e-01 3.42147817e-01
      vertex 6.64821059e-01 -2.09232434e-01 5.78521826e-02
      vertex 6.64821059e-01 -2.09232434e-01 3.42147817e-01
    endloop
  endfacet
  facet normal 8.42491580e-01 -5.38709512e-01 0.00000000e+00
    outer loop
      vertex 6.64821059e-01 -2.09232434e-01 3.42147817e-01
      vertex 6.64821059e-01 -2.09232434e-01 5.78521826e-02
      vertex 7.98609342e-01 0.00000000e+00 5.78521826e-02
    endloop
  endfacet
  facet normal 8.42491580e-01 -5.38709512e-01 6.38807454e-16
    outer loop
      vertex 6.64821059e-01 -2.09232434e-01 3.42147817e-01
      vertex 7.98609342e-01 0.00000000e+00 5.78521826e-02
      vertex 7.98609342e-01 0.00000000e+00 3.42147817e-01
    endloop
  endfacet
  facet normal 4.90337803e-01 3.13533862e-01 -8.13182240e-01
    outer loop
      vertex 7.98609342e-01 0.00000000e+00 5.78521826e-02
      vertex 4.17174515e-01 0.00000000e+00 -1.72147817e-01
      vertex 3.34488808e-01 1.29312756e-01 -1.72147817e-01
    endloop
  endfacet
  facet normal 4.90337803e-01 3.13533862e-01 -8.13182240e-01
    outer loop
      vertex 7.98609342e-01 0.00000000e+00 5.78521826e-02
      vertex 3.34488808e-01 1.29312756e-01 -1.72147817e-01
      vertex 6.64821059e-01 2.09232434e-01 5.78521826e-02
    endloop
  endfacet
  facet normal 2.90779763e-01 6.93906254e-01 -6.58742165e-01
    outer loop
      vertex 6.64821059e-01 2.09232434e-01 5.78521826e-02
      vertex 3.34488808e-01 1.29312756e-01 -1.72147817e-01
      vertex 1.08587257e-01 2.23976263e-01 -1.72147817e-01
    endloop
  endfacet
  facet normal 2.90779763e-01 6.93906254e-01 -6.58742165e-01
    outer loop
      vertex 6.64821059e-01 2.09232434e-01 5.78521826e-02
      vertex 1.08587257e-01 2.23976263e-01 -1.72147817e-01
      vertex 2.99304671e-01 3.62401206e-01 5.78521826e-02
    endloop
  endfacet
  facet normal 9.18148039e-02 8.17705429e-01 -5.68267432e-01
    outer loop
      vertex 2.99304671e-01 3.62401206e-01 5.78521826e-02
      vertex 1.08587257e-01 2.23976263e-01 -1.72147817e-01
      vertex -2.00000000e-01 2.58625511e-01 -1.72147817e-01
    endloop
  endfacet
  facet normal 9.18148039e-02 8.17705429e-01 -5.68267432e-01
    outer loop
      vertex 2.99304671e-01 3.62401206e-01 5.78521826e-02
      vertex -2.00000000e-01 2.58625511e-01 -1.72147817e-01
      vertex -2.00000000e-01 4.18464867e-01 5.78521826e-02
    endloop
  endfacet
  facet normal -9.18148039e-02 8.17705429e-01 -5.68267432e-01
    outer loop
      vertex -2.00000000e-01 4.18464867e-01 5.78521826e-02
      vertex -2.00000000e-01 2.58625511e-01 -1.72147817e-01
      vertex -5.08587257e-01 2.23976263e-01 -1.72147817e-01
    endloop
  endfacet
  facet normal -9.18148039e-02 8.17705429e-01 -5.68267432e-01
    outer loop
      vertex -2.00000000e-01 4.18464867e-01 5.78521826e-02
      vertex -5.08587257e-01 2.23976263e-01 -1.72147817e-01
      vertex -6.99304671e-01 3.62401206e-01 5.78521826e-02
    endloop
  endfacet
  facet normal -2.90779763e-01 6.93906254e-01 -6.58742165e-01
    outer loop
      vertex -6.99304671e-01 3.62401206e-01 5.78521826e-02
      vertex -5.08587257e-01 2.23976263e-01 -1.72147817e-01
      vertex -7.34488808e-01 1.29312756e-01 -1.72147817e-01
    endloop
  endfacet
  facet normal -2.90779763e-01 6.93906254e-01 -6.58742165e-01
    outer loop
      vertex -6.99304671e-01 3.62401206e-01 5.78521826e-02
      vertex -7.34488808e-01 1.29312756e-01 -1.72147817e-01
      vertex -1.06482106e+00 2.09232434e-01 5.78521826e-02
    endloop
  endfacet
  facet normal -4.90337803e-01 3.13533862e-01 -8.13182240e-01
    outer loop
      vertex -1.06482106e+00 2.09232434e-01 5.78521826e-02
      vertex -7.34488808e-01 1.29312756e-01 -1.72147817e-01
      vertex -8.17174515e-01 3.16724904e-17 -1.72147817e-01
    endloop
  endfacet
  facet normal -4.90337803e-01 3.13533862e-01 -8.13182240e-01
    outer loop
      vertex -1.06482106e+00 2.09232434e-01 5.78521826e-02
      vertex -8.17174515e-01 3.16724904e-17 -1.72147817e-01
      vertex -1.19860934e+00 5.12471660e-17 5.78521826e-02
    endloop
  endfacet
  facet normal -4.90337803e-01 -3.13533862e-01 -8.13182240e-01
    outer loop
      vertex -1.19860934e+00 5.12471660e-17 5.78521826e-02
      vertex -8.17174515e-01 3.16724904e-17 -1.72147817e-01
      vertex -7.34488808e-01 -1.29312756e-01 -1.72147817e-01
    endloop
  endfacet
  facet normal -4.90337803e-01 -3.13533862e-01 -8.13182240e-01
    outer loop
      vertex -1.19860934e+00 5.12471660e-17 5.78521826e-02
      vertex -7.34488808e-01 -1.29312756e-01 -1.72147817e-01
      vertex -1.06482106e+00 -2.09232434e-01 5.78521826e-02
    endloop
  endfacet
  facet normal -2.90779763e-01 -6.93906254e-01 -6.58742165e-01
    outer loop
      vertex -1.06482106e+00 -2.09232434e-01 5.78521826e-02
      vertex -7.34488808e-01 -1.29312756e-01 -1.72147817e-01
      vertex -5.08587257e-01 -2.23976263e-01 -1.72147817e-01
    endloop
  endfacet
  facet normal -2.90779763e-01 -6.93906254e-01 -6.58742165e-01
    outer loop
      vertex -1.06482106e+00 -2.09232434e-01 5.78521826e-02
      vertex -5.08587257e-01 -2.23976263e-01 -1.72147817e-01
      vertex -6.99304671e-01 -3.62401206e-01 5.78521826e-02
    endloop
  endfacet
  facet normal -9.18148039e-02 -8.17705429e-01 -5.68267432e-01
    outer loop
      vertex -6.99304671e-01 -3.62401206e-01 5.78521826e-02
      vertex -5.08587257e-01 -2.23976263e-01 -1.72147817e-01
      vertex -2.00000000e-01 -2.58625511e-01 -1.72147817e-01
    endloop
  endfacet
  facet normal -9.18148039e-02 -8.17705429e-01 -5.68267432e-01
    outer loop
      vertex -6.99304671e-01 -3.62401206e-01 5.78521826e-02
      vertex -2.00000000e-01 -2.58625511e-01 -1.72147817e-01
      vertex -2.00000000e-01 -4.18464867e-01 5.78521826e-02
    endloop
  endfacet
  facet normal 9.18148039e-02 -8.17705429e-01 -5.68267432e-01
    outer loop
      vertex -2.00000000e-01 -4.18464867e-01 5.78521826e-02
      vertex -2.00000000e-01 -2.58625511e-01 -1.72147817e-01
      vertex 1.08587257e-01 -2.23976263e-01 -1.72147817e-01
    endloop
  endfacet
  facet normal 9.18148039e-02 -8.17705429e-01 -5.68267432e-01
    outer loop
      vertex -2.00000000e-01 -4.18464867e-01 5.78521826e-02
      vertex 1.08587257e-01 -2.23976263e-01 -1.72147817e-01
      vertex 2.99304671e-01 -3.62401206e-01 5.78521826e-02
    endloop
  endfacet
  facet normal 2.90779763e-01 -6.93906254e-01 -6.58742165e-01
    outer loop
      vertex 2.99304671e-01 -3.62401206e-01 5.78521826e-02
      vertex 1.08587257e-01 -2.23976263e-01 -1.72147817e-01
      vertex 3.34488808e-01 -1.29312756e-01 -1.72147817e-01
    endloop
  endfacet
  facet normal 2.90779763e-01 -6.93906254e-01 -6.58742165e-01
    outer loop
      vertex 2.99304671e-01 -3.62401206e-01 5.78521826e-02
      vertex 3.34488808e-01 -1.29312756e-01 -1.72147817e-01
      vertex 6.64821059e-01 -2.09232434e-01 5.78521826e-02
    endloop
  endfacet
  facet normal 4.90337803e-01 -3.13533862e-01 -8.13182240e-01
    outer loop
      vertex 6.64821059e-01 -2.09232434e-01 5.78521826e-02
      vertex 3.34488808e-01 -1.29312756e-01 -1.72147817e-01
      vertex 4.17174515e-01 0.00000000e+00 -1.72147817e-01
    endloop
  endfacet
  facet normal 4.90337803e-01 -3.13533862e-01 -8.13182240e-01
    outer loop
      vertex 6.64821059e-01 -2.09232434e-01 5.78521826e-02
      vertex 4.17174515e-01 0.00000000e+00 -1.72147817e-01
      vertex 7.98609342e-01 0.00000000e+00 5.78521826e-02
    endloop
  endfacet
  facet normal 1.40356502e-01 8.97473450e-02 -9.86025084e-01
    outer loop
      vertex -2.00000000e-01 0.00000000e+00 -2.60000000e-01
      vertex 3.34488808e-01 1.29312756e-01 -1.72147817e-01
      vertex 4.17174515e-01 0.00000000e+00 -1.72147817e-01
    endloop
  endfacet
  facet normal 1.00611508e-01 2.40095645e-01 -9.65521313e-01
    outer loop
      vertex -2.00000000e-01 2.69422296e-17 -2.60000000e-01
      vertex 1.08587257e-01 2.23976263e-01 -1.72147817e-01
      vertex 3.34488808e-01 1.29312756e-01 -1.72147817e-01
    endloop
  endfacet
  facet normal 3.60911662e-02 3.21429021e-01 -9.46245641e-01
    outer loop
      vertex -2.00000000e-01 4.66653105e-17 -2.60000000e-01
      vertex -2.00000000e-01 2.58625511e-01 -1.72147817e-01
      vertex 1.08587257e-01 2.23976263e-01 -1.72147817e-01
    endloop
  endfacet
  facet normal -3.60911662e-02 3.21429021e-01 -9.46245641e-01
    outer loop
      vertex -2.00000000e-01 5.38844592e-17 -2.60000000e-01
      vertex -5.08587257e-01 2.23976263e-01 -1.72147817e-01
      vertex -2.00000000e-01 2.58625511e-01 -1.72147817e-01
    endloop
  endfacet
  facet normal -1.00611508e-01 2.40095645e-01 -9.65521313e-01
    outer loop
      vertex -2.00000000e-01 4.66653105e-17 -2.60000000e-01
      vertex -7.34488808e-01 1.29312756e-01 -1.72147817e-01
      vertex -5.08587257e-01 2.23976263e-01 -1.72147817e-01
    endloop
  endfacet
  facet normal -1.40356502e-01 8.97473450e-02 -9.86025084e-01
    outer loop
      vertex -2.00000000e-01 2.69422296e-17 -2.60000000e-01
      vertex -8.17174515e-01 3.16724904e-17 -1.72147817e-01
      vertex -7.34488808e-01 1.29312756e-01 -1.72147817e-01
    endloop
  endfacet
  facet normal -1.40356502e-01 -8.97473450e-02 -9.86025084e-01
    outer loop
      vertex -2.00000000e-01 6.59894304e-33 -2.60000000e-01
      vertex -7.34488808e-01 -1.29312756e-01 -1.72147817e-01
      vertex -8.17174515e-01 3.16724904e-17 -1.72147817e-01
    endloop
  endfacet
  facet normal -1.00611508e-01 -2.40095645e-01 -9.65521313e-01
    outer loop
      vertex -2.00000000e-01 -2.69422296e-17 -2.60000000e-01
      vertex -5.08587257e-01 -2.23976263e-01 -1.72147817e-01
      vertex -7.34488808e-01 -1.29312756e-01 -1.72147817e-01
    endloop
  endfacet
  facet normal -3.60911662e-02 -3.21429021e-01 -9.46245641e-01
    outer loop
      vertex -2.00000000e-01 -4.66653105e-17 -2.60000000e-01
      vertex -2.00000000e-01 -2.58625511e-01 -1.72147817e-01
      vertex -5.08587257e-01 -2.23976263e-01 -1.72147817e-01
    endloop
  endfacet
  facet normal 3.60911662e-02 -3.21429021e-01 -9.46245641e-01
    outer loop
      vertex -2.00000000e-01 -5.38844592e-17 -2.60000000e-01
      vertex 1.08587257e-01 -2.23976263e-01 -1.72147817e-01
      vertex -2.00000000e-01 -2.58625511e-01 -1.72147817e-01
    endloop
  endfacet
  facet normal 1.00611508e-01 -2.40095645e-01 -9.65521313e-01
    outer loop
      vertex -2.00000000e-01 -4.66653105e-17 -2.60000000e-01
      vertex 3.34488808e-01 -1.29312756e-01 -1.72147817e-01
      vertex 1.08587257e-01 -2.23976263e-01 -1.72147817e-01
    endloop
  endfacet
  facet normal 1.40356502e-01 -8.97473450e-02 -9.86025084e-01
    outer loop
      vertex -2.00000000e-01 -2.69422296e-17 -2.60000000e-01
      vertex 4.17174515e-01 0.00000000e+00 -1.72147817e-01
      vertex 3.34488808e-01 -1.29312756e-01 -1.72147817e-01
    endloop
  endfacet
  facet normal -6.78598345e-01 -6.78598345e-01 2.81084638e-01
    outer loop
      vertex -1.10000000e+00 -2.80000000e-01 2.00000000e-01
      vertex -1.10000000e+00 -1.97989899e-01 3.97989899e-01
      vertex -1.38000000e+00 0.00000000e+00 2.00000000e-01
    endloop
  endfacet
  facet normal -6.78598345e-01 -2.81084638e-01 6.78598345e-01
    outer loop
      vertex -1.10000000e+00 -1.97989899e-01 3.97989899e-01
      vertex -1.10000000e+00 -1.71450552e-17 4.80000000e-01
      vertex -1.38000000e+00 0.00000000e+00 2.00000000e-01
    endloop
  endfacet
  facet normal -6.78598345e-01 2.81084638e-01 6.78598345e-01
    outer loop
      vertex -1.10000000e+00 -1.71450552e-17 4.80000000e-01
      vertex -1.10000000e+00 1.97989899e-01 3.97989899e-01
      vertex -1.38000000e+00 0.00000000e+00 2.00000000e-01
    endloop
  endfacet
  facet normal -6.78598345e-01 6.78598345e-01 2.81084638e-01
    outer loop
      vertex -1.10000000e+00 1.97989899e-01 3.97989899e-01
      vertex -1.10000000e+00 2.80000000e-01 2.00000000e-01
      vertex -1.38000000e+00 0.00000000e+00 2.00000000e-01
    endloop
  endfacet
  facet normal -6.78598345e-01 6.78598345e-01 -2.81084638e-01
    outer loop
      vertex -1.10000000e+00 2.80000000e-01 2.00000000e-01
      vertex -1.10000000e+00 1.97989899e-01 2.01010127e-03
      vertex -1.38000000e+00 0.00000000e+00 2.00000000e-01
    endloop
  endfacet
  facet normal -6.78598345e-01 2.81084638e-01 -6.78598345e-01
    outer loop
      vertex -1.10000000e+00 1.97989899e-01 2.01010127e-03
      vertex -1.10000000e+00 5.14351656e-17 -8.00000000e-02
      vertex -1.38000000e+00 0.00000000e+00 2.00000000e-01
    endloop
  endfacet
  facet normal -6.78598345e-01 -2.81084638e-01 -6.78598345e-01
    outer loop
      vertex -1.10000000e+00 5.14351656e-17 -8.00000000e-02
      vertex -1.10000000e+00 -1.97989899e-01 2.01010127e-03
      vertex -1.38000000e+00 0.00000000e+00 2.00000000e-01
    endloop
  endfacet
  facet normal -6.78598345e-01 -6.78598345e-01 -2.81084638e-01
    outer loop
      vertex -1.10000000e+00 -1.97989899e-01 2.01010127e-03
      vertex -1.10000000e+00 -2.80000000e-01 2.00000000e-01
      vertex -1.38000000e+00 0.00000000e+00 2.00000000e-01
    endloop
  endfacet
  facet normal 1.00000000e+00 0.00000000e+00 0.00000000e+00
    outer loop
      vertex -1.10000000e+00 0.00000000e+00 2.00000000e-01
      vertex -1.10000000e+00 -1.71450552e-17 4.80000000e-01
      vertex -1.10000000e+00 -1.97989899e-01 3.97989899e-01
    endloop
  endfacet
  facet normal 1.00000000e+00 0.00000000e+00 -0.00000000e+00
    outer loop
      vertex -1.10000000e+00 0.00000000e+00 2.00000000e-01
      vertex -1.10000000e+00 1.97989899e-01 3.97989899e-01
      vertex -1.10000000e+00 -1.71450552e-17 4.80000000e-01
    endloop
  endfacet
  facet normal 1.00000000e+00 0.00000000e+00 0.00000000e+00
    outer loop
      vertex -1.10000000e+00 0.00000000e+00 2.00000000e-01
      vertex -1.10000000e+00 2.80000000e-01 2.00000000e-01
      vertex -1.10000000e+00 1.97989899e-01 3.97989899e-01
    endloop
  endfacet
  facet normal 1.00000000e+00 -0.00000000e+00 0.00000000e+00
    outer loop
      vertex -1.10000000e+00 0.00000000e+00 2.00000000e-01
      vertex -1.10000000e+00 1.97989899e-01 2.01010127e-03
      vertex -1.10000000e+00 2.80000000e-01 2.00000000e-01
    endloop
  endfacet
  facet normal 1.00000000e+00 0.00000000e+00 0.00000000e+00
    outer loop
      vertex -1.10000000e+00 0.00000000e+00 2.00000000e-01
      vertex -1.10000000e+00 5.14351656e-17 -8.00000000e-02
      vertex -1.10000000e+00 1.97989899e-01 2.01010127e-03
    endloop
  endfacet
  facet normal 1.00000000e+00 0.00000000e+00 0.00000000e+00
    outer loop
      vertex -1.10000000e+00 0.00000000e+00 2.00000000e-01
      vertex -1.10000000e+00 -1.97989899e-01 2.01010127e-03
      vertex -1.10000000e+00 5.14351656e-17 -8.00000000e-02
    endloop
  endfacet
  facet normal 0.00000000e+00 0.00000000e+00 1.00000000e+00
    outer loop
      vertex 6.60000000e-01 -7.00000000e-02 1.55000000e-01
      vertex 1.24000000e+00 0.00000000e+00 1.55000000e-01
      vertex 6.60000000e-01 7.00000000e-02 1.55000000e-01
    endloop
  endfacet
  facet normal 0.00000000e+00 0.00000000e+00 -1.00000000e+00
    outer loop
      vertex 6.60000000e-01 -7.00000000e-02 7.05000000e-01
      vertex 6.60000000e-01 7.00000000e-02 7.05000000e-01
      vertex 1.24000000e+00 0.00000000e+00 7.05000000e-01
    endloop
  endfacet
  facet normal 1.00000000e+00 0.00000000e+00 0.00000000e+00
    outer loop
      vertex 6.60000000e-01 -7.00000000e-02 1.55000000e-01
      vertex 6.60000000e-01 7.00000000e-02 1.55000000e-01
      vertex 6.60000000e-01 7.00000000e-02 7.05000000e-01
    endloop
  endfacet
  facet normal 1.00000000e+00 0.00000000e+00 0.00000000e+00
    outer loop
      vertex 6.60000000e-01 -7.00000000e-02 1.55000000e-01
      vertex 6.60000000e-01 7.00000000e-02 7.05000000e-01
      vertex 6.60000000e-01 -7.00000000e-02 7.05000000e-01
    endloop
  endfacet
  facet normal -1.19820160e-01 -9.92795613e-01 0.00000000e+00
    outer loop
      vertex 6.60000000e-01 7.00000000e-02 1.55000000e-01
      vertex 1.24000000e+00 0.00000000e+00 1.55000000e-01
      vertex 1.24000000e+00 0.00000000e+00 7.05000000e-01
    endloop
  endfacet
  facet normal -1.19820160e-01 -9.92795613e-01 0.00000000e+00
    outer loop
      vertex 6.60000000e-01 7.00000000e-02 1.55000000e-01
      vertex 1.24000000e+00 0.00000000e+00 7.05000000e-01
      vertex 6.60000000e-01 7.00000000e-02 7.05000000e-01
    endloop
  endfacet
  facet normal -1.19820160e-01 9.92795613e-01 0.00000000e+00
    outer loop
      vertex 1.24000000e+00 0.00000000e+00 1.55000000e-01
      vertex 6.60000000e-01 -7.00000000e-02 1.55000000e-01
      vertex 6.60000000e-01 -7.00000000e-02 7.05000000e-01
    endloop
  endfacet
  facet normal -1.19820160e-01 9.92795613e-01 0.00000000e+00
    outer loop
      vertex 1.24000000e+00 0.00000000e+00 1.55000000e-01
      vertex 6.60000000e-01 -7.00000000e-02 7.05000000e-01
      vertex 1.24000000e+00 0.00000000e+00 7.05000000e-01
    endloop
  endfacet
  facet normal 0.00000000e+00 0.00000000e+00 -1.00000000e+00
    outer loop
      vertex 6.60000000e-01 7.00000000e-02 2.45000000e-01
      vertex 1.24000000e+00 3.36777870e-17 2.45000000e-01
      vertex 6.60000000e-01 -7.00000000e-02 2.45000000e-01
    endloop
  endfacet
  facet normal 0.00000000e+00 0.00000000e+00 1.00000000e+00
    outer loop
      vertex 6.60000000e-01 7.00000000e-02 -3.05000000e-01
      vertex 6.60000000e-01 -7.00000000e-02 -3.05000000e-01
      vertex 1.24000000e+00 -3.36777870e-17 -3.05000000e-01
    endloop
  endfacet
  facet normal 1.00000000e+00 0.00000000e+00 0.00000000e+00
    outer loop
      vertex 6.60000000e-01 7.00000000e-02 2.45000000e-01
      vertex 6.60000000e-01 -7.00000000e-02 2.45000000e-01
      vertex 6.60000000e-01 -7.00000000e-02 -3.05000000e-01
    endloop
  endfacet
  facet normal 1.00000000e+00 0.00000000e+00 0.00000000e+00
    outer loop
      vertex 6.60000000e-01 7.00000000e-02 2.45000000e-01
      vertex 6.60000000e-01 -7.00000000e-02 -3.05000000e-01
      vertex 6.60000000e-01 7.00000000e-02 -3.05000000e-01
    endloop
  endfacet
  facet normal -1.19820160e-01 9.92795613e-01 -1.07976543e-16
    outer loop
      vertex 6.60000000e-01 -7.00000000e-02 2.45000000e-01
      vertex 1.24000000e+00 3.36777870e-17 2.45000000e-01
      vertex 1.24000000e+00 -3.36777870e-17 -3.05000000e-01
    endloop
  endfacet
  facet normal -1.19820160e-01 9.92795613e-01 -1.00202232e-16
    outer loop
      vertex 6.60000000e-01 -7.00000000e-02 2.45000000e-01
      vertex 1.24000000e+00 -3.36777870e-17 -3.05000000e-01
      vertex 6.60000000e-01 -7.00000000e-02 -3.05000000e-01
    endloop
  endfacet
  facet normal -1.19820160e-01 -9.92795613e-01 1.07976543e-16
    outer loop
      vertex 1.24000000e+00 3.36777870e-17 2.45000000e-01
      vertex 6.60000000e-01 7.00000000e-02 2.45000000e-01
      vertex 6.60000000e-01 7.00000000e-02 -3.05000000e-01
    endloop
  endfacet
  facet normal -1.19820160e-01 -9.92795613e-01 1.21582397e-16
    outer loop
      vertex 1.24000000e+00 3.36777870e-17 2.45000000e-01
      vertex 6.60000000e-01 7.00000000e-02 -3.05000000e-01
      vertex 1.24000000e+00 -3.36777870e-17 -3.05000000e-01
    endloop
  endfacet
  facet normal 0.00000000e+00 -3.42020143e-01 9.39692621e-01
    outer loop
      vertex -7.00000000e-02 -1.87869502e-01 4.27501983e-01
      vertex -1.50000000e-01 3.38358365e-01 6.19033264e-01
      vertex -2.30000000e-01 -1.87869502e-01 4.27501983e-01
    endloop
  endfacet
  facet normal 0.00000000e+00 3.42020143e-01 -9.39692621e-01
    outer loop
      vertex -7.00000000e-02 -3.38358365e-01 8.40966736e-01
      vertex -2.30000000e-01 -3.38358365e-01 8.40966736e-01
      vertex -1.50000000e-01 1.87869502e-01 1.03249802e+00
    endloop
  endfacet
  facet normal 0.00000000e+00 9.39692621e-01 3.42020143e-01
    outer loop
      vertex -7.00000000e-02 -1.87869502e-01 4.27501983e-01
      vertex -2.30000000e-01 -1.87869502e-01 4.27501983e-01
      vertex -2.30000000e-01 -3.38358365e-01 8.40966736e-01
    endloop
  endfacet
  facet normal 0.00000000e+00 9.39692621e-01 3.42020143e-01
    outer loop
      vertex -7.00000000e-02 -1.87869502e-01 4.27501983e-01
      vertex -2.30000000e-01 -3.38358365e-01 8.40966736e-01
      vertex -7.00000000e-02 -3.38358365e-01 8.40966736e-01
    endloop
  endfacet
  facet normal 9.89949494e-01 -1.32892605e-01 -4.83689525e-02
    outer loop
      vertex -2.30000000e-01 -1.87869502e-01 4.27501983e-01
      vertex -1.50000000e-01 3.38358365e-01 6.19033264e-01
      vertex -1.50000000e-01 1.87869502e-01 1.03249802e+00
    endloop
  endfacet
  facet normal 9.89949494e-01 -1.32892605e-01 -4.83689525e-02
    outer loop
      vertex -2.30000000e-01 -1.87869502e-01 4.27501983e-01
      vertex -1.50000000e-01 1.87869502e-01 1.03249802e+00
      vertex -2.30000000e-01 -3.38358365e-01 8.40966736e-01
    endloop
  endfacet
  facet normal -9.89949494e-01 -1.32892605e-01 -4.83689525e-02
    outer loop
      vertex -1.50000000e-01 3.38358365e-01 6.19033264e-01
      vertex -7.00000000e-02 -1.87869502e-01 4.27501983e-01
      vertex -7.00000000e-02 -3.38358365e-01 8.40966736e-01
    endloop
  endfacet
  facet normal -9.89949494e-01 -1.32892605e-01 -4.83689525e-02
    outer loop
      vertex -1.50000000e-01 3.38358365e-01 6.19033264e-01
      vertex -7.00000000e-02 -3.38358365e-01 8.40966736e-01
      vertex -1.50000000e-01 1.87869502e-01 1.03249802e+00
    endloop
  endfacet
  facet normal 0.00000000e+00 -3.42020143e-01 9.39692621e-01
    outer loop
      vertex -7.00000000e-02 2.55478875e-01 -3.37923515e-01
      vertex 8.52305346e-18 -1.39192026e-01 -4.81571976e-01
      vertex 7.00000000e-02 2.55478875e-01 -3.37923515e-01
    endloop
  endfacet
  facet normal 0.00000000e+00 3.42020143e-01 -9.39692621e-01
    outer loop
      vertex -7.00000000e-02 1.39192026e-01 -1.84280244e-02
      vertex 7.00000000e-02 1.39192026e-01 -1.84280244e-02
      vertex 1.56435693e-17 -2.55478875e-01 -1.62076485e-01
    endloop
  endfacet
  facet normal 0.00000000e+00 -9.39692621e-01 -3.42020143e-01
    outer loop
      vertex -7.00000000e-02 2.55478875e-01 -3.37923515e-01
      vertex 7.00000000e-02 2.55478875e-01 -3.37923515e-01
      vertex 7.00000000e-02 1.39192026e-01 -1.84280244e-02
    endloop
  endfacet
  facet normal 0.00000000e+00 -9.39692621e-01 -3.42020143e-01
    outer loop
      vertex -7.00000000e-02 2.55478875e-01 -3.37923515e-01
      vertex 7.00000000e-02 1.39192026e-01 -1.84280244e-02
      vertex -7.00000000e-02 1.39192026e-01 -1.84280244e-02
    endloop
  endfacet
  facet normal -9.86393924e-01 1.54484515e-01 5.62277652e-02
    outer loop
      vertex 7.00000000e-02 2.55478875e-01 -3.37923515e-01
      vertex 8.52305346e-18 -1.39192026e-01 -4.81571976e-01
      vertex 1.56435693e-17 -2.55478875e-01 -1.62076485e-01
    endloop
  endfacet
  facet normal -9.86393924e-01 1.54484515e-01 5.62277652e-02
    outer loop
      vertex 7.00000000e-02 2.55478875e-01 -3.37923515e-01
      vertex 1.56435693e-17 -2.55478875e-01 -1.62076485e-01
      vertex 7.00000000e-02 1.39192026e-01 -1.84280244e-02
    endloop
  endfacet
  facet normal 9.86393924e-01 1.54484515e-01 5.62277652e-02
    outer loop
      vertex 8.52305346e-18 -1.39192026e-01 -4.81571976e-01
      vertex -7.00000000e-02 2.55478875e-01 -3.37923515e-01
      vertex -7.00000000e-02 1.39192026e-01 -1.84280244e-02
    endloop
  endfacet
  facet normal 9.86393924e-01 1.54484515e-01 5.62277652e-02
    outer loop
      vertex 8.52305346e-18 -1.39192026e-01 -4.81571976e-01
      vertex -7.00000000e-02 1.39192026e-01 -1.84280244e-02
      vertex 1.56435693e-17 -2.55478875e-01 -1.62076485e-01
    endloop
  endfacet
  facet normal -2.07120524e-01 -9.74425454e-01 8.71557427e-02
    outer loop
      vertex -4.48742179e-01 -2.00672195e-01 6.45783374e-02
      vertex 2.20371185e-02 -2.94502224e-01 1.34311966e-01
      vertex -4.46205281e-01 -1.88737030e-01 2.04045595e-01
    endloop
  endfacet
  facet normal 2.07120524e-01 9.74425454e-01 -8.71557427e-02
    outer loop
      vertex -5.23305567e-01 -5.51465359e-01 9.59544048e-02
      vertex -5.20768670e-01 -5.39530193e-01 2.35421663e-01
      vertex -5.25262702e-02 -6.45295387e-01 1.65688034e-01
    endloop
  endfacet
  facet normal 9.78147601e-01 -2.07911691e-01 4.30238957e-18
    outer loop
      vertex -4.48742179e-01 -2.00672195e-01 6.45783374e-02
      vertex -4.46205281e-01 -1.88737030e-01 2.04045595e-01
      vertex -5.20768670e-01 -5.39530193e-01 2.35421663e-01
    endloop
  endfacet
  facet normal 9.78147601e-01 -2.07911691e-01 4.13029399e-16
    outer loop
      vertex -4.48742179e-01 -2.00672195e-01 6.45783374e-02
      vertex -5.20768670e-01 -5.39530193e-01 2.35421663e-01
      vertex -5.23305567e-01 -5.51465359e-01 9.59544048e-02
    endloop
  endfacet
  facet normal -1.59084469e-01 -5.43557648e-02 -9.85767509e-01
    outer loop
      vertex -4.46205281e-01 -1.88737030e-01 2.04045595e-01
      vertex 2.20371185e-02 -2.94502224e-01 1.34311966e-01
      vertex -5.25262702e-02 -6.45295387e-01 1.65688034e-01
    endloop
  endfacet
  facet normal -1.59084469e-01 -5.43557648e-02 -9.85767509e-01
    outer loop
      vertex -4.46205281e-01 -1.88737030e-01 2.04045595e-01
      vertex -5.25262702e-02 -6.45295387e-01 1.65688034e-01
      vertex -5.20768670e-01 -5.39530193e-01 2.35421663e-01
    endloop
  endfacet
  facet normal -1.23222413e-01 1.14361945e-01 9.85767509e-01
    outer loop
      vertex 2.20371185e-02 -2.94502224e-01 1.34311966e-01
      vertex -4.48742179e-01 -2.00672195e-01 6.45783374e-02
      vertex -5.23305567e-01 -5.51465359e-01 9.59544048e-02
    endloop
  endfacet
  facet normal -1.23222413e-01 1.14361945e-01 9.85767509e-01
    outer loop
      vertex 2.20371185e-02 -2.94502224e-01 1.34311966e-01
      vertex -5.23305567e-01 -5.51465359e-01 9.59544048e-02
      vertex -5.25262702e-02 -6.45295387e-01 1.65688034e-01
    endloop
  endfacet
  facet normal -2.07120524e-01 9.74425454e-01 8.71557427e-02
    outer loop
      vertex -4.46205281e-01 1.88737030e-01 2.04045595e-01
      vertex 2.20371185e-02 2.94502224e-01 1.34311966e-01
      vertex -4.48742179e-01 2.00672195e-01 6.45783374e-02
    endloop
  endfacet
  facet normal 2.07120524e-01 -9.74425454e-01 -8.71557427e-02
    outer loop
      vertex -5.20768670e-01 5.39530193e-01 2.35421663e-01
      vertex -5.23305567e-01 5.51465359e-01 9.59544048e-02
      vertex -5.25262702e-02 6.45295387e-01 1.65688034e-01
    endloop
  endfacet
  facet normal 9.78147601e-01 2.07911691e-01 -1.29071687e-17
    outer loop
      vertex -4.46205281e-01 1.88737030e-01 2.04045595e-01
      vertex -4.48742179e-01 2.00672195e-01 6.45783374e-02
      vertex -5.23305567e-01 5.51465359e-01 9.59544048e-02
    endloop
  endfacet
  facet normal 9.78147601e-01 2.07911691e-01 4.13029399e-16
    outer loop
      vertex -4.46205281e-01 1.88737030e-01 2.04045595e-01
      vertex -5.23305567e-01 5.51465359e-01 9.59544048e-02
      vertex -5.20768670e-01 5.39530193e-01 2.35421663e-01
    endloop
  endfacet
  facet normal -1.23222413e-01 -1.14361945e-01 9.85767509e-01
    outer loop
      vertex -4.48742179e-01 2.00672195e-01 6.45783374e-02
      vertex 2.20371185e-02 2.94502224e-01 1.34311966e-01
      vertex -5.25262702e-02 6.45295387e-01 1.65688034e-01
    endloop
  endfacet
  facet normal -1.23222413e-01 -1.14361945e-01 9.85767509e-01
    outer loop
      vertex -4.48742179e-01 2.00672195e-01 6.45783374e-02
      vertex -5.25262702e-02 6.45295387e-01 1.65688034e-01
      vertex -5.23305567e-01 5.51465359e-01 9.59544048e-02
    endloop
  endfacet
  facet normal -1.59084469e-01 5.43557648e-02 -9.85767509e-01
    outer loop
      vertex 2.20371185e-02 2.94502224e-01 1.34311966e-01
      vertex -4.46205281e-01 1.88737030e-01 2.04045595e-01
      vertex -5.20768670e-01 5.39530193e-01 2.35421663e-01
    endloop
  endfacet
  facet normal -1.59084469e-01 5.43557648e-02 -9.85767509e-01
    outer loop
      vertex 2.20371185e-02 2.94502224e-01 1.34311966e-01
      vertex -5.20768670e-01 5.39530193e-01 2.35421663e-01
      vertex -5.25262702e-02 6.45295387e-01 1.65688034e-01
    endloop
  endfacet
  facet normal 7.77270409e-01 -4.93682662e-01 3.90036077e-01
    outer loop
      vertex -9.91165159e-01 -2.81766968e-01 3.50000000e-01
      vertex -1.00758549e+00 -2.74260513e-01 3.92223893e-01
      vertex -1.02502042e+00 -3.07351887e-01 3.85083570e-01
    endloop
  endfacet
  facet normal 7.77270409e-01 -4.93682662e-01 3.90036077e-01
    outer loop
      vertex -9.91165159e-01 -2.81766968e-01 3.50000000e-01
      vertex -1.02502042e+00 -3.07351887e-01 3.85083570e-01
      vertex -1.01270517e+00 -3.12981729e-01 3.53415650e-01
    endloop
  endfacet
  facet normal 2.93484577e-01 -3.46846892e-01 8.90822113e-01
    outer loop
      vertex -1.00758549e+00 -2.74260513e-01 3.92223893e-01
      vertex -1.04885166e+00 -2.64258307e-01 4.09713602e-01
      vertex -1.05597005e+00 -2.99850233e-01 3.98200852e-01
    endloop
  endfacet
  facet normal 2.93484577e-01 -3.46846892e-01 8.90822113e-01
    outer loop
      vertex -1.00758549e+00 -2.74260513e-01 3.92223893e-01
      vertex -1.05597005e+00 -2.99850233e-01 3.98200852e-01
      vertex -1.02502042e+00 -3.07351887e-01 3.85083570e-01
    endloop
  endfacet
  facet normal -4.04311491e-01 -2.07287678e-01 8.90822113e-01
    outer loop
      vertex -1.04885166e+00 -2.64258307e-01 4.09713602e-01
      vertex -1.09079052e+00 -2.57619507e-01 3.92223893e-01
      vertex -1.08742419e+00 -2.94871133e-01 3.85083570e-01
    endloop
  endfacet
  facet normal -4.04311491e-01 -2.07287678e-01 8.90822113e-01
    outer loop
      vertex -1.04885166e+00 -2.64258307e-01 4.09713602e-01
      vertex -1.08742419e+00 -2.94871133e-01 3.85083570e-01
      vertex -1.05597005e+00 -2.99850233e-01 3.98200852e-01
    endloop
  endfacet
  facet normal -9.07358324e-01 -1.56756915e-01 3.90036077e-01
    outer loop
      vertex -1.09079052e+00 -2.57619507e-01 3.92223893e-01
      vertex -1.10883484e+00 -2.58233032e-01 3.50000000e-01
      vertex -1.10095743e+00 -2.95331276e-01 3.53415650e-01
    endloop
  endfacet
  facet normal -9.07358324e-01 -1.56756915e-01 3.90036077e-01
    outer loop
      vertex -1.09079052e+00 -2.57619507e-01 3.92223893e-01
      vertex -1.10095743e+00 -2.95331276e-01 3.53415650e-01
      vertex -1.08742419e+00 -2.94871133e-01 3.85083570e-01
    endloop
  endfacet
  facet normal -9.20977909e-01 -2.24854838e-01 -3.18182327e-01
    outer loop
      vertex -1.10883484e+00 -2.58233032e-01 3.50000000e-01
      vertex -1.09241451e+00 -2.65739487e-01 3.07776107e-01
      vertex -1.08864219e+00 -3.00961118e-01 3.21747730e-01
    endloop
  endfacet
  facet normal -9.20977909e-01 -2.24854838e-01 -3.18182327e-01
    outer loop
      vertex -1.10883484e+00 -2.58233032e-01 3.50000000e-01
      vertex -1.08864219e+00 -3.00961118e-01 3.21747730e-01
      vertex -1.10095743e+00 -2.95331276e-01 3.53415650e-01
    endloop
  endfacet
  facet normal -4.37192077e-01 -3.71690608e-01 -8.18968363e-01
    outer loop
      vertex -1.09241451e+00 -2.65739487e-01 3.07776107e-01
      vertex -1.05114834e+00 -2.75741693e-01 2.90286398e-01
      vertex -1.05769255e+00 -3.08462772e-01 3.08630449e-01
    endloop
  endfacet
  facet normal -4.37192077e-01 -3.71690608e-01 -8.18968363e-01
    outer loop
      vertex -1.09241451e+00 -2.65739487e-01 3.07776107e-01
      vertex -1.05769255e+00 -3.08462772e-01 3.08630449e-01
      vertex -1.08864219e+00 -3.00961118e-01 3.21747730e-01
    endloop
  endfacet
  facet normal 2.60603991e-01 -5.11249822e-01 -8.18968363e-01
    outer loop
      vertex -1.05114834e+00 -2.75741693e-01 2.90286398e-01
      vertex -1.00920948e+00 -2.82380493e-01 3.07776107e-01
      vertex -1.02623841e+00 -3.13441872e-01 3.21747730e-01
    endloop
  endfacet
  facet normal 2.60603991e-01 -5.11249822e-01 -8.18968363e-01
    outer loop
      vertex -1.05114834e+00 -2.75741693e-01 2.90286398e-01
      vertex -1.02623841e+00 -3.13441872e-01 3.21747730e-01
      vertex -1.05769255e+00 -3.08462772e-01 3.08630449e-01
    endloop
  endfacet
  facet normal 7.63650824e-01 -5.61780585e-01 -3.18182327e-01
    outer loop
      vertex -1.00920948e+00 -2.82380493e-01 3.07776107e-01
      vertex -9.91165159e-01 -2.81766968e-01 3.50000000e-01
      vertex -1.01270517e+00 -3.12981729e-01 3.53415650e-01
    endloop
  endfacet
  facet normal 7.63650824e-01 -5.61780585e-01 -3.18182327e-01
    outer loop
      vertex -1.00920948e+00 -2.82380493e-01 3.07776107e-01
      vertex -1.01270517e+00 -3.12981729e-01 3.53415650e-01
      vertex -1.02623841e+00 -3.13441872e-01 3.21747730e-01
    endloop
  endfacet
  facet normal -1.95180015e-01 -9.75900073e-01 9.75900073e-02
    outer loop
      vertex -1.05000000e+00 -2.70000000e-01 3.50000000e-01
      vertex -1.00758549e+00 -2.74260513e-01 3.92223893e-01
      vertex -1.04885166e+00 -2.64258307e-01 4.09713602e-01
    endloop
  endfacet
  facet normal 1.95180015e-01 9.75900073e-01 -9.75900073e-02
    outer loop
      vertex -1.05683130e+00 -3.04156503e-01 3.53415650e-01
      vertex -1.05597005e+00 -2.99850233e-01 3.98200852e-01
      vertex -1.02502042e+00 -3.07351887e-01 3.85083570e-01
    endloop
  endfacet
  facet normal -1.95180015e-01 -9.75900073e-01 9.75900073e-02
    outer loop
      vertex -1.05000000e+00 -2.70000000e-01 3.50000000e-01
      vertex -1.04885166e+00 -2.64258307e-01 4.09713602e-01
      vertex -1.09079052e+00 -2.57619507e-01 3.92223893e-01
    endloop
  endfacet
  facet normal 1.95180015e-01 9.75900073e-01 -9.75900073e-02
    outer loop
      vertex -1.05683130e+00 -3.04156503e-01 3.53415650e-01
      vertex -1.08742419e+00 -2.94871133e-01 3.85083570e-01
      vertex -1.05597005e+00 -2.99850233e-01 3.98200852e-01
    endloop
  endfacet
  facet normal -1.95180015e-01 -9.75900073e-01 9.75900073e-02
    outer loop
      vertex -1.05000000e+00 -2.70000000e-01 3.50000000e-01
      vertex -1.09079052e+00 -2.57619507e-01 3.92223893e-01
      vertex -1.10883484e+00 -2.58233032e-01 3.50000000e-01
    endloop
  endfacet
  facet normal 1.95180015e-01 9.75900073e-01 -9.75900073e-02
    outer loop
      vertex -1.05683130e+00 -3.04156503e-01 3.53415650e-01
      vertex -1.10095743e+00 -2.95331276e-01 3.53415650e-01
      vertex -1.08742419e+00 -2.94871133e-01 3.85083570e-01
    endloop
  endfacet
  facet normal -1.95180015e-01 -9.75900073e-01 9.75900073e-02
    outer loop
      vertex -1.05000000e+00 -2.70000000e-01 3.50000000e-01
      vertex -1.10883484e+00 -2.58233032e-01 3.50000000e-01
      vertex -1.09241451e+00 -2.65739487e-01 3.07776107e-01
    endloop
  endfacet
  facet normal 1.95180015e-01 9.75900073e-01 -9.75900073e-02
    outer loop
      vertex -1.05683130e+00 -3.04156503e-01 3.53415650e-01
      vertex -1.08864219e+00 -3.00961118e-01 3.21747730e-01
      vertex -1.10095743e+00 -2.95331276e-01 3.53415650e-01
    endloop
  endfacet
  facet normal -1.95180015e-01 -9.75900073e-01 9.75900073e-02
    outer loop
      vertex -1.05000000e+00 -2.70000000e-01 3.50000000e-01
      vertex -1.09241451e+00 -2.65739487e-01 3.07776107e-01
      vertex -1.05114834e+00 -2.75741693e-01 2.90286398e-01
    endloop
  endfacet
  facet normal 1.95180015e-01 9.75900073e-01 -9.75900073e-02
    outer loop
      vertex -1.05683130e+00 -3.04156503e-01 3.53415650e-01
      vertex -1.05769255e+00 -3.08462772e-01 3.08630449e-01
      vertex -1.08864219e+00 -3.00961118e-01 3.21747730e-01
    endloop
  endfacet
  facet normal -1.95180015e-01 -9.75900073e-01 9.75900073e-02
    outer loop
      vertex -1.05000000e+00 -2.70000000e-01 3.50000000e-01
      vertex -1.05114834e+00 -2.75741693e-01 2.90286398e-01
      vertex -1.00920948e+00 -2.82380493e-01 3.07776107e-01
    endloop
  endfacet
  facet normal 1.95180015e-01 9.75900073e-01 -9.75900073e-02
    outer loop
      vertex -1.05683130e+00 -3.04156503e-01 3.53415650e-01
      vertex -1.02623841e+00 -3.13441872e-01 3.21747730e-01
      vertex -1.05769255e+00 -3.08462772e-01 3.08630449e-01
    endloop
  endfacet
  facet normal -9.07358324e-01 1.56756915e-01 3.90036077e-01
    outer loop
      vertex -1.10883484e+00 2.58233032e-01 3.50000000e-01
      vertex -1.09079052e+00 2.57619507e-01 3.92223893e-01
      vertex -1.08742419e+00 2.94871133e-01 3.85083570e-01
    endloop
  endfacet
  facet normal -9.07358324e-01 1.56756915e-01 3.90036077e-01
    outer loop
      vertex -1.10883484e+00 2.58233032e-01 3.50000000e-01
      vertex -1.08742419e+00 2.94871133e-01 3.85083570e-01
      vertex -1.10095743e+00 2.95331276e-01 3.53415650e-01
    endloop
  endfacet
  facet normal -4.04311491e-01 2.07287678e-01 8.90822113e-01
    outer loop
      vertex -1.09079052e+00 2.57619507e-01 3.92223893e-01
      vertex -1.04885166e+00 2.64258307e-01 4.09713602e-01
      vertex -1.05597005e+00 2.99850233e-01 3.98200852e-01
    endloop
  endfacet
  facet normal -4.04311491e-01 2.07287678e-01 8.90822113e-01
    outer loop
      vertex -1.09079052e+00 2.57619507e-01 3.92223893e-01
      vertex -1.05597005e+00 2.99850233e-01 3.98200852e-01
      vertex -1.08742419e+00 2.94871133e-01 3.85083570e-01
    endloop
  endfacet
  facet normal 2.93484577e-01 3.46846892e-01 8.90822113e-01
    outer loop
      vertex -1.04885166e+00 2.64258307e-01 4.09713602e-01
      vertex -1.00758549e+00 2.74260513e-01 3.92223893e-01
      vertex -1.02502042e+00 3.07351887e-01 3.85083570e-01
    endloop
  endfacet
  facet normal 2.93484577e-01 3.46846892e-01 8.90822113e-01
    outer loop
      vertex -1.04885166e+00 2.64258307e-01 4.09713602e-01
      vertex -1.02502042e+00 3.07351887e-01 3.85083570e-01
      vertex -1.05597005e+00 2.99850233e-01 3.98200852e-01
    endloop
  endfacet
  facet normal 7.77270409e-01 4.93682662e-01 3.90036077e-01
    outer loop
      vertex -1.00758549e+00 2.74260513e-01 3.92223893e-01
      vertex -9.91165159e-01 2.81766968e-01 3.50000000e-01
      vertex -1.01270517e+00 3.12981729e-01 3.53415650e-01
    endloop
  endfacet
  facet normal 7.77270409e-01 4.93682662e-01 3.90036077e-01
    outer loop
      vertex -1.00758549e+00 2.74260513e-01 3.92223893e-01
      vertex -1.01270517e+00 3.12981729e-01 3.53415650e-01
      vertex -1.02502042e+00 3.07351887e-01 3.85083570e-01
    endloop
  endfacet
  facet normal 7.63650824e-01 5.61780585e-01 -3.18182327e-01
    outer loop
      vertex -9.91165159e-01 2.81766968e-01 3.50000000e-01
      vertex -1.00920948e+00 2.82380493e-01 3.07776107e-01
      vertex -1.02623841e+00 3.13441872e-01 3.21747730e-01
    endloop
  endfacet
  facet normal 7.63650824e-01 5.61780585e-01 -3.18182327e-01
    outer loop
      vertex -9.91165159e-01 2.81766968e-01 3.50000000e-01
      vertex -1.02623841e+00 3.13441872e-01 3.21747730e-01
      vertex -1.01270517e+00 3.12981729e-01 3.53415650e-01
    endloop
  endfacet
  facet normal 2.60603991e-01 5.11249822e-01 -8.18968363e-01
    outer loop
      vertex -1.00920948e+00 2.82380493e-01 3.07776107e-01
      vertex -1.05114834e+00 2.75741693e-01 2.90286398e-01
      vertex -1.05769255e+00 3.08462772e-01 3.08630449e-01
    endloop
  endfacet
  facet normal 2.60603991e-01 5.11249822e-01 -8.18968363e-01
    outer loop
      vertex -1.00920948e+00 2.82380493e-01 3.07776107e-01
      vertex -1.05769255e+00 3.08462772e-01 3.08630449e-01
      vertex -1.02623841e+00 3.13441872e-01 3.21747730e-01
    endloop
  endfacet
  facet normal -4.37192077e-01 3.71690608e-01 -8.18968363e-01
    outer loop
      vertex -1.05114834e+00 2.75741693e-01 2.90286398e-01
      vertex -1.09241451e+00 2.65739487e-01 3.07776107e-01
      vertex -1.08864219e+00 3.00961118e-01 3.21747730e-01
    endloop
  endfacet
  facet normal -4.37192077e-01 3.71690608e-01 -8.18968363e-01
    outer loop
      vertex -1.05114834e+00 2.75741693e-01 2.90286398e-01
      vertex -1.08864219e+00 3.00961118e-01 3.21747730e-01
      vertex -1.05769255e+00 3.08462772e-01 3.08630449e-01
    endloop
  endfacet
  facet normal -9.20977909e-01 2.24854838e-01 -3.18182327e-01
    outer loop
      vertex -1.09241451e+00 2.65739487e-01 3.07776107e-01
      vertex -1.10883484e+00 2.58233032e-01 3.50000000e-01
      vertex -1.10095743e+00 2.95331276e-01 3.53415650e-01
    endloop
  endfacet
  facet normal -9.20977909e-01 2.24854838e-01 -3.18182327e-01
    outer loop
      vertex -1.09241451e+00 2.65739487e-01 3.07776107e-01
      vertex -1.10095743e+00 2.95331276e-01 3.53415650e-01
      vertex -1.08864219e+00 3.00961118e-01 3.21747730e-01
    endloop
  endfacet
  facet normal -1.95180015e-01 9.75900073e-01 9.75900073e-02
    outer loop
      vertex -1.05000000e+00 2.70000000e-01 3.50000000e-01
      vertex -1.09079052e+00 2.57619507e-01 3.92223893e-01
      vertex -1.04885166e+00 2.64258307e-01 4.09713602e-01
    endloop
  endfacet
  facet normal 1.95180015e-01 -9.75900073e-01 -9.75900073e-02
    outer loop
      vertex -1.05683130e+00 3.04156503e-01 3.53415650e-01
      vertex -1.05597005e+00 2.99850233e-01 3.98200852e-01
      vertex -1.08742419e+00 2.94871133e-01 3.85083570e-01
    endloop
  endfacet
  facet normal -1.95180015e-01 9.75900073e-01 9.75900073e-02
    outer loop
      vertex -1.05000000e+00 2.70000000e-01 3.50000000e-01
      vertex -1.04885166e+00 2.64258307e-01 4.09713602e-01
      vertex -1.00758549e+00 2.74260513e-01 3.92223893e-01
    endloop
  endfacet
  facet normal 1.95180015e-01 -9.75900073e-01 -9.75900073e-02
    outer loop
      vertex -1.05683130e+00 3.04156503e-01 3.53415650e-01
      vertex -1.02502042e+00 3.07351887e-01 3.85083570e-01
      vertex -1.05597005e+00 2.99850233e-01 3.98200852e-01
    endloop
  endfacet
  facet normal -1.95180015e-01 9.75900073e-01 9.75900073e-02
    outer loop
      vertex -1.05000000e+00 2.70000000e-01 3.50000000e-01
      vertex -1.00758549e+00 2.74260513e-01 3.92223893e-01
      vertex -9.91165159e-01 2.81766968e-01 3.50000000e-01
    endloop
  endfacet
  facet normal 1.95180015e-01 -9.75900073e-01 -9.75900073e-02
    outer loop
      vertex -1.05683130e+00 3.04156503e-01 3.53415650e-01
      vertex -1.01270517e+00 3.12981729e-01 3.53415650e-01
      vertex -1.02502042e+00 3.07351887e-01 3.85083570e-01
    endloop
  endfacet
  facet normal -1.95180015e-01 9.75900073e-01 9.75900073e-02
    outer loop
      vertex -1.05000000e+00 2.70000000e-01 3.50000000e-01
      vertex -9.91165159e-01 2.81766968e-01 3.50000000e-01
      vertex -1.00920948e+00 2.82380493e-01 3.07776107e-01
    endloop
  endfacet
  facet normal 1.95180015e-01 -9.75900073e-01 -9.75900073e-02
    outer loop
      vertex -1.05683130e+00 3.04156503e-01 3.53415650e-01
      vertex -1.02623841e+00 3.13441872e-01 3.21747730e-01
      vertex -1.01270517e+00 3.12981729e-01 3.53415650e-01
    endloop
  endfacet
  facet normal -1.95180015e-01 9.75900073e-01 9.75900073e-02
    outer loop
      vertex -1.05000000e+00 2.70000000e-01 3.50000000e-01
      vertex -1.00920948e+00 2.82380493e-01 3.07776107e-01
      vertex -1.05114834e+00 2.75741693e-01 2.90286398e-01
    endloop
  endfacet
  facet normal 1.95180015e-01 -9.75900073e-01 -9.75900073e-02
    outer loop
      vertex -1.05683130e+00 3.04156503e-01 3.53415650e-01
      vertex -1.05769255e+00 3.08462772e-01 3.08630449e-01
      vertex -1.02623841e+00 3.13441872e-01 3.21747730e-01
    endloop
  endfacet
  facet normal -1.95180015e-01 9.75900073e-01 9.75900073e-02
    outer loop
      vertex -1.05000000e+00 2.70000000e-01 3.50000000e-01
      vertex -1.05114834e+00 2.75741693e-01 2.90286398e-01
      vertex -1.09241451e+00 2.65739487e-01 3.07776107e-01
    endloop
  endfacet
  facet normal 1.95180015e-01 -9.75900073e-01 -9.75900073e-02
    outer loop
      vertex -1.05683130e+00 3.04156503e-01 3.53415650e-01
      vertex -1.08864219e+00 3.00961118e-01 3.21747730e-01
      vertex -1.05769255e+00 3.08462772e-01 3.08630449e-01
    endloop
  endfacet
endsolid glce_lowpoly_fish
